{"glyphs":{"0":{"ha":919,"x_min":131,"x_max":789,"o":"m 369 0 q 198 54 265 0 q 131 225 131 108 l 131 800 q 198 967 131 908 q 369 1025 265 1025 l 556 1025 q 733 963 676 1025 q 789 800 789 901 l 789 225 q 556 0 789 0 l 369 0 m 556 31 q 756 225 756 31 l 756 800 q 705 944 756 894 q 556 994 654 994 l 369 994 q 220 942 276 994 q 164 800 164 890 l 164 225 q 219 81 164 131 q 369 31 274 31 l 556 31 z "},"1":{"ha":492,"x_min":75,"x_max":342,"o":"m 308 990 l 75 906 l 75 928 l 308 1028 l 342 1028 l 342 0 l 308 0 l 308 990 z "},"2":{"ha":831,"x_min":85,"x_max":751,"o":"m 85 31 l 490 410 q 636 589 596 507 q 676 779 676 671 q 617 938 676 881 q 399 994 557 994 l 131 994 l 131 1017 l 197 1019 q 410 1025 333 1025 q 710 776 710 1025 q 665 580 710 667 q 513 390 621 493 l 135 33 l 751 33 l 751 0 l 85 0 l 85 31 z "},"3":{"ha":819,"x_min":67,"x_max":694,"o":"m 419 -8 q 67 0 190 -8 l 67 22 l 417 22 q 592 66 525 22 q 658 224 658 110 l 658 311 q 595 449 658 406 q 447 494 532 492 l 178 504 l 178 524 l 447 532 q 590 575 538 535 q 643 700 643 615 l 643 796 q 581 942 643 889 q 406 994 519 994 l 111 994 l 111 1017 q 414 1025 211 1025 q 611 962 546 1025 q 676 796 676 899 l 676 700 q 647 593 676 635 q 580 533 618 551 q 514 514 542 515 q 588 488 546 510 q 663 422 631 467 q 694 311 694 378 l 694 224 q 623 51 694 111 q 419 -8 551 -8 z "},"4":{"ha":799,"x_min":40,"x_max":761,"o":"m 561 294 l 54 294 l 40 326 l 467 1017 l 501 1017 l 75 325 l 561 325 l 561 656 l 572 732 l 594 732 l 594 325 l 761 325 l 761 303 l 594 294 l 594 3 l 561 3 l 561 294 z "},"5":{"ha":901,"x_min":143,"x_max":792,"o":"m 496 -6 q 299 -4 396 -6 q 143 3 201 -3 l 143 25 l 493 25 q 682 79 606 25 q 758 233 758 133 l 758 379 q 701 520 758 469 q 536 571 644 571 l 404 571 q 215 422 243 571 l 185 422 l 214 1017 l 763 1017 l 763 986 l 244 986 l 221 506 q 285 573 236 544 q 408 601 333 601 l 538 601 q 724 540 656 601 q 792 382 792 479 l 792 231 q 708 57 792 119 q 496 -6 624 -6 z "},"6":{"ha":883,"x_min":122,"x_max":772,"o":"m 383 -1 q 244 43 301 -1 q 155 203 188 88 q 122 519 122 318 q 211 897 122 769 q 463 1025 300 1025 q 653 1019 525 1025 q 711 1017 694 1017 l 711 994 l 450 994 q 235 878 314 994 q 156 535 156 763 q 478 543 304 543 q 697 501 621 543 q 772 346 772 460 l 772 206 q 709 48 772 97 q 549 -1 646 -1 l 383 -1 m 549 29 q 688 67 636 29 q 740 203 740 104 l 740 346 q 676 478 740 444 q 479 513 611 513 l 156 513 q 183 219 156 325 q 259 72 210 114 q 383 29 308 29 l 549 29 z "},"7":{"ha":743,"x_min":56,"x_max":672,"o":"m 633 983 l 56 983 l 56 1017 l 650 1017 l 672 985 l 272 0 l 233 0 l 633 983 z "},"8":{"ha":910,"x_min":140,"x_max":771,"o":"m 371 0 q 200 47 260 0 q 140 186 140 94 l 140 338 q 187 458 140 414 q 285 513 233 501 q 190 587 221 539 q 160 693 160 635 l 160 811 q 217 972 160 919 q 371 1024 274 1024 l 560 1024 q 704 973 657 1024 q 751 811 751 922 l 751 693 q 720 589 751 636 q 638 524 689 542 q 735 465 700 514 q 771 350 771 417 l 771 186 q 716 48 771 96 q 558 0 661 0 l 371 0 m 549 533 q 644 557 606 533 q 700 616 682 581 q 718 686 718 651 l 718 808 q 680 950 718 907 q 560 993 642 993 l 371 993 q 235 949 276 993 q 193 808 193 904 l 193 686 q 238 578 193 622 q 369 533 283 533 l 549 533 m 558 31 q 692 69 646 31 q 738 182 738 107 l 738 342 q 695 467 738 431 q 549 503 653 503 l 369 503 q 285 487 331 503 q 207 435 240 471 q 174 342 174 399 l 174 182 q 228 67 174 104 q 371 31 282 31 l 558 31 z "},"9":{"ha":883,"x_min":113,"x_max":763,"o":"m 422 -6 q 232 0 360 -6 q 174 3 190 3 l 174 25 l 435 25 q 650 141 571 25 q 729 485 729 257 q 407 476 582 476 q 188 518 264 476 q 113 674 113 560 l 113 814 q 176 972 113 922 q 336 1021 239 1021 l 501 1021 q 640 976 583 1021 q 730 817 697 932 q 763 500 763 701 q 674 122 763 250 q 422 -6 585 -6 m 729 507 q 702 800 729 694 q 626 948 675 906 q 501 990 576 990 l 336 990 q 197 953 249 990 q 144 817 144 915 l 144 674 q 209 541 144 575 q 406 507 274 507 l 729 507 z "},"\r":{"ha":389,"x_min":0,"x_max":0,"o":""}," ":{"ha":389,"x_min":0,"x_max":0,"o":""},"A":{"ha":925,"x_min":67,"x_max":858,"o":"m 439 1017 l 486 1017 l 858 0 l 822 0 l 692 354 l 232 354 l 103 0 l 67 0 l 439 1017 m 679 385 l 463 983 l 242 385 l 679 385 z "},"Á":{"ha":925,"x_min":67,"x_max":858,"o":"m 439 1017 l 486 1017 l 858 0 l 822 0 l 692 354 l 232 354 l 103 0 l 67 0 l 439 1017 m 679 385 l 463 983 l 242 385 l 679 385 m 625 1283 l 661 1283 l 476 1099 l 457 1099 l 625 1283 z "},"Ă":{"ha":925,"x_min":67,"x_max":858,"o":"m 439 1017 l 486 1017 l 858 0 l 822 0 l 692 354 l 232 354 l 103 0 l 67 0 l 439 1017 m 679 385 l 463 983 l 242 385 l 679 385 m 453 1101 q 330 1144 379 1101 q 281 1288 281 1188 l 300 1288 q 342 1162 300 1203 q 449 1121 383 1121 q 566 1159 524 1121 q 608 1288 608 1197 l 628 1288 q 578 1143 628 1185 q 453 1101 528 1101 z "},"Ắ":{"ha":925,"x_min":67,"x_max":858,"o":"m 439 1017 l 486 1017 l 858 0 l 822 0 l 692 354 l 232 354 l 103 0 l 67 0 l 439 1017 m 679 385 l 463 983 l 242 385 l 679 385 m 597 1422 l 633 1422 l 449 1238 l 429 1238 l 597 1422 m 300 1246 q 342 1151 300 1182 q 449 1121 383 1121 q 608 1246 608 1121 l 628 1246 q 578 1133 628 1165 q 453 1101 528 1101 q 331 1135 381 1101 q 281 1246 281 1168 l 300 1246 z "},"Ặ":{"ha":925,"x_min":67,"x_max":858,"o":"m 439 1017 l 486 1017 l 858 0 l 822 0 l 692 354 l 232 354 l 103 0 l 67 0 l 439 1017 m 679 385 l 463 983 l 242 385 l 679 385 m 453 1101 q 330 1144 379 1101 q 281 1288 281 1188 l 300 1288 q 342 1162 300 1203 q 449 1121 383 1121 q 566 1159 524 1121 q 608 1288 608 1197 l 628 1288 q 578 1143 628 1185 q 453 1101 528 1101 m 451 -274 q 440 -269 444 -274 q 435 -257 435 -264 l 435 -171 q 451 -154 435 -154 l 467 -154 q 483 -171 483 -154 l 483 -257 q 467 -274 483 -274 l 451 -274 z "},"Ằ":{"ha":925,"x_min":67,"x_max":858,"o":"m 439 1017 l 486 1017 l 858 0 l 822 0 l 692 354 l 232 354 l 103 0 l 67 0 l 439 1017 m 679 385 l 463 983 l 242 385 l 679 385 m 290 1422 l 326 1422 l 494 1238 l 475 1238 l 290 1422 m 300 1246 q 342 1151 300 1182 q 449 1121 383 1121 q 608 1246 608 1121 l 628 1246 q 578 1133 628 1165 q 453 1101 528 1101 q 331 1135 381 1101 q 281 1246 281 1168 l 300 1246 z "},"Ẳ":{"ha":925,"x_min":67,"x_max":858,"o":"m 439 1017 l 486 1017 l 858 0 l 822 0 l 692 354 l 232 354 l 103 0 l 67 0 l 439 1017 m 679 385 l 463 983 l 242 385 l 679 385 m 435 1200 q 509 1243 486 1215 q 532 1303 532 1271 q 449 1383 532 1383 q 396 1375 421 1383 l 396 1394 q 451 1403 419 1403 q 528 1376 503 1403 q 554 1301 554 1349 q 524 1231 554 1264 q 435 1181 494 1197 l 435 1200 m 453 1101 q 331 1135 381 1101 q 281 1246 281 1168 l 300 1246 q 342 1151 300 1182 q 449 1121 383 1121 q 608 1246 608 1121 l 628 1246 q 578 1133 628 1165 q 453 1101 528 1101 z "},"Ẵ":{"ha":925,"x_min":67,"x_max":858,"o":"m 439 1017 l 486 1017 l 858 0 l 822 0 l 692 354 l 232 354 l 103 0 l 67 0 l 439 1017 m 679 385 l 463 983 l 242 385 l 679 385 m 350 1389 q 405 1380 379 1389 q 468 1351 431 1371 q 526 1324 503 1333 q 576 1315 550 1315 q 641 1335 615 1315 q 667 1389 667 1354 l 686 1389 q 656 1319 686 1346 q 574 1293 626 1293 q 523 1302 547 1293 q 464 1329 499 1311 q 399 1358 422 1350 q 347 1367 375 1367 q 286 1349 311 1367 q 261 1293 261 1331 l 242 1293 q 274 1366 242 1343 q 350 1389 307 1389 m 300 1246 q 342 1151 300 1182 q 449 1121 383 1121 q 608 1246 608 1121 l 628 1246 q 578 1133 628 1165 q 453 1101 528 1101 q 331 1135 381 1101 q 281 1246 281 1168 l 300 1246 z "},"Â":{"ha":925,"x_min":67,"x_max":858,"o":"m 439 1017 l 486 1017 l 858 0 l 822 0 l 692 354 l 232 354 l 103 0 l 67 0 l 439 1017 m 679 385 l 463 983 l 242 385 l 679 385 m 451 1279 l 479 1279 l 646 1099 l 621 1099 l 465 1258 l 293 1099 l 268 1099 l 451 1279 z "},"Ấ":{"ha":925,"x_min":67,"x_max":858,"o":"m 439 1017 l 486 1017 l 858 0 l 822 0 l 692 354 l 232 354 l 103 0 l 67 0 l 439 1017 m 679 385 l 463 983 l 242 385 l 679 385 m 772 1381 l 588 1196 l 568 1196 l 736 1381 l 772 1381 m 479 1224 l 646 1099 l 621 1099 l 465 1203 l 293 1099 l 268 1099 l 451 1224 l 479 1224 z "},"Ậ":{"ha":925,"x_min":67,"x_max":858,"o":"m 439 1017 l 486 1017 l 858 0 l 822 0 l 692 354 l 232 354 l 103 0 l 67 0 l 439 1017 m 679 385 l 463 983 l 242 385 l 679 385 m 451 1279 l 479 1279 l 646 1099 l 621 1099 l 465 1258 l 293 1099 l 268 1099 l 451 1279 m 451 -274 q 440 -269 444 -274 q 435 -257 435 -264 l 435 -171 q 451 -154 435 -154 l 467 -154 q 483 -171 483 -154 l 483 -257 q 467 -274 483 -274 l 451 -274 z "},"Ầ":{"ha":925,"x_min":67,"x_max":858,"o":"m 439 1017 l 486 1017 l 858 0 l 822 0 l 692 354 l 232 354 l 103 0 l 67 0 l 439 1017 m 679 385 l 463 983 l 242 385 l 679 385 m 188 1381 l 356 1196 l 336 1196 l 151 1381 l 188 1381 m 479 1224 l 646 1099 l 621 1099 l 465 1203 l 293 1099 l 268 1099 l 451 1224 l 479 1224 z "},"Ẩ":{"ha":925,"x_min":67,"x_max":858,"o":"m 439 1017 l 486 1017 l 858 0 l 822 0 l 692 354 l 232 354 l 103 0 l 67 0 l 439 1017 m 679 385 l 463 983 l 242 385 l 679 385 m 599 1186 q 667 1224 646 1201 q 689 1275 689 1247 q 613 1342 689 1342 q 560 1333 585 1342 l 560 1353 q 615 1361 583 1361 q 688 1338 664 1361 q 711 1274 711 1314 q 683 1212 711 1242 q 599 1167 654 1182 l 599 1186 m 451 1224 l 479 1224 l 646 1099 l 621 1099 l 465 1203 l 293 1099 l 268 1099 l 451 1224 z "},"Ẫ":{"ha":925,"x_min":67,"x_max":858,"o":"m 439 1017 l 486 1017 l 858 0 l 822 0 l 692 354 l 232 354 l 103 0 l 67 0 l 439 1017 m 679 385 l 463 983 l 242 385 l 679 385 m 350 1389 q 405 1380 379 1389 q 468 1351 431 1371 q 526 1324 503 1333 q 576 1315 550 1315 q 641 1335 615 1315 q 667 1389 667 1354 l 686 1389 q 656 1319 686 1346 q 574 1293 626 1293 q 523 1302 547 1293 q 464 1329 499 1311 q 399 1358 422 1350 q 347 1367 375 1367 q 286 1349 311 1367 q 261 1293 261 1331 l 242 1293 q 274 1366 242 1343 q 350 1389 307 1389 m 646 1099 l 621 1099 l 465 1203 l 293 1099 l 268 1099 l 451 1224 l 479 1224 l 646 1099 z "},"Ȁ":{"ha":925,"x_min":67,"x_max":858,"o":"m 439 1017 l 486 1017 l 858 0 l 822 0 l 692 354 l 232 354 l 103 0 l 67 0 l 439 1017 m 679 385 l 463 983 l 242 385 l 679 385 m 207 1283 l 243 1283 l 411 1099 l 392 1099 l 207 1283 m 374 1283 l 410 1283 l 578 1099 l 558 1099 l 374 1283 z "},"Ä":{"ha":925,"x_min":67,"x_max":858,"o":"m 439 1017 l 486 1017 l 858 0 l 822 0 l 692 354 l 232 354 l 103 0 l 67 0 l 439 1017 m 679 385 l 463 983 l 242 385 l 679 385 m 267 1147 q 255 1152 260 1147 q 250 1164 250 1157 l 250 1250 q 267 1267 250 1267 l 282 1267 q 299 1250 299 1267 l 299 1164 q 282 1147 299 1147 l 267 1147 m 619 1147 q 608 1152 613 1147 q 603 1164 603 1157 l 603 1250 q 619 1267 603 1267 l 635 1267 q 651 1250 651 1267 l 651 1164 q 635 1147 651 1147 l 619 1147 z "},"Ạ":{"ha":925,"x_min":67,"x_max":858,"o":"m 439 1017 l 486 1017 l 858 0 l 822 0 l 692 354 l 232 354 l 103 0 l 67 0 l 439 1017 m 679 385 l 463 983 l 242 385 l 679 385 m 451 -274 q 440 -269 444 -274 q 435 -257 435 -264 l 435 -171 q 451 -154 435 -154 l 467 -154 q 483 -171 483 -154 l 483 -257 q 467 -274 483 -274 l 451 -274 z "},"À":{"ha":925,"x_min":67,"x_max":858,"o":"m 439 1017 l 486 1017 l 858 0 l 822 0 l 692 354 l 232 354 l 103 0 l 67 0 l 439 1017 m 679 385 l 463 983 l 242 385 l 679 385 m 263 1283 l 299 1283 l 467 1099 l 447 1099 l 263 1283 z "},"Ả":{"ha":925,"x_min":67,"x_max":858,"o":"m 439 1017 l 486 1017 l 858 0 l 822 0 l 692 354 l 232 354 l 103 0 l 67 0 l 439 1017 m 679 385 l 463 983 l 242 385 l 679 385 m 439 1089 q 513 1132 490 1104 q 536 1192 536 1160 q 453 1272 536 1272 q 400 1264 425 1272 l 400 1283 q 456 1292 424 1292 q 533 1265 507 1292 q 558 1190 558 1238 q 528 1119 558 1153 q 439 1069 499 1086 l 439 1089 z "},"Ȃ":{"ha":925,"x_min":67,"x_max":858,"o":"m 439 1017 l 486 1017 l 858 0 l 822 0 l 692 354 l 232 354 l 103 0 l 67 0 l 439 1017 m 679 385 l 463 983 l 242 385 l 679 385 m 456 1288 q 578 1244 529 1288 q 628 1101 628 1201 l 608 1101 q 567 1227 608 1186 q 460 1268 525 1268 q 342 1230 385 1268 q 300 1101 300 1192 l 281 1101 q 331 1246 281 1204 q 456 1288 381 1288 z "},"Ā":{"ha":925,"x_min":67,"x_max":858,"o":"m 439 1017 l 486 1017 l 858 0 l 822 0 l 692 354 l 232 354 l 103 0 l 67 0 l 439 1017 m 679 385 l 463 983 l 242 385 l 679 385 m 278 1203 l 628 1203 l 628 1182 l 278 1182 l 278 1203 z "},"Ą":{"ha":925,"x_min":67,"x_max":883,"o":"m 439 1017 l 486 1017 l 858 0 l 822 0 l 692 354 l 232 354 l 103 0 l 67 0 l 439 1017 m 679 385 l 463 983 l 242 385 l 679 385 m 854 -253 q 749 -220 789 -253 q 708 -132 708 -187 q 736 -60 708 -94 q 822 0 764 -26 l 839 0 q 762 -58 789 -25 q 735 -126 735 -90 q 771 -205 735 -178 q 876 -232 807 -232 l 883 -232 l 883 -251 q 854 -253 872 -253 z "},"Å":{"ha":925,"x_min":67,"x_max":858,"o":"m 439 1017 l 486 1017 l 858 0 l 822 0 l 692 354 l 232 354 l 103 0 l 67 0 l 439 1017 m 679 385 l 463 983 l 242 385 l 679 385 m 463 1056 q 356 1088 390 1056 q 321 1197 321 1119 q 356 1308 321 1275 q 463 1340 390 1340 q 567 1308 533 1340 q 601 1197 601 1275 q 567 1088 601 1119 q 463 1056 533 1056 m 463 1078 q 552 1103 525 1078 q 579 1197 579 1129 q 552 1292 579 1265 q 463 1318 525 1318 q 372 1292 400 1318 q 343 1197 343 1265 q 371 1103 343 1129 q 463 1078 399 1078 z "},"Ǻ":{"ha":925,"x_min":67,"x_max":858,"o":"m 463 1056 q 356 1088 390 1056 q 321 1197 321 1119 q 356 1308 321 1275 q 463 1340 390 1340 l 472 1340 l 625 1508 l 661 1508 l 492 1339 q 574 1300 547 1333 q 601 1197 601 1267 q 567 1088 601 1119 q 463 1056 533 1056 m 463 1318 q 372 1292 400 1318 q 343 1197 343 1265 q 371 1103 343 1129 q 463 1078 399 1078 q 552 1103 525 1078 q 579 1197 579 1129 q 552 1292 579 1265 q 463 1318 525 1318 m 858 0 l 822 0 l 692 354 l 232 354 l 103 0 l 67 0 l 439 1017 l 486 1017 l 858 0 m 679 385 l 463 983 l 242 385 l 679 385 z "},"Ã":{"ha":925,"x_min":67,"x_max":858,"o":"m 439 1017 l 486 1017 l 858 0 l 822 0 l 692 354 l 232 354 l 103 0 l 67 0 l 439 1017 m 679 385 l 463 983 l 242 385 l 679 385 m 242 1140 q 278 1234 242 1204 q 364 1264 315 1264 q 421 1250 393 1264 q 486 1210 449 1236 q 544 1174 521 1186 q 590 1163 567 1163 q 665 1189 635 1163 q 694 1264 694 1215 l 714 1264 q 680 1174 714 1208 q 588 1140 646 1140 q 533 1153 560 1140 q 474 1192 507 1167 q 413 1229 439 1217 q 361 1242 388 1242 q 290 1217 318 1242 q 261 1140 261 1192 l 242 1140 z "},"Æ":{"ha":1319,"x_min":67,"x_max":1225,"o":"m 867 -4 q 726 34 775 -7 q 678 168 678 75 l 678 351 l 324 351 l 103 0 l 67 0 l 624 893 q 710 986 663 954 q 833 1017 758 1018 l 1225 1008 l 1225 986 l 825 986 q 737 962 763 986 q 711 882 711 938 l 711 519 l 1169 515 l 1169 493 l 711 489 l 711 171 q 749 61 711 96 q 867 26 788 26 l 1225 26 l 1225 4 l 867 -4 m 678 382 l 678 913 l 342 382 l 678 382 z "},"Ǽ":{"ha":1319,"x_min":67,"x_max":1225,"o":"m 867 -4 q 726 34 775 -7 q 678 168 678 75 l 678 351 l 324 351 l 103 0 l 67 0 l 624 893 q 710 986 663 954 q 833 1017 758 1018 l 1225 1008 l 1225 986 l 825 986 q 737 962 763 986 q 711 882 711 938 l 711 519 l 1169 515 l 1169 493 l 711 489 l 711 171 q 749 61 711 96 q 867 26 788 26 l 1225 26 l 1225 4 l 867 -4 m 678 382 l 678 913 l 342 382 l 678 382 m 896 1283 l 932 1283 l 747 1099 l 728 1099 l 896 1283 z "},"B":{"ha":811,"x_min":122,"x_max":742,"o":"m 122 1017 l 464 1017 q 704 761 704 1017 q 660 606 704 668 q 558 528 617 544 q 683 455 625 513 q 742 283 742 397 q 673 63 742 125 q 474 0 604 0 l 122 0 l 122 1017 m 474 542 q 616 606 561 542 q 671 776 671 669 q 464 986 671 986 l 156 986 l 156 542 l 474 542 m 474 31 q 649 85 589 31 q 708 286 708 139 q 677 406 708 356 q 592 484 646 457 q 474 511 539 511 l 156 511 l 156 31 l 474 31 z "},"Ḃ":{"ha":811,"x_min":122,"x_max":742,"o":"m 122 1017 l 464 1017 q 704 761 704 1017 q 660 606 704 668 q 558 528 617 544 q 683 455 625 513 q 742 283 742 397 q 673 63 742 125 q 474 0 604 0 l 122 0 l 122 1017 m 474 542 q 616 606 561 542 q 671 776 671 669 q 464 986 671 986 l 156 986 l 156 542 l 474 542 m 474 31 q 649 85 589 31 q 708 286 708 139 q 677 406 708 356 q 592 484 646 457 q 474 511 539 511 l 156 511 l 156 31 l 474 31 m 399 1157 q 387 1162 392 1157 q 382 1174 382 1167 l 382 1260 q 399 1276 382 1276 l 414 1276 q 431 1260 431 1276 l 431 1174 q 414 1157 431 1157 l 399 1157 z "},"C":{"ha":801,"x_min":97,"x_max":732,"o":"m 449 -8 q 240 32 314 -8 q 132 183 167 72 q 97 511 97 294 q 133 826 97 715 q 245 981 168 936 q 460 1025 322 1025 q 583 1017 501 1025 q 732 997 665 1010 l 732 975 q 610 988 692 982 q 457 994 528 994 q 265 954 333 994 q 163 810 196 914 q 131 511 131 706 q 162 199 131 304 q 260 58 193 94 q 450 22 326 22 q 732 42 618 22 l 732 19 q 583 -1 664 7 q 449 -8 501 -8 z "},"Ć":{"ha":801,"x_min":97,"x_max":732,"o":"m 449 -8 q 240 32 314 -8 q 132 183 167 72 q 97 511 97 294 q 133 826 97 715 q 245 981 168 936 q 460 1025 322 1025 q 583 1017 501 1025 q 732 997 665 1010 l 732 975 q 610 988 692 982 q 457 994 528 994 q 265 954 333 994 q 163 810 196 914 q 131 511 131 706 q 162 199 131 304 q 260 58 193 94 q 450 22 326 22 q 732 42 618 22 l 732 19 q 583 -1 664 7 q 449 -8 501 -8 m 621 1283 l 657 1283 l 472 1099 l 453 1099 l 621 1283 z "},"Č":{"ha":801,"x_min":97,"x_max":732,"o":"m 449 -8 q 240 32 314 -8 q 132 183 167 72 q 97 511 97 294 q 133 826 97 715 q 245 981 168 936 q 460 1025 322 1025 q 583 1017 501 1025 q 732 997 665 1010 l 732 975 q 610 988 692 982 q 457 994 528 994 q 265 954 333 994 q 163 810 196 914 q 131 511 131 706 q 162 199 131 304 q 260 58 193 94 q 450 22 326 22 q 732 42 618 22 l 732 19 q 583 -1 664 7 q 449 -8 501 -8 m 278 1279 l 303 1279 l 458 1119 l 631 1279 l 656 1279 l 472 1099 l 444 1099 l 278 1279 z "},"Ç":{"ha":801,"x_min":97,"x_max":732,"o":"m 457 994 q 265 954 333 994 q 163 810 196 914 q 131 511 131 706 q 162 199 131 304 q 260 58 193 94 q 450 22 326 22 q 732 42 618 22 l 732 19 q 591 1 668 8 q 460 -8 514 -7 l 411 -81 q 494 -103 469 -82 q 518 -165 518 -125 q 486 -231 518 -208 q 396 -254 454 -254 l 368 -254 l 368 -240 l 404 -237 q 474 -217 450 -235 q 497 -162 497 -199 q 473 -112 497 -131 q 382 -94 449 -94 l 440 -8 q 238 34 310 -7 q 131 186 165 75 q 97 511 97 297 q 133 826 97 715 q 245 981 168 936 q 460 1025 322 1025 q 583 1017 501 1025 q 732 997 665 1010 l 732 975 q 610 988 692 982 q 457 994 528 994 z "},"Ḉ":{"ha":801,"x_min":97,"x_max":732,"o":"m 472 1099 l 453 1099 l 621 1283 l 657 1283 l 472 1099 m 457 994 q 265 954 333 994 q 163 810 196 914 q 131 511 131 706 q 162 199 131 304 q 260 58 193 94 q 450 22 326 22 q 732 42 618 22 l 732 19 q 591 1 668 8 q 460 -8 514 -7 l 411 -81 q 494 -103 469 -82 q 518 -165 518 -125 q 486 -231 518 -208 q 396 -254 454 -254 l 368 -254 l 368 -240 l 404 -237 q 474 -217 450 -235 q 497 -162 497 -199 q 473 -112 497 -131 q 382 -94 449 -94 l 440 -8 q 238 34 310 -7 q 131 186 165 75 q 97 511 97 297 q 133 826 97 715 q 245 981 168 936 q 460 1025 322 1025 q 583 1017 501 1025 q 732 997 665 1010 l 732 975 q 610 988 692 982 q 457 994 528 994 z "},"Ĉ":{"ha":801,"x_min":97,"x_max":732,"o":"m 449 -8 q 240 32 314 -8 q 132 183 167 72 q 97 511 97 294 q 133 826 97 715 q 245 981 168 936 q 460 1025 322 1025 q 583 1017 501 1025 q 732 997 665 1010 l 732 975 q 610 988 692 982 q 457 994 528 994 q 265 954 333 994 q 163 810 196 914 q 131 511 131 706 q 162 199 131 304 q 260 58 193 94 q 450 22 326 22 q 732 42 618 22 l 732 19 q 583 -1 664 7 q 449 -8 501 -8 m 447 1279 l 475 1279 l 642 1099 l 617 1099 l 461 1258 l 289 1099 l 264 1099 l 447 1279 z "},"Ċ":{"ha":801,"x_min":97,"x_max":732,"o":"m 449 -8 q 240 32 314 -8 q 132 183 167 72 q 97 511 97 294 q 133 826 97 715 q 245 981 168 936 q 460 1025 322 1025 q 583 1017 501 1025 q 732 997 665 1010 l 732 975 q 610 988 692 982 q 457 994 528 994 q 265 954 333 994 q 163 810 196 914 q 131 511 131 706 q 162 199 131 304 q 260 58 193 94 q 450 22 326 22 q 732 42 618 22 l 732 19 q 583 -1 664 7 q 449 -8 501 -8 m 450 1157 q 438 1162 443 1157 q 433 1174 433 1167 l 433 1260 q 450 1276 433 1276 l 465 1276 q 482 1260 482 1276 l 482 1174 q 465 1157 482 1157 l 450 1157 z "},"D":{"ha":917,"x_min":122,"x_max":819,"o":"m 122 1017 l 501 1017 q 743 893 667 1017 q 819 508 819 769 q 783 242 819 357 q 674 64 746 128 q 501 0 603 0 l 122 0 l 122 1017 m 501 31 q 714 160 642 31 q 786 508 786 290 q 758 781 786 676 q 667 936 729 886 q 501 986 604 986 l 156 986 l 156 31 l 501 31 z "},"Ð":{"ha":917,"x_min":24,"x_max":819,"o":"m 501 1017 q 743 893 667 1017 q 819 508 819 769 q 783 242 819 357 q 674 64 746 128 q 501 0 603 0 l 122 0 l 122 501 l 24 501 l 24 532 l 122 532 l 122 1017 l 501 1017 m 501 31 q 714 160 642 31 q 786 508 786 290 q 758 781 786 676 q 667 936 729 886 q 501 986 604 986 l 156 986 l 156 532 l 446 532 l 446 501 l 156 501 l 156 31 l 501 31 z "},"Ď":{"ha":917,"x_min":122,"x_max":819,"o":"m 122 1017 l 501 1017 q 743 893 667 1017 q 819 508 819 769 q 783 242 819 357 q 674 64 746 128 q 501 0 603 0 l 122 0 l 122 1017 m 501 31 q 714 160 642 31 q 786 508 786 290 q 758 781 786 676 q 667 936 729 886 q 501 986 604 986 l 156 986 l 156 31 l 501 31 m 250 1279 l 275 1279 l 431 1119 l 603 1279 l 628 1279 l 444 1099 l 417 1099 l 250 1279 z "},"Đ":{"ha":917,"x_min":24,"x_max":819,"o":"m 501 1017 q 743 893 667 1017 q 819 508 819 769 q 783 242 819 357 q 674 64 746 128 q 501 0 603 0 l 122 0 l 122 501 l 24 501 l 24 532 l 122 532 l 122 1017 l 501 1017 m 501 31 q 714 160 642 31 q 786 508 786 290 q 758 781 786 676 q 667 936 729 886 q 501 986 604 986 l 156 986 l 156 532 l 446 532 l 446 501 l 156 501 l 156 31 l 501 31 z "},"Ḋ":{"ha":917,"x_min":122,"x_max":819,"o":"m 122 1017 l 501 1017 q 743 893 667 1017 q 819 508 819 769 q 783 242 819 357 q 674 64 746 128 q 501 0 603 0 l 122 0 l 122 1017 m 501 31 q 714 160 642 31 q 786 508 786 290 q 758 781 786 676 q 667 936 729 886 q 501 986 604 986 l 156 986 l 156 31 l 501 31 m 422 1157 q 410 1162 415 1157 q 406 1174 406 1167 l 406 1260 q 422 1276 406 1276 l 438 1276 q 454 1260 454 1276 l 454 1174 q 438 1157 454 1157 l 422 1157 z "},"Ḍ":{"ha":917,"x_min":122,"x_max":819,"o":"m 122 1017 l 501 1017 q 743 893 667 1017 q 819 508 819 769 q 783 242 819 357 q 674 64 746 128 q 501 0 603 0 l 122 0 l 122 1017 m 501 31 q 714 160 642 31 q 786 508 786 290 q 758 781 786 676 q 667 936 729 886 q 501 986 604 986 l 156 986 l 156 31 l 501 31 m 419 -274 q 408 -269 413 -274 q 403 -257 403 -264 l 403 -171 q 419 -154 403 -154 l 435 -154 q 451 -171 451 -154 l 451 -257 q 435 -274 451 -274 l 419 -274 z "},"Ḏ":{"ha":917,"x_min":122,"x_max":819,"o":"m 122 1017 l 501 1017 q 743 893 667 1017 q 819 508 819 769 q 783 242 819 357 q 674 64 746 128 q 501 0 603 0 l 122 0 l 122 1017 m 501 31 q 714 160 642 31 q 786 508 786 290 q 758 781 786 676 q 667 936 729 886 q 501 986 604 986 l 156 986 l 156 31 l 501 31 m 246 -214 l 596 -214 l 596 -235 l 246 -235 l 246 -214 z "},"E":{"ha":804,"x_min":122,"x_max":710,"o":"m 313 -4 q 174 30 226 -6 q 122 171 122 65 l 122 836 q 172 974 122 931 q 297 1017 222 1018 l 710 1008 l 710 986 l 297 986 q 193 949 231 986 q 156 836 156 913 l 156 519 l 654 515 l 654 493 l 156 489 l 156 171 q 197 55 156 83 q 311 26 239 26 l 710 26 l 710 4 l 313 -4 z "},"É":{"ha":804,"x_min":122,"x_max":710,"o":"m 313 -4 q 174 30 226 -6 q 122 171 122 65 l 122 836 q 172 974 122 931 q 297 1017 222 1018 l 710 1008 l 710 986 l 297 986 q 193 949 231 986 q 156 836 156 913 l 156 519 l 654 515 l 654 493 l 156 489 l 156 171 q 197 55 156 83 q 311 26 239 26 l 710 26 l 710 4 l 313 -4 m 593 1283 l 629 1283 l 444 1099 l 425 1099 l 593 1283 z "},"Ĕ":{"ha":804,"x_min":122,"x_max":710,"o":"m 313 -4 q 174 30 226 -6 q 122 171 122 65 l 122 836 q 172 974 122 931 q 297 1017 222 1018 l 710 1008 l 710 986 l 297 986 q 193 949 231 986 q 156 836 156 913 l 156 519 l 654 515 l 654 493 l 156 489 l 156 171 q 197 55 156 83 q 311 26 239 26 l 710 26 l 710 4 l 313 -4 m 421 1101 q 298 1144 347 1101 q 249 1288 249 1188 l 268 1288 q 310 1162 268 1203 q 417 1121 351 1121 q 534 1159 492 1121 q 576 1288 576 1197 l 596 1288 q 546 1143 596 1185 q 421 1101 496 1101 z "},"Ě":{"ha":804,"x_min":122,"x_max":710,"o":"m 313 -4 q 174 30 226 -6 q 122 171 122 65 l 122 836 q 172 974 122 931 q 297 1017 222 1018 l 710 1008 l 710 986 l 297 986 q 193 949 231 986 q 156 836 156 913 l 156 519 l 654 515 l 654 493 l 156 489 l 156 171 q 197 55 156 83 q 311 26 239 26 l 710 26 l 710 4 l 313 -4 m 250 1279 l 275 1279 l 431 1119 l 603 1279 l 628 1279 l 444 1099 l 417 1099 l 250 1279 z "},"Ḝ":{"ha":804,"x_min":122,"x_max":710,"o":"m 421 1101 q 298 1144 347 1101 q 249 1288 249 1188 l 268 1288 q 310 1162 268 1203 q 417 1121 351 1121 q 534 1159 492 1121 q 576 1288 576 1197 l 596 1288 q 546 1143 596 1185 q 421 1101 496 1101 m 297 986 q 193 949 231 986 q 156 836 156 913 l 156 519 l 654 515 l 654 493 l 156 489 l 156 171 q 197 55 156 83 q 311 26 239 26 l 710 26 l 710 4 l 436 -1 l 383 -81 q 466 -103 442 -82 q 490 -165 490 -125 q 458 -231 490 -208 q 368 -254 426 -254 l 340 -254 l 340 -240 l 376 -237 q 446 -217 422 -235 q 469 -162 469 -199 q 445 -112 469 -131 q 354 -94 421 -94 l 417 -1 q 304 -4 342 -4 q 172 32 222 -4 q 122 171 122 68 l 122 836 q 172 974 122 931 q 297 1017 222 1018 l 710 1008 l 710 986 l 297 986 z "},"Ê":{"ha":804,"x_min":122,"x_max":710,"o":"m 313 -4 q 174 30 226 -6 q 122 171 122 65 l 122 836 q 172 974 122 931 q 297 1017 222 1018 l 710 1008 l 710 986 l 297 986 q 193 949 231 986 q 156 836 156 913 l 156 519 l 654 515 l 654 493 l 156 489 l 156 171 q 197 55 156 83 q 311 26 239 26 l 710 26 l 710 4 l 313 -4 m 419 1279 l 447 1279 l 614 1099 l 589 1099 l 433 1258 l 261 1099 l 236 1099 l 419 1279 z "},"Ế":{"ha":804,"x_min":122,"x_max":740,"o":"m 313 -4 q 174 30 226 -6 q 122 171 122 65 l 122 836 q 172 974 122 931 q 297 1017 222 1018 l 710 1008 l 710 986 l 297 986 q 193 949 231 986 q 156 836 156 913 l 156 519 l 654 515 l 654 493 l 156 489 l 156 171 q 197 55 156 83 q 311 26 239 26 l 710 26 l 710 4 l 313 -4 m 740 1381 l 556 1196 l 536 1196 l 704 1381 l 740 1381 m 447 1224 l 614 1099 l 589 1099 l 433 1203 l 261 1099 l 236 1099 l 419 1224 l 447 1224 z "},"Ệ":{"ha":804,"x_min":122,"x_max":710,"o":"m 313 -4 q 174 30 226 -6 q 122 171 122 65 l 122 836 q 172 974 122 931 q 297 1017 222 1018 l 710 1008 l 710 986 l 297 986 q 193 949 231 986 q 156 836 156 913 l 156 519 l 654 515 l 654 493 l 156 489 l 156 171 q 197 55 156 83 q 311 26 239 26 l 710 26 l 710 4 l 313 -4 m 419 1279 l 447 1279 l 614 1099 l 589 1099 l 433 1258 l 261 1099 l 236 1099 l 419 1279 m 419 -274 q 408 -269 413 -274 q 403 -257 403 -264 l 403 -171 q 419 -154 403 -154 l 435 -154 q 451 -171 451 -154 l 451 -257 q 435 -274 451 -274 l 419 -274 z "},"Ề":{"ha":804,"x_min":119,"x_max":710,"o":"m 313 -4 q 174 30 226 -6 q 122 171 122 65 l 122 836 q 172 974 122 931 q 297 1017 222 1018 l 710 1008 l 710 986 l 297 986 q 193 949 231 986 q 156 836 156 913 l 156 519 l 654 515 l 654 493 l 156 489 l 156 171 q 197 55 156 83 q 311 26 239 26 l 710 26 l 710 4 l 313 -4 m 156 1381 l 324 1196 l 304 1196 l 119 1381 l 156 1381 m 447 1224 l 614 1099 l 589 1099 l 433 1203 l 261 1099 l 236 1099 l 419 1224 l 447 1224 z "},"Ể":{"ha":804,"x_min":122,"x_max":710,"o":"m 313 -4 q 174 30 226 -6 q 122 171 122 65 l 122 836 q 172 974 122 931 q 297 1017 222 1018 l 710 1008 l 710 986 l 297 986 q 193 949 231 986 q 156 836 156 913 l 156 519 l 654 515 l 654 493 l 156 489 l 156 171 q 197 55 156 83 q 311 26 239 26 l 710 26 l 710 4 l 313 -4 m 567 1186 q 635 1224 614 1201 q 657 1275 657 1247 q 581 1342 657 1342 q 528 1333 553 1342 l 528 1353 q 583 1361 551 1361 q 656 1338 632 1361 q 679 1274 679 1314 q 651 1212 679 1242 q 567 1167 622 1182 l 567 1186 m 419 1224 l 447 1224 l 614 1099 l 589 1099 l 433 1203 l 261 1099 l 236 1099 l 419 1224 z "},"Ễ":{"ha":804,"x_min":122,"x_max":710,"o":"m 313 -4 q 174 30 226 -6 q 122 171 122 65 l 122 836 q 172 974 122 931 q 297 1017 222 1018 l 710 1008 l 710 986 l 297 986 q 193 949 231 986 q 156 836 156 913 l 156 519 l 654 515 l 654 493 l 156 489 l 156 171 q 197 55 156 83 q 311 26 239 26 l 710 26 l 710 4 l 313 -4 m 318 1389 q 373 1380 347 1389 q 436 1351 399 1371 q 494 1324 471 1333 q 544 1315 518 1315 q 609 1335 583 1315 q 635 1389 635 1354 l 654 1389 q 624 1319 654 1346 q 542 1293 594 1293 q 491 1302 515 1293 q 432 1329 467 1311 q 367 1358 390 1350 q 315 1367 343 1367 q 254 1349 279 1367 q 229 1293 229 1331 l 210 1293 q 242 1366 210 1343 q 318 1389 275 1389 m 614 1099 l 589 1099 l 433 1203 l 261 1099 l 236 1099 l 419 1224 l 447 1224 l 614 1099 z "},"Ȅ":{"ha":804,"x_min":122,"x_max":710,"o":"m 313 -4 q 174 30 226 -6 q 122 171 122 65 l 122 836 q 172 974 122 931 q 297 1017 222 1018 l 710 1008 l 710 986 l 297 986 q 193 949 231 986 q 156 836 156 913 l 156 519 l 654 515 l 654 493 l 156 489 l 156 171 q 197 55 156 83 q 311 26 239 26 l 710 26 l 710 4 l 313 -4 m 175 1283 l 211 1283 l 379 1099 l 360 1099 l 175 1283 m 342 1283 l 378 1283 l 546 1099 l 526 1099 l 342 1283 z "},"Ë":{"ha":804,"x_min":122,"x_max":710,"o":"m 313 -4 q 174 30 226 -6 q 122 171 122 65 l 122 836 q 172 974 122 931 q 297 1017 222 1018 l 710 1008 l 710 986 l 297 986 q 193 949 231 986 q 156 836 156 913 l 156 519 l 654 515 l 654 493 l 156 489 l 156 171 q 197 55 156 83 q 311 26 239 26 l 710 26 l 710 4 l 313 -4 m 235 1147 q 223 1152 228 1147 q 218 1164 218 1157 l 218 1250 q 235 1267 218 1267 l 250 1267 q 267 1250 267 1267 l 267 1164 q 250 1147 267 1147 l 235 1147 m 588 1147 q 576 1152 581 1147 q 571 1164 571 1157 l 571 1250 q 588 1267 571 1267 l 603 1267 q 619 1250 619 1267 l 619 1164 q 603 1147 619 1147 l 588 1147 z "},"Ė":{"ha":804,"x_min":122,"x_max":710,"o":"m 313 -4 q 174 30 226 -6 q 122 171 122 65 l 122 836 q 172 974 122 931 q 297 1017 222 1018 l 710 1008 l 710 986 l 297 986 q 193 949 231 986 q 156 836 156 913 l 156 519 l 654 515 l 654 493 l 156 489 l 156 171 q 197 55 156 83 q 311 26 239 26 l 710 26 l 710 4 l 313 -4 m 422 1157 q 410 1162 415 1157 q 406 1174 406 1167 l 406 1260 q 422 1276 406 1276 l 438 1276 q 454 1260 454 1276 l 454 1174 q 438 1157 454 1157 l 422 1157 z "},"Ẹ":{"ha":804,"x_min":122,"x_max":710,"o":"m 313 -4 q 174 30 226 -6 q 122 171 122 65 l 122 836 q 172 974 122 931 q 297 1017 222 1018 l 710 1008 l 710 986 l 297 986 q 193 949 231 986 q 156 836 156 913 l 156 519 l 654 515 l 654 493 l 156 489 l 156 171 q 197 55 156 83 q 311 26 239 26 l 710 26 l 710 4 l 313 -4 m 419 -274 q 408 -269 413 -274 q 403 -257 403 -264 l 403 -171 q 419 -154 403 -154 l 435 -154 q 451 -171 451 -154 l 451 -257 q 435 -274 451 -274 l 419 -274 z "},"È":{"ha":804,"x_min":122,"x_max":710,"o":"m 313 -4 q 174 30 226 -6 q 122 171 122 65 l 122 836 q 172 974 122 931 q 297 1017 222 1018 l 710 1008 l 710 986 l 297 986 q 193 949 231 986 q 156 836 156 913 l 156 519 l 654 515 l 654 493 l 156 489 l 156 171 q 197 55 156 83 q 311 26 239 26 l 710 26 l 710 4 l 313 -4 m 231 1283 l 267 1283 l 435 1099 l 415 1099 l 231 1283 z "},"Ẻ":{"ha":804,"x_min":122,"x_max":710,"o":"m 313 -4 q 174 30 226 -6 q 122 171 122 65 l 122 836 q 172 974 122 931 q 297 1017 222 1018 l 710 1008 l 710 986 l 297 986 q 193 949 231 986 q 156 836 156 913 l 156 519 l 654 515 l 654 493 l 156 489 l 156 171 q 197 55 156 83 q 311 26 239 26 l 710 26 l 710 4 l 313 -4 m 407 1089 q 481 1132 458 1104 q 504 1192 504 1160 q 421 1272 504 1272 q 368 1264 393 1272 l 368 1283 q 424 1292 392 1292 q 501 1265 475 1292 q 526 1190 526 1238 q 497 1119 526 1153 q 407 1069 467 1086 l 407 1089 z "},"Ȇ":{"ha":804,"x_min":122,"x_max":710,"o":"m 313 -4 q 174 30 226 -6 q 122 171 122 65 l 122 836 q 172 974 122 931 q 297 1017 222 1018 l 710 1008 l 710 986 l 297 986 q 193 949 231 986 q 156 836 156 913 l 156 519 l 654 515 l 654 493 l 156 489 l 156 171 q 197 55 156 83 q 311 26 239 26 l 710 26 l 710 4 l 313 -4 m 424 1288 q 547 1244 497 1288 q 596 1101 596 1201 l 576 1101 q 535 1227 576 1186 q 428 1268 493 1268 q 310 1230 353 1268 q 268 1101 268 1192 l 249 1101 q 299 1246 249 1204 q 424 1288 349 1288 z "},"Ē":{"ha":804,"x_min":122,"x_max":710,"o":"m 313 -4 q 174 30 226 -6 q 122 171 122 65 l 122 836 q 172 974 122 931 q 297 1017 222 1018 l 710 1008 l 710 986 l 297 986 q 193 949 231 986 q 156 836 156 913 l 156 519 l 654 515 l 654 493 l 156 489 l 156 171 q 197 55 156 83 q 311 26 239 26 l 710 26 l 710 4 l 313 -4 m 246 1203 l 596 1203 l 596 1182 l 246 1182 l 246 1203 z "},"Ḗ":{"ha":804,"x_min":122,"x_max":710,"o":"m 313 -4 q 174 30 226 -6 q 122 171 122 65 l 122 836 q 172 974 122 931 q 297 1017 222 1018 l 710 1008 l 710 986 l 297 986 q 193 949 231 986 q 156 836 156 913 l 156 519 l 654 515 l 654 493 l 156 489 l 156 171 q 197 55 156 83 q 311 26 239 26 l 710 26 l 710 4 l 313 -4 m 246 1203 l 596 1203 l 596 1182 l 246 1182 l 246 1203 m 593 1450 l 629 1450 l 444 1265 l 425 1265 l 593 1450 z "},"Ḕ":{"ha":804,"x_min":122,"x_max":710,"o":"m 313 -4 q 174 30 226 -6 q 122 171 122 65 l 122 836 q 172 974 122 931 q 297 1017 222 1018 l 710 1008 l 710 986 l 297 986 q 193 949 231 986 q 156 836 156 913 l 156 519 l 654 515 l 654 493 l 156 489 l 156 171 q 197 55 156 83 q 311 26 239 26 l 710 26 l 710 4 l 313 -4 m 246 1203 l 596 1203 l 596 1182 l 246 1182 l 246 1203 m 231 1450 l 267 1450 l 435 1265 l 415 1265 l 231 1450 z "},"Ę":{"ha":804,"x_min":122,"x_max":754,"o":"m 754 -228 l 754 -247 q 725 -249 743 -249 q 619 -216 660 -249 q 579 -128 579 -183 q 607 -56 579 -90 q 692 4 635 -22 l 313 -4 q 174 30 226 -6 q 122 171 122 65 l 122 836 q 172 974 122 931 q 297 1017 222 1018 l 710 1008 l 710 986 l 297 986 q 193 949 231 986 q 156 836 156 913 l 156 519 l 654 515 l 654 493 l 156 489 l 156 171 q 197 55 156 83 q 311 26 239 26 l 710 26 l 710 4 q 633 -53 660 -21 q 606 -122 606 -86 q 642 -201 606 -174 q 747 -228 678 -228 l 754 -228 z "},"Ẽ":{"ha":804,"x_min":122,"x_max":710,"o":"m 313 -4 q 174 30 226 -6 q 122 171 122 65 l 122 836 q 172 974 122 931 q 297 1017 222 1018 l 710 1008 l 710 986 l 297 986 q 193 949 231 986 q 156 836 156 913 l 156 519 l 654 515 l 654 493 l 156 489 l 156 171 q 197 55 156 83 q 311 26 239 26 l 710 26 l 710 4 l 313 -4 m 210 1140 q 247 1234 210 1204 q 332 1264 283 1264 q 389 1250 361 1264 q 454 1210 417 1236 q 512 1174 489 1186 q 558 1163 535 1163 q 633 1189 603 1163 q 663 1264 663 1215 l 682 1264 q 648 1174 682 1208 q 556 1140 614 1140 q 501 1153 528 1140 q 442 1192 475 1167 q 381 1229 407 1217 q 329 1242 356 1242 q 258 1217 286 1242 q 229 1140 229 1192 l 210 1140 z "},"F":{"ha":771,"x_min":122,"x_max":710,"o":"m 122 836 q 172 974 122 931 q 297 1017 222 1018 l 710 1008 l 710 986 l 297 986 q 193 949 231 986 q 156 836 156 913 l 156 500 l 654 496 l 654 474 l 156 469 l 156 0 l 122 0 l 122 836 z "},"Ḟ":{"ha":771,"x_min":122,"x_max":710,"o":"m 122 836 q 172 974 122 931 q 297 1017 222 1018 l 710 1008 l 710 986 l 297 986 q 193 949 231 986 q 156 836 156 913 l 156 500 l 654 496 l 654 474 l 156 469 l 156 0 l 122 0 l 122 836 m 422 1157 q 410 1162 415 1157 q 406 1174 406 1167 l 406 1260 q 422 1276 406 1276 l 438 1276 q 454 1260 454 1276 l 454 1174 q 438 1157 454 1157 l 422 1157 z "},"G":{"ha":892,"x_min":97,"x_max":769,"o":"m 426 -7 q 226 42 297 -7 q 126 201 156 90 q 97 514 97 313 q 127 809 97 699 q 226 972 157 919 q 417 1025 296 1025 q 572 1017 478 1025 q 732 997 667 1008 l 732 975 q 417 994 547 994 q 244 945 307 994 q 156 792 182 896 q 131 511 131 688 q 156 216 131 319 q 247 68 182 113 q 435 24 311 24 q 583 44 503 24 q 736 96 664 65 l 736 478 l 439 478 l 439 497 q 661 511 525 511 q 769 504 725 511 l 769 0 l 747 0 l 739 74 q 588 17 669 40 q 426 -7 506 -7 z "},"Ğ":{"ha":892,"x_min":97,"x_max":769,"o":"m 426 -7 q 226 42 297 -7 q 126 201 156 90 q 97 514 97 313 q 127 809 97 699 q 226 972 157 919 q 417 1025 296 1025 q 572 1017 478 1025 q 732 997 667 1008 l 732 975 q 417 994 547 994 q 244 945 307 994 q 156 792 182 896 q 131 511 131 688 q 156 216 131 319 q 247 68 182 113 q 435 24 311 24 q 583 44 503 24 q 736 96 664 65 l 736 478 l 439 478 l 439 497 q 661 511 525 511 q 769 504 725 511 l 769 0 l 747 0 l 739 74 q 588 17 669 40 q 426 -7 506 -7 m 449 1101 q 326 1144 375 1101 q 276 1288 276 1188 l 296 1288 q 338 1162 296 1203 q 444 1121 379 1121 q 562 1159 519 1121 q 604 1288 604 1197 l 624 1288 q 574 1143 624 1185 q 449 1101 524 1101 z "},"Ǧ":{"ha":892,"x_min":97,"x_max":769,"o":"m 426 -7 q 226 42 297 -7 q 126 201 156 90 q 97 514 97 313 q 127 809 97 699 q 226 972 157 919 q 417 1025 296 1025 q 572 1017 478 1025 q 732 997 667 1008 l 732 975 q 417 994 547 994 q 244 945 307 994 q 156 792 182 896 q 131 511 131 688 q 156 216 131 319 q 247 68 182 113 q 435 24 311 24 q 583 44 503 24 q 736 96 664 65 l 736 478 l 439 478 l 439 497 q 661 511 525 511 q 769 504 725 511 l 769 0 l 747 0 l 739 74 q 588 17 669 40 q 426 -7 506 -7 m 278 1279 l 303 1279 l 458 1119 l 631 1279 l 656 1279 l 472 1099 l 444 1099 l 278 1279 z "},"Ĝ":{"ha":892,"x_min":97,"x_max":769,"o":"m 426 -7 q 226 42 297 -7 q 126 201 156 90 q 97 514 97 313 q 127 809 97 699 q 226 972 157 919 q 417 1025 296 1025 q 572 1017 478 1025 q 732 997 667 1008 l 732 975 q 417 994 547 994 q 244 945 307 994 q 156 792 182 896 q 131 511 131 688 q 156 216 131 319 q 247 68 182 113 q 435 24 311 24 q 583 44 503 24 q 736 96 664 65 l 736 478 l 439 478 l 439 497 q 661 511 525 511 q 769 504 725 511 l 769 0 l 747 0 l 739 74 q 588 17 669 40 q 426 -7 506 -7 m 447 1279 l 475 1279 l 642 1099 l 617 1099 l 461 1258 l 289 1099 l 264 1099 l 447 1279 z "},"Ģ":{"ha":892,"x_min":97,"x_max":769,"o":"m 426 -7 q 226 42 297 -7 q 126 201 156 90 q 97 514 97 313 q 127 809 97 699 q 226 972 157 919 q 417 1025 296 1025 q 572 1017 478 1025 q 732 997 667 1008 l 732 975 q 417 994 547 994 q 244 945 307 994 q 156 792 182 896 q 131 511 131 688 q 156 216 131 319 q 247 68 182 113 q 435 24 311 24 q 583 44 503 24 q 736 96 664 65 l 736 478 l 439 478 l 439 497 q 661 511 525 511 q 769 504 725 511 l 769 0 l 747 0 l 739 74 q 588 17 669 40 q 426 -7 506 -7 m 347 -251 l 392 -247 q 458 -231 435 -243 q 494 -184 482 -219 q 506 -76 507 -149 l 529 -76 q 517 -190 529 -150 q 475 -247 506 -229 q 385 -265 444 -265 l 347 -265 l 347 -251 z "},"Ġ":{"ha":892,"x_min":97,"x_max":769,"o":"m 426 -7 q 226 42 297 -7 q 126 201 156 90 q 97 514 97 313 q 127 809 97 699 q 226 972 157 919 q 417 1025 296 1025 q 572 1017 478 1025 q 732 997 667 1008 l 732 975 q 417 994 547 994 q 244 945 307 994 q 156 792 182 896 q 131 511 131 688 q 156 216 131 319 q 247 68 182 113 q 435 24 311 24 q 583 44 503 24 q 736 96 664 65 l 736 478 l 439 478 l 439 497 q 661 511 525 511 q 769 504 725 511 l 769 0 l 747 0 l 739 74 q 588 17 669 40 q 426 -7 506 -7 m 450 1157 q 438 1162 443 1157 q 433 1174 433 1167 l 433 1260 q 450 1276 433 1276 l 465 1276 q 482 1260 482 1276 l 482 1174 q 465 1157 482 1157 l 450 1157 z "},"Ḡ":{"ha":892,"x_min":97,"x_max":769,"o":"m 426 -7 q 226 42 297 -7 q 126 201 156 90 q 97 514 97 313 q 127 809 97 699 q 226 972 157 919 q 417 1025 296 1025 q 572 1017 478 1025 q 732 997 667 1008 l 732 975 q 417 994 547 994 q 244 945 307 994 q 156 792 182 896 q 131 511 131 688 q 156 216 131 319 q 247 68 182 113 q 435 24 311 24 q 583 44 503 24 q 736 96 664 65 l 736 478 l 439 478 l 439 497 q 661 511 525 511 q 769 504 725 511 l 769 0 l 747 0 l 739 74 q 588 17 669 40 q 426 -7 506 -7 m 274 1203 l 624 1203 l 624 1182 l 274 1182 l 274 1203 z "},"H":{"ha":922,"x_min":122,"x_max":800,"o":"m 122 1017 l 156 1017 l 156 507 l 767 507 l 767 1017 l 800 1017 l 800 0 l 767 0 l 767 476 l 156 476 l 156 0 l 122 0 l 122 1017 z "},"Ħ":{"ha":922,"x_min":24,"x_max":899,"o":"m 899 738 l 800 738 l 800 0 l 767 0 l 767 476 l 156 476 l 156 0 l 122 0 l 122 738 l 24 738 l 24 768 l 122 768 l 122 1017 l 156 1017 l 156 768 l 767 768 l 767 1017 l 800 1017 l 800 768 l 899 768 l 899 738 m 767 738 l 156 738 l 156 507 l 767 507 l 767 738 z "},"Ḫ":{"ha":922,"x_min":122,"x_max":800,"o":"m 122 1017 l 156 1017 l 156 507 l 767 507 l 767 1017 l 800 1017 l 800 0 l 767 0 l 767 476 l 156 476 l 156 0 l 122 0 l 122 1017 m 451 -301 q 328 -258 378 -301 q 279 -115 279 -215 l 299 -115 q 340 -241 299 -200 q 447 -282 382 -282 q 565 -244 522 -282 q 607 -115 607 -206 l 626 -115 q 576 -260 626 -218 q 451 -301 526 -301 z "},"Ĥ":{"ha":922,"x_min":122,"x_max":800,"o":"m 122 1017 l 156 1017 l 156 507 l 767 507 l 767 1017 l 800 1017 l 800 0 l 767 0 l 767 476 l 156 476 l 156 0 l 122 0 l 122 1017 m 450 1279 l 478 1279 l 644 1099 l 619 1099 l 464 1258 l 292 1099 l 267 1099 l 450 1279 z "},"Ḥ":{"ha":922,"x_min":122,"x_max":800,"o":"m 122 1017 l 156 1017 l 156 507 l 767 507 l 767 1017 l 800 1017 l 800 0 l 767 0 l 767 476 l 156 476 l 156 0 l 122 0 l 122 1017 m 450 -274 q 438 -269 443 -274 q 433 -257 433 -264 l 433 -171 q 450 -154 433 -154 l 465 -154 q 482 -171 482 -154 l 482 -257 q 465 -274 482 -274 l 450 -274 z "},"I":{"ha":278,"x_min":122,"x_max":156,"o":"m 122 1017 l 156 1017 l 156 0 l 122 0 l 122 1017 z "},"Í":{"ha":278,"x_min":122,"x_max":338,"o":"m 122 1017 l 156 1017 l 156 0 l 122 0 l 122 1017 m 301 1283 l 338 1283 l 153 1099 l 133 1099 l 301 1283 z "},"Ĭ":{"ha":278,"x_min":-43,"x_max":304,"o":"m 122 1017 l 156 1017 l 156 0 l 122 0 l 122 1017 m 129 1101 q 6 1144 56 1101 q -43 1288 -43 1188 l -24 1288 q 18 1162 -24 1203 q 125 1121 60 1121 q 242 1159 200 1121 q 285 1288 285 1197 l 304 1288 q 254 1143 304 1185 q 129 1101 204 1101 z "},"Î":{"ha":278,"x_min":-56,"x_max":322,"o":"m 122 1017 l 156 1017 l 156 0 l 122 0 l 122 1017 m 128 1279 l 156 1279 l 322 1099 l 297 1099 l 142 1258 l -31 1099 l -56 1099 l 128 1279 z "},"Ȉ":{"ha":278,"x_min":-117,"x_max":254,"o":"m 122 1017 l 156 1017 l 156 0 l 122 0 l 122 1017 m -117 1283 l -81 1283 l 88 1099 l 68 1099 l -117 1283 m 50 1283 l 86 1283 l 254 1099 l 235 1099 l 50 1283 z "},"Ï":{"ha":278,"x_min":-74,"x_max":328,"o":"m 122 1017 l 156 1017 l 156 0 l 122 0 l 122 1017 m -57 1147 q -69 1152 -64 1147 q -74 1164 -74 1157 l -74 1250 q -57 1267 -74 1267 l -42 1267 q -25 1250 -25 1267 l -25 1164 q -42 1147 -25 1147 l -57 1147 m 296 1147 q 284 1152 289 1147 q 279 1164 279 1157 l 279 1250 q 296 1267 279 1267 l 311 1267 q 328 1250 328 1267 l 328 1164 q 311 1147 328 1147 l 296 1147 z "},"Ḯ":{"ha":278,"x_min":-74,"x_max":338,"o":"m 122 1017 l 156 1017 l 156 0 l 122 0 l 122 1017 m -57 1147 q -69 1152 -64 1147 q -74 1164 -74 1157 l -74 1250 q -57 1267 -74 1267 l -42 1267 q -25 1250 -25 1267 l -25 1164 q -42 1147 -25 1147 l -57 1147 m 296 1147 q 284 1152 289 1147 q 279 1164 279 1157 l 279 1250 q 296 1267 279 1267 l 311 1267 q 328 1250 328 1267 l 328 1164 q 311 1147 328 1147 l 296 1147 m 301 1492 l 338 1492 l 153 1307 l 133 1307 l 301 1492 z "},"İ":{"ha":278,"x_min":114,"x_max":163,"o":"m 122 1017 l 156 1017 l 156 0 l 122 0 l 122 1017 m 131 1157 q 119 1162 124 1157 q 114 1174 114 1167 l 114 1260 q 131 1276 114 1276 l 146 1276 q 163 1260 163 1276 l 163 1174 q 146 1157 163 1157 l 131 1157 z "},"Ị":{"ha":278,"x_min":111,"x_max":160,"o":"m 122 1017 l 156 1017 l 156 0 l 122 0 l 122 1017 m 128 -274 q 116 -269 121 -274 q 111 -257 111 -264 l 111 -171 q 128 -154 111 -154 l 143 -154 q 160 -171 160 -154 l 160 -257 q 143 -274 160 -274 l 128 -274 z "},"Ì":{"ha":278,"x_min":-61,"x_max":156,"o":"m 122 1017 l 156 1017 l 156 0 l 122 0 l 122 1017 m -61 1283 l -25 1283 l 143 1099 l 124 1099 l -61 1283 z "},"Ỉ":{"ha":278,"x_min":76,"x_max":235,"o":"m 122 1017 l 156 1017 l 156 0 l 122 0 l 122 1017 m 115 1089 q 190 1132 167 1104 q 213 1192 213 1160 q 129 1272 213 1272 q 76 1264 101 1272 l 76 1283 q 132 1292 100 1292 q 209 1265 183 1292 q 235 1190 235 1238 q 205 1119 235 1153 q 115 1069 175 1086 l 115 1089 z "},"Ȋ":{"ha":278,"x_min":-43,"x_max":304,"o":"m 122 1017 l 156 1017 l 156 0 l 122 0 l 122 1017 m 132 1288 q 255 1244 206 1288 q 304 1101 304 1201 l 285 1101 q 243 1227 285 1186 q 136 1268 201 1268 q 19 1230 61 1268 q -24 1101 -24 1192 l -43 1101 q 7 1246 -43 1204 q 132 1288 57 1288 z "},"Ī":{"ha":278,"x_min":-46,"x_max":304,"o":"m 122 1017 l 156 1017 l 156 0 l 122 0 l 122 1017 m -46 1203 l 304 1203 l 304 1182 l -46 1182 l -46 1203 z "},"Į":{"ha":278,"x_min":25,"x_max":200,"o":"m 122 1017 l 156 1017 l 156 0 l 122 0 l 122 1017 m 171 -253 q 65 -220 106 -253 q 25 -132 25 -187 q 53 -60 25 -94 q 139 0 81 -26 l 156 0 q 78 -58 106 -25 q 51 -126 51 -90 q 88 -205 51 -178 q 193 -232 124 -232 l 200 -232 l 200 -251 q 171 -253 189 -253 z "},"Ĩ":{"ha":278,"x_min":-82,"x_max":390,"o":"m 122 1017 l 156 1017 l 156 0 l 122 0 l 122 1017 m -82 1140 q -45 1234 -82 1204 q 40 1264 -8 1264 q 97 1250 69 1264 q 163 1210 125 1236 q 220 1174 197 1186 q 267 1163 243 1163 q 341 1189 311 1163 q 371 1264 371 1215 l 390 1264 q 356 1174 390 1208 q 264 1140 322 1140 q 210 1153 236 1140 q 150 1192 183 1167 q 90 1229 115 1217 q 38 1242 64 1242 q -34 1217 -6 1242 q -62 1140 -62 1192 l -82 1140 z "},"J":{"ha":513,"x_min":38,"x_max":390,"o":"m 186 -8 q 108 1 151 -8 q 38 26 65 11 l 38 49 q 113 31 71 39 q 186 22 156 22 q 313 60 269 22 q 357 201 357 97 l 357 1017 l 390 1017 l 390 201 q 340 38 390 83 q 186 -8 289 -8 z "},"Ĵ":{"ha":513,"x_min":38,"x_max":557,"o":"m 186 -8 q 108 1 151 -8 q 38 26 65 11 l 38 49 q 113 31 71 39 q 186 22 156 22 q 313 60 269 22 q 357 201 357 97 l 357 1017 l 390 1017 l 390 201 q 340 38 390 83 q 186 -8 289 -8 m 363 1279 l 390 1279 l 557 1099 l 532 1099 l 376 1258 l 204 1099 l 179 1099 l 363 1279 z "},"K":{"ha":796,"x_min":122,"x_max":742,"o":"m 122 1017 l 156 1017 l 156 525 l 371 525 l 706 1017 l 742 1017 l 397 510 l 742 0 l 704 0 l 369 494 l 156 494 l 156 0 l 122 0 l 122 1017 z "},"Ķ":{"ha":796,"x_min":122,"x_max":742,"o":"m 122 1017 l 156 1017 l 156 525 l 371 525 l 706 1017 l 742 1017 l 397 510 l 742 0 l 704 0 l 369 494 l 156 494 l 156 0 l 122 0 l 122 1017 m 264 -251 l 308 -247 q 375 -231 351 -243 q 411 -184 399 -219 q 422 -76 424 -149 l 446 -76 q 434 -190 446 -150 q 392 -247 422 -229 q 301 -265 361 -265 l 264 -265 l 264 -251 z "},"L":{"ha":735,"x_min":122,"x_max":694,"o":"m 297 0 q 122 175 122 0 l 122 1017 l 156 1017 l 156 175 q 194 63 156 92 q 297 33 233 33 l 694 33 l 694 0 l 297 0 z "},"Ĺ":{"ha":735,"x_min":122,"x_max":694,"o":"m 297 0 q 122 175 122 0 l 122 1017 l 156 1017 l 156 175 q 194 63 156 92 q 297 33 233 33 l 694 33 l 694 0 l 297 0 m 301 1283 l 338 1283 l 153 1099 l 133 1099 l 301 1283 z "},"Ľ":{"ha":735,"x_min":122,"x_max":694,"o":"m 297 0 q 122 175 122 0 l 122 1017 l 156 1017 l 156 175 q 194 63 156 92 q 297 33 233 33 l 694 33 l 694 0 l 297 0 m 294 1008 l 294 1088 l 328 1088 l 328 1008 l 322 808 l 300 808 l 294 1008 z "},"Ļ":{"ha":735,"x_min":122,"x_max":694,"o":"m 297 0 q 122 175 122 0 l 122 1017 l 156 1017 l 156 175 q 194 63 156 92 q 297 33 233 33 l 694 33 l 694 0 l 297 0 m 250 -251 l 294 -247 q 361 -231 338 -243 q 397 -184 385 -219 q 408 -76 410 -149 l 432 -76 q 420 -190 432 -150 q 378 -247 408 -229 q 288 -265 347 -265 l 250 -265 l 250 -251 z "},"Ŀ":{"ha":735,"x_min":122,"x_max":694,"o":"m 297 0 q 122 175 122 0 l 122 1017 l 156 1017 l 156 175 q 194 63 156 92 q 297 33 233 33 l 694 33 l 694 0 l 297 0 m 510 506 q 498 510 503 506 q 493 522 493 515 l 493 539 q 510 556 493 556 l 525 556 q 542 539 542 556 l 542 522 q 525 506 542 506 l 510 506 z "},"Ḷ":{"ha":735,"x_min":122,"x_max":694,"o":"m 297 0 q 122 175 122 0 l 122 1017 l 156 1017 l 156 175 q 194 63 156 92 q 297 33 233 33 l 694 33 l 694 0 l 297 0 m 350 -274 q 338 -269 343 -274 q 333 -257 333 -264 l 333 -171 q 350 -154 333 -154 l 365 -154 q 382 -171 382 -154 l 382 -257 q 365 -274 382 -274 l 350 -274 z "},"Ḻ":{"ha":735,"x_min":122,"x_max":694,"o":"m 297 0 q 122 175 122 0 l 122 1017 l 156 1017 l 156 175 q 194 63 156 92 q 297 33 233 33 l 694 33 l 694 0 l 297 0 m 176 -214 l 526 -214 l 526 -235 l 176 -235 l 176 -214 z "},"Ł":{"ha":735,"x_min":8,"x_max":694,"o":"m 694 33 l 694 0 l 297 0 q 122 175 122 0 l 122 496 l 8 447 l 8 476 l 122 525 l 122 1017 l 156 1017 l 156 535 l 353 621 l 353 593 l 156 507 l 156 175 q 194 63 156 92 q 297 33 233 33 l 694 33 z "},"M":{"ha":1107,"x_min":94,"x_max":1013,"o":"m 979 0 l 867 982 l 568 0 l 539 0 l 233 981 l 126 0 l 94 0 l 207 1017 l 253 1017 l 553 57 l 847 1017 l 896 1017 l 1013 0 l 979 0 z "},"Ṁ":{"ha":1107,"x_min":94,"x_max":1013,"o":"m 979 0 l 867 982 l 568 0 l 539 0 l 233 981 l 126 0 l 94 0 l 207 1017 l 253 1017 l 553 57 l 847 1017 l 896 1017 l 1013 0 l 979 0 m 544 1157 q 533 1162 538 1157 q 528 1174 528 1167 l 528 1260 q 544 1276 528 1276 l 560 1276 q 576 1260 576 1276 l 576 1174 q 560 1157 576 1157 l 544 1157 z "},"Ṃ":{"ha":1107,"x_min":94,"x_max":1013,"o":"m 979 0 l 867 982 l 568 0 l 539 0 l 233 981 l 126 0 l 94 0 l 207 1017 l 253 1017 l 553 57 l 847 1017 l 896 1017 l 1013 0 l 979 0 m 542 -274 q 530 -269 535 -274 q 525 -257 525 -264 l 525 -171 q 542 -154 525 -154 l 557 -154 q 574 -171 574 -154 l 574 -257 q 557 -274 574 -274 l 542 -274 z "},"N":{"ha":924,"x_min":150,"x_max":829,"o":"m 150 1017 l 181 1017 l 796 61 l 796 1017 l 829 1017 l 829 0 l 799 0 l 183 956 l 183 0 l 150 0 l 150 1017 z "},"Ń":{"ha":924,"x_min":150,"x_max":829,"o":"m 150 1017 l 181 1017 l 796 61 l 796 1017 l 829 1017 l 829 0 l 799 0 l 183 956 l 183 0 l 150 0 l 150 1017 m 631 1283 l 667 1283 l 482 1099 l 463 1099 l 631 1283 z "},"Ň":{"ha":924,"x_min":150,"x_max":829,"o":"m 150 1017 l 181 1017 l 796 61 l 796 1017 l 829 1017 l 829 0 l 799 0 l 183 956 l 183 0 l 150 0 l 150 1017 m 288 1279 l 313 1279 l 468 1119 l 640 1279 l 665 1279 l 482 1099 l 454 1099 l 288 1279 z "},"Ņ":{"ha":924,"x_min":150,"x_max":829,"o":"m 150 1017 l 181 1017 l 796 61 l 796 1017 l 829 1017 l 829 0 l 799 0 l 183 956 l 183 0 l 150 0 l 150 1017 m 357 -251 l 401 -247 q 468 -231 444 -243 q 504 -184 492 -219 q 515 -76 517 -149 l 539 -76 q 527 -190 539 -150 q 485 -247 515 -229 q 394 -265 454 -265 l 357 -265 l 357 -251 z "},"Ṅ":{"ha":924,"x_min":150,"x_max":829,"o":"m 150 1017 l 181 1017 l 796 61 l 796 1017 l 829 1017 l 829 0 l 799 0 l 183 956 l 183 0 l 150 0 l 150 1017 m 457 -274 q 445 -269 450 -274 q 440 -257 440 -264 l 440 -171 q 457 -154 440 -154 l 472 -154 q 489 -171 489 -154 l 489 -257 q 472 -274 489 -274 l 457 -274 z "},"Ṇ":{"ha":924,"x_min":150,"x_max":829,"o":"m 150 1017 l 181 1017 l 796 61 l 796 1017 l 829 1017 l 829 0 l 799 0 l 183 956 l 183 0 l 150 0 l 150 1017 m 457 -274 q 445 -269 450 -274 q 440 -257 440 -264 l 440 -171 q 457 -154 440 -154 l 472 -154 q 489 -171 489 -154 l 489 -257 q 472 -274 489 -274 l 457 -274 z "},"Ŋ":{"ha":924,"x_min":150,"x_max":829,"o":"m 829 1017 l 829 -128 q 772 -292 829 -246 q 600 -337 715 -337 q 522 -328 565 -337 q 451 -303 479 -318 l 451 -281 q 527 -299 485 -290 q 600 -307 569 -307 q 746 -269 696 -307 q 796 -128 796 -232 l 796 4 l 183 956 l 183 0 l 150 0 l 150 1017 l 181 1017 l 796 61 l 796 1017 l 829 1017 z "},"Ṉ":{"ha":924,"x_min":150,"x_max":829,"o":"m 150 1017 l 181 1017 l 796 61 l 796 1017 l 829 1017 l 829 0 l 799 0 l 183 956 l 183 0 l 150 0 l 150 1017 m 283 -214 l 633 -214 l 633 -235 l 283 -235 l 283 -214 z "},"Ñ":{"ha":924,"x_min":150,"x_max":829,"o":"m 150 1017 l 181 1017 l 796 61 l 796 1017 l 829 1017 l 829 0 l 799 0 l 183 956 l 183 0 l 150 0 l 150 1017 m 247 1140 q 284 1234 247 1204 q 369 1264 321 1264 q 426 1250 399 1264 q 492 1210 454 1236 q 549 1174 526 1186 q 596 1163 572 1163 q 670 1189 640 1163 q 700 1264 700 1215 l 719 1264 q 685 1174 719 1208 q 593 1140 651 1140 q 539 1153 565 1140 q 479 1192 513 1167 q 419 1229 444 1217 q 367 1242 393 1242 q 295 1217 324 1242 q 267 1140 267 1192 l 247 1140 z "},"O":{"ha":939,"x_min":97,"x_max":842,"o":"m 469 -8 q 254 28 332 -8 q 137 173 176 64 q 97 501 97 282 q 138 833 97 719 q 258 985 179 946 q 469 1025 336 1025 q 685 986 607 1025 q 803 835 764 947 q 842 501 842 722 q 802 173 842 282 q 685 28 763 64 q 469 -8 607 -8 m 469 22 q 669 56 599 22 q 774 193 740 90 q 808 501 808 296 q 774 822 808 717 q 669 961 739 928 q 469 994 600 994 q 276 960 346 994 q 168 820 206 926 q 131 501 131 714 q 163 192 131 293 q 265 56 196 90 q 469 22 335 22 z "},"Ó":{"ha":939,"x_min":97,"x_max":842,"o":"m 469 -8 q 254 28 332 -8 q 137 173 176 64 q 97 501 97 282 q 138 833 97 719 q 258 985 179 946 q 469 1025 336 1025 q 685 986 607 1025 q 803 835 764 947 q 842 501 842 722 q 802 173 842 282 q 685 28 763 64 q 469 -8 607 -8 m 469 22 q 669 56 599 22 q 774 193 740 90 q 808 501 808 296 q 774 822 808 717 q 669 961 739 928 q 469 994 600 994 q 276 960 346 994 q 168 820 206 926 q 131 501 131 714 q 163 192 131 293 q 265 56 196 90 q 469 22 335 22 m 632 1283 l 668 1283 l 483 1099 l 464 1099 l 632 1283 z "},"Ŏ":{"ha":939,"x_min":97,"x_max":842,"o":"m 469 -8 q 254 28 332 -8 q 137 173 176 64 q 97 501 97 282 q 138 833 97 719 q 258 985 179 946 q 469 1025 336 1025 q 685 986 607 1025 q 803 835 764 947 q 842 501 842 722 q 802 173 842 282 q 685 28 763 64 q 469 -8 607 -8 m 469 22 q 669 56 599 22 q 774 193 740 90 q 808 501 808 296 q 774 822 808 717 q 669 961 739 928 q 469 994 600 994 q 276 960 346 994 q 168 820 206 926 q 131 501 131 714 q 163 192 131 293 q 265 56 196 90 q 469 22 335 22 m 460 1101 q 337 1144 386 1101 q 288 1288 288 1188 l 307 1288 q 349 1162 307 1203 q 456 1121 390 1121 q 573 1159 531 1121 q 615 1288 615 1197 l 635 1288 q 585 1143 635 1185 q 460 1101 535 1101 z "},"Ô":{"ha":939,"x_min":97,"x_max":842,"o":"m 469 -8 q 254 28 332 -8 q 137 173 176 64 q 97 501 97 282 q 138 833 97 719 q 258 985 179 946 q 469 1025 336 1025 q 685 986 607 1025 q 803 835 764 947 q 842 501 842 722 q 802 173 842 282 q 685 28 763 64 q 469 -8 607 -8 m 469 22 q 669 56 599 22 q 774 193 740 90 q 808 501 808 296 q 774 822 808 717 q 669 961 739 928 q 469 994 600 994 q 276 960 346 994 q 168 820 206 926 q 131 501 131 714 q 163 192 131 293 q 265 56 196 90 q 469 22 335 22 m 458 1279 l 486 1279 l 653 1099 l 628 1099 l 472 1258 l 300 1099 l 275 1099 l 458 1279 z "},"Ố":{"ha":939,"x_min":97,"x_max":842,"o":"m 469 -8 q 254 28 332 -8 q 137 173 176 64 q 97 501 97 282 q 138 833 97 719 q 258 985 179 946 q 469 1025 336 1025 q 685 986 607 1025 q 803 835 764 947 q 842 501 842 722 q 802 173 842 282 q 685 28 763 64 q 469 -8 607 -8 m 469 22 q 669 56 599 22 q 774 193 740 90 q 808 501 808 296 q 774 822 808 717 q 669 961 739 928 q 469 994 600 994 q 276 960 346 994 q 168 820 206 926 q 131 501 131 714 q 163 192 131 293 q 265 56 196 90 q 469 22 335 22 m 779 1381 l 594 1196 l 575 1196 l 743 1381 l 779 1381 m 486 1224 l 653 1099 l 628 1099 l 472 1203 l 300 1099 l 275 1099 l 458 1224 l 486 1224 z "},"Ộ":{"ha":939,"x_min":97,"x_max":842,"o":"m 469 -8 q 254 28 332 -8 q 137 173 176 64 q 97 501 97 282 q 138 833 97 719 q 258 985 179 946 q 469 1025 336 1025 q 685 986 607 1025 q 803 835 764 947 q 842 501 842 722 q 802 173 842 282 q 685 28 763 64 q 469 -8 607 -8 m 469 22 q 669 56 599 22 q 774 193 740 90 q 808 501 808 296 q 774 822 808 717 q 669 961 739 928 q 469 994 600 994 q 276 960 346 994 q 168 820 206 926 q 131 501 131 714 q 163 192 131 293 q 265 56 196 90 q 469 22 335 22 m 458 1279 l 486 1279 l 653 1099 l 628 1099 l 472 1258 l 300 1099 l 275 1099 l 458 1279 m 458 -274 q 447 -269 451 -274 q 442 -257 442 -264 l 442 -171 q 458 -154 442 -154 l 474 -154 q 490 -171 490 -154 l 490 -257 q 474 -274 490 -274 l 458 -274 z "},"Ồ":{"ha":939,"x_min":97,"x_max":842,"o":"m 469 -8 q 254 28 332 -8 q 137 173 176 64 q 97 501 97 282 q 138 833 97 719 q 258 985 179 946 q 469 1025 336 1025 q 685 986 607 1025 q 803 835 764 947 q 842 501 842 722 q 802 173 842 282 q 685 28 763 64 q 469 -8 607 -8 m 469 22 q 669 56 599 22 q 774 193 740 90 q 808 501 808 296 q 774 822 808 717 q 669 961 739 928 q 469 994 600 994 q 276 960 346 994 q 168 820 206 926 q 131 501 131 714 q 163 192 131 293 q 265 56 196 90 q 469 22 335 22 m 194 1381 l 363 1196 l 343 1196 l 158 1381 l 194 1381 m 486 1224 l 653 1099 l 628 1099 l 472 1203 l 300 1099 l 275 1099 l 458 1224 l 486 1224 z "},"Ổ":{"ha":939,"x_min":97,"x_max":842,"o":"m 469 -8 q 254 28 332 -8 q 137 173 176 64 q 97 501 97 282 q 138 833 97 719 q 258 985 179 946 q 469 1025 336 1025 q 685 986 607 1025 q 803 835 764 947 q 842 501 842 722 q 802 173 842 282 q 685 28 763 64 q 469 -8 607 -8 m 469 22 q 669 56 599 22 q 774 193 740 90 q 808 501 808 296 q 774 822 808 717 q 669 961 739 928 q 469 994 600 994 q 276 960 346 994 q 168 820 206 926 q 131 501 131 714 q 163 192 131 293 q 265 56 196 90 q 469 22 335 22 m 606 1186 q 674 1224 653 1201 q 696 1275 696 1247 q 619 1342 696 1342 q 567 1333 592 1342 l 567 1353 q 622 1361 590 1361 q 694 1338 671 1361 q 718 1274 718 1314 q 690 1212 718 1242 q 606 1167 661 1182 l 606 1186 m 458 1224 l 486 1224 l 653 1099 l 628 1099 l 472 1203 l 300 1099 l 275 1099 l 458 1224 z "},"Ỗ":{"ha":939,"x_min":97,"x_max":842,"o":"m 469 -8 q 254 28 332 -8 q 137 173 176 64 q 97 501 97 282 q 138 833 97 719 q 258 985 179 946 q 469 1025 336 1025 q 685 986 607 1025 q 803 835 764 947 q 842 501 842 722 q 802 173 842 282 q 685 28 763 64 q 469 -8 607 -8 m 469 22 q 669 56 599 22 q 774 193 740 90 q 808 501 808 296 q 774 822 808 717 q 669 961 739 928 q 469 994 600 994 q 276 960 346 994 q 168 820 206 926 q 131 501 131 714 q 163 192 131 293 q 265 56 196 90 q 469 22 335 22 m 357 1389 q 412 1380 386 1389 q 475 1351 438 1371 q 533 1324 510 1333 q 583 1315 557 1315 q 648 1335 622 1315 q 674 1389 674 1354 l 693 1389 q 663 1319 693 1346 q 581 1293 633 1293 q 530 1302 554 1293 q 471 1329 506 1311 q 406 1358 429 1350 q 354 1367 382 1367 q 293 1349 318 1367 q 268 1293 268 1331 l 249 1293 q 281 1366 249 1343 q 357 1389 314 1389 m 653 1099 l 628 1099 l 472 1203 l 300 1099 l 275 1099 l 458 1224 l 486 1224 l 653 1099 z "},"Ȍ":{"ha":939,"x_min":97,"x_max":842,"o":"m 469 -8 q 254 28 332 -8 q 137 173 176 64 q 97 501 97 282 q 138 833 97 719 q 258 985 179 946 q 469 1025 336 1025 q 685 986 607 1025 q 803 835 764 947 q 842 501 842 722 q 802 173 842 282 q 685 28 763 64 q 469 -8 607 -8 m 469 22 q 669 56 599 22 q 774 193 740 90 q 808 501 808 296 q 774 822 808 717 q 669 961 739 928 q 469 994 600 994 q 276 960 346 994 q 168 820 206 926 q 131 501 131 714 q 163 192 131 293 q 265 56 196 90 q 469 22 335 22 m 214 1283 l 250 1283 l 418 1099 l 399 1099 l 214 1283 m 381 1283 l 417 1283 l 585 1099 l 565 1099 l 381 1283 z "},"Ö":{"ha":939,"x_min":97,"x_max":842,"o":"m 469 -8 q 254 28 332 -8 q 137 173 176 64 q 97 501 97 282 q 138 833 97 719 q 258 985 179 946 q 469 1025 336 1025 q 685 986 607 1025 q 803 835 764 947 q 842 501 842 722 q 802 173 842 282 q 685 28 763 64 q 469 -8 607 -8 m 469 22 q 669 56 599 22 q 774 193 740 90 q 808 501 808 296 q 774 822 808 717 q 669 961 739 928 q 469 994 600 994 q 276 960 346 994 q 168 820 206 926 q 131 501 131 714 q 163 192 131 293 q 265 56 196 90 q 469 22 335 22 m 274 1147 q 262 1152 267 1147 q 257 1164 257 1157 l 257 1250 q 274 1267 257 1267 l 289 1267 q 306 1250 306 1267 l 306 1164 q 289 1147 306 1147 l 274 1147 m 626 1147 q 615 1152 619 1147 q 610 1164 610 1157 l 610 1250 q 626 1267 610 1267 l 642 1267 q 658 1250 658 1267 l 658 1164 q 642 1147 658 1147 l 626 1147 z "},"Ȫ":{"ha":939,"x_min":97,"x_max":842,"o":"m 469 -8 q 254 28 332 -8 q 137 173 176 64 q 97 501 97 282 q 138 833 97 719 q 258 985 179 946 q 469 1025 336 1025 q 685 986 607 1025 q 803 835 764 947 q 842 501 842 722 q 802 173 842 282 q 685 28 763 64 q 469 -8 607 -8 m 469 22 q 669 56 599 22 q 774 193 740 90 q 808 501 808 296 q 774 822 808 717 q 669 961 739 928 q 469 994 600 994 q 276 960 346 994 q 168 820 206 926 q 131 501 131 714 q 163 192 131 293 q 265 56 196 90 q 469 22 335 22 m 301 1147 q 290 1152 294 1147 q 285 1164 285 1157 l 285 1250 q 301 1267 285 1267 l 317 1267 q 333 1250 333 1267 l 333 1164 q 317 1147 333 1147 l 301 1147 m 654 1147 q 642 1152 647 1147 q 638 1164 638 1157 l 638 1250 q 654 1267 638 1267 l 669 1267 q 686 1250 686 1267 l 686 1164 q 669 1147 686 1147 l 654 1147 m 313 1411 l 663 1411 l 663 1390 l 313 1390 l 313 1411 z "},"Ȱ":{"ha":939,"x_min":97,"x_max":842,"o":"m 469 -8 q 254 28 332 -8 q 137 173 176 64 q 97 501 97 282 q 138 833 97 719 q 258 985 179 946 q 469 1025 336 1025 q 685 986 607 1025 q 803 835 764 947 q 842 501 842 722 q 802 173 842 282 q 685 28 763 64 q 469 -8 607 -8 m 469 22 q 669 56 599 22 q 774 193 740 90 q 808 501 808 296 q 774 822 808 717 q 669 961 739 928 q 469 994 600 994 q 276 960 346 994 q 168 820 206 926 q 131 501 131 714 q 163 192 131 293 q 265 56 196 90 q 469 22 335 22 m 461 1157 q 449 1162 454 1157 q 444 1174 444 1167 l 444 1260 q 461 1276 444 1276 l 476 1276 q 493 1260 493 1276 l 493 1174 q 476 1157 493 1157 l 461 1157 m 285 1397 l 635 1397 l 635 1376 l 285 1376 l 285 1397 z "},"Ọ":{"ha":939,"x_min":97,"x_max":842,"o":"m 469 -8 q 254 28 332 -8 q 137 173 176 64 q 97 501 97 282 q 138 833 97 719 q 258 985 179 946 q 469 1025 336 1025 q 685 986 607 1025 q 803 835 764 947 q 842 501 842 722 q 802 173 842 282 q 685 28 763 64 q 469 -8 607 -8 m 469 22 q 669 56 599 22 q 774 193 740 90 q 808 501 808 296 q 774 822 808 717 q 669 961 739 928 q 469 994 600 994 q 276 960 346 994 q 168 820 206 926 q 131 501 131 714 q 163 192 131 293 q 265 56 196 90 q 469 22 335 22 m 458 -274 q 447 -269 451 -274 q 442 -257 442 -264 l 442 -171 q 458 -154 442 -154 l 474 -154 q 490 -171 490 -154 l 490 -257 q 474 -274 490 -274 l 458 -274 z "},"Ò":{"ha":939,"x_min":97,"x_max":842,"o":"m 469 -8 q 254 28 332 -8 q 137 173 176 64 q 97 501 97 282 q 138 833 97 719 q 258 985 179 946 q 469 1025 336 1025 q 685 986 607 1025 q 803 835 764 947 q 842 501 842 722 q 802 173 842 282 q 685 28 763 64 q 469 -8 607 -8 m 469 22 q 669 56 599 22 q 774 193 740 90 q 808 501 808 296 q 774 822 808 717 q 669 961 739 928 q 469 994 600 994 q 276 960 346 994 q 168 820 206 926 q 131 501 131 714 q 163 192 131 293 q 265 56 196 90 q 469 22 335 22 m 269 1283 l 306 1283 l 474 1099 l 454 1099 l 269 1283 z "},"Ỏ":{"ha":939,"x_min":97,"x_max":842,"o":"m 469 -8 q 254 28 332 -8 q 137 173 176 64 q 97 501 97 282 q 138 833 97 719 q 258 985 179 946 q 469 1025 336 1025 q 685 986 607 1025 q 803 835 764 947 q 842 501 842 722 q 802 173 842 282 q 685 28 763 64 q 469 -8 607 -8 m 469 22 q 669 56 599 22 q 774 193 740 90 q 808 501 808 296 q 774 822 808 717 q 669 961 739 928 q 469 994 600 994 q 276 960 346 994 q 168 820 206 926 q 131 501 131 714 q 163 192 131 293 q 265 56 196 90 q 469 22 335 22 m 446 1089 q 520 1132 497 1104 q 543 1192 543 1160 q 460 1272 543 1272 q 407 1264 432 1272 l 407 1283 q 463 1292 431 1292 q 540 1265 514 1292 q 565 1190 565 1238 q 535 1119 565 1153 q 446 1069 506 1086 l 446 1089 z "},"Ơ":{"ha":939,"x_min":97,"x_max":854,"o":"m 668 994 q 800 842 758 956 q 842 501 842 729 q 802 173 842 282 q 685 28 763 64 q 469 -8 607 -8 q 254 28 332 -8 q 137 173 176 64 q 97 501 97 282 q 138 833 97 719 q 258 985 179 946 q 469 1025 336 1025 q 590 1017 536 1025 l 707 1017 q 824 1178 824 1017 l 854 1178 q 812 1035 854 1075 q 707 994 769 994 l 668 994 m 469 22 q 669 56 599 22 q 774 193 740 90 q 808 501 808 296 q 774 822 808 717 q 669 961 739 928 q 469 994 600 994 q 276 960 346 994 q 168 820 206 926 q 131 501 131 714 q 163 192 131 293 q 265 56 196 90 q 469 22 335 22 z "},"Ớ":{"ha":939,"x_min":97,"x_max":854,"o":"m 668 994 q 800 842 758 956 q 842 501 842 729 q 802 173 842 282 q 685 28 763 64 q 469 -8 607 -8 q 254 28 332 -8 q 137 173 176 64 q 97 501 97 282 q 138 833 97 719 q 258 985 179 946 q 469 1025 336 1025 q 590 1017 536 1025 l 707 1017 q 824 1178 824 1017 l 854 1178 q 812 1035 854 1075 q 707 994 769 994 l 668 994 m 469 22 q 669 56 599 22 q 774 193 740 90 q 808 501 808 296 q 774 822 808 717 q 669 961 739 928 q 469 994 600 994 q 276 960 346 994 q 168 820 206 926 q 131 501 131 714 q 163 192 131 293 q 265 56 196 90 q 469 22 335 22 m 622 1283 l 658 1283 l 474 1099 l 454 1099 l 622 1283 z "},"Ợ":{"ha":939,"x_min":97,"x_max":854,"o":"m 668 994 q 800 842 758 956 q 842 501 842 729 q 802 173 842 282 q 685 28 763 64 q 469 -8 607 -8 q 254 28 332 -8 q 137 173 176 64 q 97 501 97 282 q 138 833 97 719 q 258 985 179 946 q 469 1025 336 1025 q 590 1017 536 1025 l 707 1017 q 824 1178 824 1017 l 854 1178 q 812 1035 854 1075 q 707 994 769 994 l 668 994 m 469 22 q 669 56 599 22 q 774 193 740 90 q 808 501 808 296 q 774 822 808 717 q 669 961 739 928 q 469 994 600 994 q 276 960 346 994 q 168 820 206 926 q 131 501 131 714 q 163 192 131 293 q 265 56 196 90 q 469 22 335 22 m 451 -274 q 440 -269 444 -274 q 435 -257 435 -264 l 435 -171 q 451 -154 435 -154 l 467 -154 q 483 -171 483 -154 l 483 -257 q 467 -274 483 -274 l 451 -274 z "},"Ờ":{"ha":939,"x_min":97,"x_max":854,"o":"m 668 994 q 800 842 758 956 q 842 501 842 729 q 802 173 842 282 q 685 28 763 64 q 469 -8 607 -8 q 254 28 332 -8 q 137 173 176 64 q 97 501 97 282 q 138 833 97 719 q 258 985 179 946 q 469 1025 336 1025 q 590 1017 536 1025 l 707 1017 q 824 1178 824 1017 l 854 1178 q 812 1035 854 1075 q 707 994 769 994 l 668 994 m 469 22 q 669 56 599 22 q 774 193 740 90 q 808 501 808 296 q 774 822 808 717 q 669 961 739 928 q 469 994 600 994 q 276 960 346 994 q 168 820 206 926 q 131 501 131 714 q 163 192 131 293 q 265 56 196 90 q 469 22 335 22 m 260 1283 l 296 1283 l 464 1099 l 444 1099 l 260 1283 z "},"Ở":{"ha":939,"x_min":97,"x_max":854,"o":"m 668 994 q 800 842 758 956 q 842 501 842 729 q 802 173 842 282 q 685 28 763 64 q 469 -8 607 -8 q 254 28 332 -8 q 137 173 176 64 q 97 501 97 282 q 138 833 97 719 q 258 985 179 946 q 469 1025 336 1025 q 590 1017 536 1025 l 707 1017 q 824 1178 824 1017 l 854 1178 q 812 1035 854 1075 q 707 994 769 994 l 668 994 m 469 22 q 669 56 599 22 q 774 193 740 90 q 808 501 808 296 q 774 822 808 717 q 669 961 739 928 q 469 994 600 994 q 276 960 346 994 q 168 820 206 926 q 131 501 131 714 q 163 192 131 293 q 265 56 196 90 q 469 22 335 22 m 449 1089 q 523 1132 500 1104 q 546 1192 546 1160 q 463 1272 546 1272 q 410 1264 435 1272 l 410 1283 q 465 1292 433 1292 q 542 1265 517 1292 q 568 1190 568 1238 q 538 1119 568 1153 q 449 1069 508 1086 l 449 1089 z "},"Ỡ":{"ha":939,"x_min":97,"x_max":854,"o":"m 668 994 q 800 842 758 956 q 842 501 842 729 q 802 173 842 282 q 685 28 763 64 q 469 -8 607 -8 q 254 28 332 -8 q 137 173 176 64 q 97 501 97 282 q 138 833 97 719 q 258 985 179 946 q 469 1025 336 1025 q 590 1017 536 1025 l 707 1017 q 824 1178 824 1017 l 854 1178 q 812 1035 854 1075 q 707 994 769 994 l 668 994 m 469 22 q 669 56 599 22 q 774 193 740 90 q 808 501 808 296 q 774 822 808 717 q 669 961 739 928 q 469 994 600 994 q 276 960 346 994 q 168 820 206 926 q 131 501 131 714 q 163 192 131 293 q 265 56 196 90 q 469 22 335 22 m 239 1140 q 276 1234 239 1204 q 361 1264 313 1264 q 418 1250 390 1264 q 483 1210 446 1236 q 541 1174 518 1186 q 588 1163 564 1163 q 662 1189 632 1163 q 692 1264 692 1215 l 711 1264 q 677 1174 711 1208 q 585 1140 643 1140 q 531 1153 557 1140 q 471 1192 504 1167 q 410 1229 436 1217 q 358 1242 385 1242 q 287 1217 315 1242 q 258 1140 258 1192 l 239 1140 z "},"Ő":{"ha":939,"x_min":97,"x_max":842,"o":"m 469 -8 q 254 28 332 -8 q 137 173 176 64 q 97 501 97 282 q 138 833 97 719 q 258 985 179 946 q 469 1025 336 1025 q 685 986 607 1025 q 803 835 764 947 q 842 501 842 722 q 802 173 842 282 q 685 28 763 64 q 469 -8 607 -8 m 469 22 q 669 56 599 22 q 774 193 740 90 q 808 501 808 296 q 774 822 808 717 q 669 961 739 928 q 469 994 600 994 q 276 960 346 994 q 168 820 206 926 q 131 501 131 714 q 163 192 131 293 q 265 56 196 90 q 469 22 335 22 m 493 1283 l 529 1283 l 344 1099 l 325 1099 l 493 1283 m 686 1283 l 722 1283 l 538 1099 l 518 1099 l 686 1283 z "},"Ȏ":{"ha":939,"x_min":97,"x_max":842,"o":"m 469 -8 q 254 28 332 -8 q 137 173 176 64 q 97 501 97 282 q 138 833 97 719 q 258 985 179 946 q 469 1025 336 1025 q 685 986 607 1025 q 803 835 764 947 q 842 501 842 722 q 802 173 842 282 q 685 28 763 64 q 469 -8 607 -8 m 469 22 q 669 56 599 22 q 774 193 740 90 q 808 501 808 296 q 774 822 808 717 q 669 961 739 928 q 469 994 600 994 q 276 960 346 994 q 168 820 206 926 q 131 501 131 714 q 163 192 131 293 q 265 56 196 90 q 469 22 335 22 m 463 1288 q 585 1244 536 1288 q 635 1101 635 1201 l 615 1101 q 574 1227 615 1186 q 467 1268 532 1268 q 349 1230 392 1268 q 307 1101 307 1192 l 288 1101 q 338 1246 288 1204 q 463 1288 388 1288 z "},"Ō":{"ha":939,"x_min":97,"x_max":842,"o":"m 469 -8 q 254 28 332 -8 q 137 173 176 64 q 97 501 97 282 q 138 833 97 719 q 258 985 179 946 q 469 1025 336 1025 q 685 986 607 1025 q 803 835 764 947 q 842 501 842 722 q 802 173 842 282 q 685 28 763 64 q 469 -8 607 -8 m 469 22 q 669 56 599 22 q 774 193 740 90 q 808 501 808 296 q 774 822 808 717 q 669 961 739 928 q 469 994 600 994 q 276 960 346 994 q 168 820 206 926 q 131 501 131 714 q 163 192 131 293 q 265 56 196 90 q 469 22 335 22 m 285 1203 l 635 1203 l 635 1182 l 285 1182 l 285 1203 z "},"Ṓ":{"ha":939,"x_min":97,"x_max":842,"o":"m 469 -8 q 254 28 332 -8 q 137 173 176 64 q 97 501 97 282 q 138 833 97 719 q 258 985 179 946 q 469 1025 336 1025 q 685 986 607 1025 q 803 835 764 947 q 842 501 842 722 q 802 173 842 282 q 685 28 763 64 q 469 -8 607 -8 m 469 22 q 669 56 599 22 q 774 193 740 90 q 808 501 808 296 q 774 822 808 717 q 669 961 739 928 q 469 994 600 994 q 276 960 346 994 q 168 820 206 926 q 131 501 131 714 q 163 192 131 293 q 265 56 196 90 q 469 22 335 22 m 285 1203 l 635 1203 l 635 1182 l 285 1182 l 285 1203 m 632 1450 l 668 1450 l 483 1265 l 464 1265 l 632 1450 z "},"Ṑ":{"ha":939,"x_min":97,"x_max":842,"o":"m 469 -8 q 254 28 332 -8 q 137 173 176 64 q 97 501 97 282 q 138 833 97 719 q 258 985 179 946 q 469 1025 336 1025 q 685 986 607 1025 q 803 835 764 947 q 842 501 842 722 q 802 173 842 282 q 685 28 763 64 q 469 -8 607 -8 m 469 22 q 669 56 599 22 q 774 193 740 90 q 808 501 808 296 q 774 822 808 717 q 669 961 739 928 q 469 994 600 994 q 276 960 346 994 q 168 820 206 926 q 131 501 131 714 q 163 192 131 293 q 265 56 196 90 q 469 22 335 22 m 285 1203 l 635 1203 l 635 1182 l 285 1182 l 285 1203 m 269 1450 l 306 1450 l 474 1265 l 454 1265 l 269 1450 z "},"Ǫ":{"ha":939,"x_min":97,"x_max":842,"o":"m 557 -6 q 487 -61 511 -29 q 463 -126 463 -93 q 499 -205 463 -178 q 604 -232 535 -232 l 611 -232 l 611 -251 q 582 -253 600 -253 q 476 -220 517 -253 q 436 -132 436 -187 q 460 -65 436 -97 q 536 -7 485 -32 q 469 -8 515 -8 q 254 28 332 -8 q 137 173 176 64 q 97 501 97 282 q 138 833 97 719 q 258 985 179 946 q 469 1025 336 1025 q 685 986 607 1025 q 803 835 764 947 q 842 501 842 722 q 811 201 842 308 q 719 49 781 94 q 557 -6 658 4 m 131 501 q 163 192 131 293 q 265 56 196 90 q 469 22 335 22 q 669 56 599 22 q 774 193 740 90 q 808 501 808 296 q 774 822 808 717 q 669 961 739 928 q 469 994 600 994 q 276 960 346 994 q 168 820 206 926 q 131 501 131 714 z "},"Ø":{"ha":939,"x_min":97,"x_max":842,"o":"m 758 922 q 822 764 801 865 q 842 501 842 663 q 802 173 842 282 q 685 28 763 64 q 469 -8 607 -8 q 306 8 371 -8 q 199 68 242 24 l 153 0 l 118 0 l 178 92 q 117 246 136 147 q 97 501 97 344 q 138 833 97 719 q 258 985 179 946 q 469 1025 336 1025 q 631 1008 565 1025 q 739 946 696 990 l 786 1017 l 821 1017 l 758 922 m 131 501 q 146 263 131 354 q 196 119 161 171 l 722 919 q 624 979 683 964 q 469 994 564 994 q 276 960 346 994 q 168 820 206 926 q 131 501 131 714 m 469 22 q 669 56 599 22 q 774 193 740 90 q 808 501 808 296 q 792 746 808 651 q 740 894 775 840 l 215 94 q 314 38 254 53 q 469 22 374 22 z "},"Ǿ":{"ha":939,"x_min":97,"x_max":842,"o":"m 758 922 q 822 764 801 865 q 842 501 842 663 q 802 173 842 282 q 685 28 763 64 q 469 -8 607 -8 q 306 8 371 -8 q 199 68 242 24 l 153 0 l 118 0 l 178 92 q 117 246 136 147 q 97 501 97 344 q 138 833 97 719 q 258 985 179 946 q 469 1025 336 1025 q 631 1008 565 1025 q 739 946 696 990 l 786 1017 l 821 1017 l 758 922 m 131 501 q 146 263 131 354 q 196 119 161 171 l 722 919 q 624 979 683 964 q 469 994 564 994 q 276 960 346 994 q 168 820 206 926 q 131 501 131 714 m 469 22 q 669 56 599 22 q 774 193 740 90 q 808 501 808 296 q 792 746 808 651 q 740 894 775 840 l 215 94 q 314 38 254 53 q 469 22 374 22 m 632 1283 l 668 1283 l 483 1099 l 464 1099 l 632 1283 z "},"Õ":{"ha":939,"x_min":97,"x_max":842,"o":"m 469 -8 q 254 28 332 -8 q 137 173 176 64 q 97 501 97 282 q 138 833 97 719 q 258 985 179 946 q 469 1025 336 1025 q 685 986 607 1025 q 803 835 764 947 q 842 501 842 722 q 802 173 842 282 q 685 28 763 64 q 469 -8 607 -8 m 469 22 q 669 56 599 22 q 774 193 740 90 q 808 501 808 296 q 774 822 808 717 q 669 961 739 928 q 469 994 600 994 q 276 960 346 994 q 168 820 206 926 q 131 501 131 714 q 163 192 131 293 q 265 56 196 90 q 469 22 335 22 m 249 1140 q 285 1234 249 1204 q 371 1264 322 1264 q 428 1250 400 1264 q 493 1210 456 1236 q 551 1174 528 1186 q 597 1163 574 1163 q 672 1189 642 1163 q 701 1264 701 1215 l 721 1264 q 687 1174 721 1208 q 594 1140 653 1140 q 540 1153 567 1140 q 481 1192 514 1167 q 420 1229 446 1217 q 368 1242 394 1242 q 297 1217 325 1242 q 268 1140 268 1192 l 249 1140 z "},"Ṍ":{"ha":939,"x_min":97,"x_max":842,"o":"m 469 -8 q 254 28 332 -8 q 137 173 176 64 q 97 501 97 282 q 138 833 97 719 q 258 985 179 946 q 469 1025 336 1025 q 685 986 607 1025 q 803 835 764 947 q 842 501 842 722 q 802 173 842 282 q 685 28 763 64 q 469 -8 607 -8 m 469 22 q 669 56 599 22 q 774 193 740 90 q 808 501 808 296 q 774 822 808 717 q 669 961 739 928 q 469 994 600 994 q 276 960 346 994 q 168 820 206 926 q 131 501 131 714 q 163 192 131 293 q 265 56 196 90 q 469 22 335 22 m 249 1140 q 285 1234 249 1204 q 371 1264 322 1264 q 428 1250 400 1264 q 493 1210 456 1236 q 551 1174 528 1186 q 597 1163 574 1163 q 672 1189 642 1163 q 701 1264 701 1215 l 721 1264 q 687 1174 721 1208 q 594 1140 653 1140 q 540 1153 567 1140 q 481 1192 514 1167 q 420 1229 446 1217 q 368 1242 394 1242 q 297 1217 325 1242 q 268 1140 268 1192 l 249 1140 m 632 1492 l 668 1492 l 483 1307 l 464 1307 l 632 1492 z "},"Ṏ":{"ha":939,"x_min":97,"x_max":842,"o":"m 469 -8 q 254 28 332 -8 q 137 173 176 64 q 97 501 97 282 q 138 833 97 719 q 258 985 179 946 q 469 1025 336 1025 q 685 986 607 1025 q 803 835 764 947 q 842 501 842 722 q 802 173 842 282 q 685 28 763 64 q 469 -8 607 -8 m 469 22 q 669 56 599 22 q 774 193 740 90 q 808 501 808 296 q 774 822 808 717 q 669 961 739 928 q 469 994 600 994 q 276 960 346 994 q 168 820 206 926 q 131 501 131 714 q 163 192 131 293 q 265 56 196 90 q 469 22 335 22 m 249 1140 q 285 1234 249 1204 q 371 1264 322 1264 q 428 1250 400 1264 q 493 1210 456 1236 q 551 1174 528 1186 q 597 1163 574 1163 q 672 1189 642 1163 q 701 1264 701 1215 l 721 1264 q 687 1174 721 1208 q 594 1140 653 1140 q 540 1153 567 1140 q 481 1192 514 1167 q 420 1229 446 1217 q 368 1242 394 1242 q 297 1217 325 1242 q 268 1140 268 1192 l 249 1140 m 288 1356 q 276 1360 281 1356 q 271 1372 271 1365 l 271 1458 q 288 1475 271 1475 l 303 1475 q 319 1458 319 1475 l 319 1372 q 303 1356 319 1356 l 288 1356 m 640 1356 q 628 1360 633 1356 q 624 1372 624 1365 l 624 1458 q 640 1475 624 1475 l 656 1475 q 672 1458 672 1475 l 672 1372 q 656 1356 672 1356 l 640 1356 z "},"Ȭ":{"ha":939,"x_min":97,"x_max":842,"o":"m 469 -8 q 254 28 332 -8 q 137 173 176 64 q 97 501 97 282 q 138 833 97 719 q 258 985 179 946 q 469 1025 336 1025 q 685 986 607 1025 q 803 835 764 947 q 842 501 842 722 q 802 173 842 282 q 685 28 763 64 q 469 -8 607 -8 m 469 22 q 669 56 599 22 q 774 193 740 90 q 808 501 808 296 q 774 822 808 717 q 669 961 739 928 q 469 994 600 994 q 276 960 346 994 q 168 820 206 926 q 131 501 131 714 q 163 192 131 293 q 265 56 196 90 q 469 22 335 22 m 313 1411 l 663 1411 l 663 1390 l 313 1390 l 313 1411 m 249 1140 q 285 1234 249 1204 q 371 1264 322 1264 q 428 1250 400 1264 q 493 1210 456 1236 q 551 1174 528 1186 q 597 1163 574 1163 q 672 1189 642 1163 q 701 1264 701 1215 l 721 1264 q 687 1174 721 1208 q 594 1140 653 1140 q 540 1153 567 1140 q 481 1192 514 1167 q 420 1229 446 1217 q 368 1242 394 1242 q 297 1217 325 1242 q 268 1140 268 1192 l 249 1140 z "},"Œ":{"ha":1490,"x_min":97,"x_max":1396,"o":"m 983 986 q 879 949 917 986 q 842 836 842 913 l 842 519 l 1340 515 l 1340 493 l 842 489 l 842 171 q 883 55 842 83 q 997 26 925 26 l 1396 26 l 1396 4 l 999 -4 q 860 30 913 -6 q 808 171 808 65 l 808 192 q 738 66 783 110 q 629 7 693 22 q 469 -8 565 -8 q 254 28 332 -8 q 137 173 176 64 q 97 501 97 282 q 138 833 97 719 q 258 985 179 946 q 469 1025 336 1025 q 628 1008 564 1025 q 738 946 693 992 q 808 817 783 900 l 808 836 q 858 974 808 931 q 983 1017 908 1018 l 1396 1008 l 1396 986 l 983 986 m 469 22 q 669 56 599 22 q 774 193 740 90 q 808 501 808 296 q 774 822 808 717 q 669 961 739 928 q 469 994 600 994 q 276 960 346 994 q 168 820 206 926 q 131 501 131 714 q 163 192 131 293 q 265 56 196 90 q 469 22 335 22 z "},"P":{"ha":819,"x_min":122,"x_max":750,"o":"m 122 1017 l 506 1017 q 679 951 608 1017 q 750 711 750 885 q 673 465 750 535 q 492 396 596 396 q 326 399 425 396 q 156 404 226 401 l 156 0 l 122 0 l 122 1017 m 492 426 q 654 490 593 426 q 715 711 715 553 q 657 926 715 867 q 506 986 599 986 l 156 986 l 156 426 l 492 426 z "},"Ṗ":{"ha":819,"x_min":122,"x_max":750,"o":"m 122 1017 l 506 1017 q 679 951 608 1017 q 750 711 750 885 q 673 465 750 535 q 492 396 596 396 q 326 399 425 396 q 156 404 226 401 l 156 0 l 122 0 l 122 1017 m 492 426 q 654 490 593 426 q 715 711 715 553 q 657 926 715 867 q 506 986 599 986 l 156 986 l 156 426 l 492 426 m 378 1157 q 366 1162 371 1157 q 361 1174 361 1167 l 361 1260 q 378 1276 361 1276 l 393 1276 q 410 1260 410 1276 l 410 1174 q 393 1157 410 1157 l 378 1157 z "},"Þ":{"ha":750,"x_min":122,"x_max":681,"o":"m 122 1017 l 156 1017 l 156 813 l 436 813 q 610 753 539 813 q 681 535 681 693 q 603 310 681 374 q 422 247 526 247 q 291 250 369 247 q 156 256 213 253 l 156 0 l 122 0 l 122 1017 m 422 278 q 585 335 524 278 q 646 535 646 392 q 588 728 646 675 q 436 782 529 782 l 156 782 l 156 278 l 422 278 z "},"Q":{"ha":939,"x_min":97,"x_max":842,"o":"m 469 -8 q 254 28 332 -8 q 137 173 176 64 q 97 501 97 282 q 138 833 97 719 q 258 985 179 946 q 469 1025 336 1025 q 685 986 607 1025 q 803 835 764 947 q 842 501 842 722 q 802 173 842 282 q 685 28 763 64 q 469 -8 607 -8 m 469 22 q 669 56 599 22 q 774 193 740 90 q 808 501 808 296 q 774 822 808 717 q 669 961 739 928 q 469 994 600 994 q 276 960 346 994 q 168 820 206 926 q 131 501 131 714 q 163 192 131 293 q 265 56 196 90 q 469 22 335 22 m 694 -206 q 579 -163 632 -206 q 511 -46 526 -121 l 533 -46 q 601 -139 556 -107 q 699 -171 647 -171 q 761 -161 736 -171 l 761 -194 q 694 -206 733 -206 z "},"R":{"ha":822,"x_min":122,"x_max":753,"o":"m 122 1017 l 506 1017 q 681 961 613 1017 q 750 739 750 906 q 685 514 750 575 q 529 449 619 453 l 753 0 l 719 0 l 494 449 l 461 449 q 305 452 407 450 q 156 457 203 454 l 156 0 l 122 0 l 122 1017 m 506 479 q 660 532 604 479 q 717 739 717 585 q 659 935 717 885 q 506 986 601 986 l 156 986 l 156 479 l 506 479 z "},"Ŕ":{"ha":822,"x_min":122,"x_max":753,"o":"m 122 1017 l 506 1017 q 681 961 613 1017 q 750 739 750 906 q 685 514 750 575 q 529 449 619 453 l 753 0 l 719 0 l 494 449 l 461 449 q 305 452 407 450 q 156 457 203 454 l 156 0 l 122 0 l 122 1017 m 506 479 q 660 532 604 479 q 717 739 717 585 q 659 935 717 885 q 506 986 601 986 l 156 986 l 156 479 l 506 479 m 563 1283 l 599 1283 l 414 1099 l 394 1099 l 563 1283 z "},"Ř":{"ha":822,"x_min":122,"x_max":753,"o":"m 122 1017 l 506 1017 q 681 961 613 1017 q 750 739 750 906 q 685 514 750 575 q 529 449 619 453 l 753 0 l 719 0 l 494 449 l 461 449 q 305 452 407 450 q 156 457 203 454 l 156 0 l 122 0 l 122 1017 m 506 479 q 660 532 604 479 q 717 739 717 585 q 659 935 717 885 q 506 986 601 986 l 156 986 l 156 479 l 506 479 m 219 1279 l 244 1279 l 400 1119 l 572 1279 l 597 1279 l 414 1099 l 386 1099 l 219 1279 z "},"Ŗ":{"ha":822,"x_min":122,"x_max":753,"o":"m 122 1017 l 506 1017 q 681 961 613 1017 q 750 739 750 906 q 685 514 750 575 q 529 449 619 453 l 753 0 l 719 0 l 494 449 l 461 449 q 305 452 407 450 q 156 457 203 454 l 156 0 l 122 0 l 122 1017 m 506 479 q 660 532 604 479 q 717 739 717 585 q 659 935 717 885 q 506 986 601 986 l 156 986 l 156 479 l 506 479 m 289 -251 l 333 -247 q 400 -231 376 -243 q 436 -184 424 -219 q 447 -76 449 -149 l 471 -76 q 459 -190 471 -150 q 417 -247 447 -229 q 326 -265 386 -265 l 289 -265 l 289 -251 z "},"Ȑ":{"ha":822,"x_min":122,"x_max":753,"o":"m 122 1017 l 506 1017 q 681 961 613 1017 q 750 739 750 906 q 685 514 750 575 q 529 449 619 453 l 753 0 l 719 0 l 494 449 l 461 449 q 305 452 407 450 q 156 457 203 454 l 156 0 l 122 0 l 122 1017 m 506 479 q 660 532 604 479 q 717 739 717 585 q 659 935 717 885 q 506 986 601 986 l 156 986 l 156 479 l 506 479 m 144 1283 l 181 1283 l 349 1099 l 329 1099 l 144 1283 m 311 1283 l 347 1283 l 515 1099 l 496 1099 l 311 1283 z "},"Ṛ":{"ha":822,"x_min":122,"x_max":753,"o":"m 122 1017 l 506 1017 q 681 961 613 1017 q 750 739 750 906 q 685 514 750 575 q 529 449 619 453 l 753 0 l 719 0 l 494 449 l 461 449 q 305 452 407 450 q 156 457 203 454 l 156 0 l 122 0 l 122 1017 m 506 479 q 660 532 604 479 q 717 739 717 585 q 659 935 717 885 q 506 986 601 986 l 156 986 l 156 479 l 506 479 m 389 -274 q 377 -269 382 -274 q 372 -257 372 -264 l 372 -171 q 389 -154 372 -154 l 404 -154 q 421 -171 421 -154 l 421 -257 q 404 -274 421 -274 l 389 -274 z "},"Ȓ":{"ha":822,"x_min":122,"x_max":753,"o":"m 122 1017 l 506 1017 q 681 961 613 1017 q 750 739 750 906 q 685 514 750 575 q 529 449 619 453 l 753 0 l 719 0 l 494 449 l 461 449 q 305 452 407 450 q 156 457 203 454 l 156 0 l 122 0 l 122 1017 m 506 479 q 660 532 604 479 q 717 739 717 585 q 659 935 717 885 q 506 986 601 986 l 156 986 l 156 479 l 506 479 m 393 1288 q 516 1244 467 1288 q 565 1101 565 1201 l 546 1101 q 504 1227 546 1186 q 397 1268 463 1268 q 280 1230 322 1268 q 238 1101 238 1192 l 218 1101 q 268 1246 218 1204 q 393 1288 318 1288 z "},"Ṟ":{"ha":822,"x_min":122,"x_max":753,"o":"m 122 1017 l 506 1017 q 681 961 613 1017 q 750 739 750 906 q 685 514 750 575 q 529 449 619 453 l 753 0 l 719 0 l 494 449 l 461 449 q 305 452 407 450 q 156 457 203 454 l 156 0 l 122 0 l 122 1017 m 506 479 q 660 532 604 479 q 717 739 717 585 q 659 935 717 885 q 506 986 601 986 l 156 986 l 156 479 l 506 479 m 215 -214 l 565 -214 l 565 -235 l 215 -235 l 215 -214 z "},"S":{"ha":790,"x_min":97,"x_max":693,"o":"m 396 -8 q 240 -3 342 -8 q 97 10 138 3 l 97 32 q 396 22 194 22 q 589 63 518 22 q 660 217 660 104 l 660 311 q 615 449 660 403 q 468 496 569 496 l 340 496 q 162 547 224 496 q 100 714 100 597 l 100 778 q 167 969 100 913 q 368 1025 235 1025 q 509 1017 418 1025 q 649 1003 600 1010 l 649 981 l 621 982 q 368 994 449 994 q 191 947 249 994 q 133 778 133 900 l 133 714 q 185 570 133 611 q 338 529 236 529 l 468 529 q 638 470 582 529 q 693 311 693 411 l 693 217 q 610 43 693 94 q 396 -8 526 -8 z "},"Ś":{"ha":790,"x_min":97,"x_max":693,"o":"m 396 -8 q 240 -3 342 -8 q 97 10 138 3 l 97 32 q 396 22 194 22 q 589 63 518 22 q 660 217 660 104 l 660 311 q 615 449 660 403 q 468 496 569 496 l 340 496 q 162 547 224 496 q 100 714 100 597 l 100 778 q 167 969 100 913 q 368 1025 235 1025 q 509 1017 418 1025 q 649 1003 600 1010 l 649 981 l 621 982 q 368 994 449 994 q 191 947 249 994 q 133 778 133 900 l 133 714 q 185 570 133 611 q 338 529 236 529 l 468 529 q 638 470 582 529 q 693 311 693 411 l 693 217 q 610 43 693 94 q 396 -8 526 -8 m 549 1283 l 585 1283 l 400 1099 l 381 1099 l 549 1283 z "},"Ṥ":{"ha":790,"x_min":97,"x_max":693,"o":"m 396 -8 q 240 -3 342 -8 q 97 10 138 3 l 97 32 q 396 22 194 22 q 589 63 518 22 q 660 217 660 104 l 660 311 q 615 449 660 403 q 468 496 569 496 l 340 496 q 162 547 224 496 q 100 714 100 597 l 100 778 q 167 969 100 913 q 368 1025 235 1025 q 509 1017 418 1025 q 649 1003 600 1010 l 649 981 l 621 982 q 368 994 449 994 q 191 947 249 994 q 133 778 133 900 l 133 714 q 185 570 133 611 q 338 529 236 529 l 468 529 q 638 470 582 529 q 693 311 693 411 l 693 217 q 610 43 693 94 q 396 -8 526 -8 m 493 1283 l 529 1283 l 344 1099 l 325 1099 l 493 1283 m 419 1324 q 408 1328 413 1324 q 403 1340 403 1333 l 403 1426 q 419 1443 403 1443 l 435 1443 q 451 1426 451 1443 l 451 1340 q 435 1324 451 1324 l 419 1324 z "},"Š":{"ha":790,"x_min":97,"x_max":693,"o":"m 396 -8 q 240 -3 342 -8 q 97 10 138 3 l 97 32 q 396 22 194 22 q 589 63 518 22 q 660 217 660 104 l 660 311 q 615 449 660 403 q 468 496 569 496 l 340 496 q 162 547 224 496 q 100 714 100 597 l 100 778 q 167 969 100 913 q 368 1025 235 1025 q 509 1017 418 1025 q 649 1003 600 1010 l 649 981 l 621 982 q 368 994 449 994 q 191 947 249 994 q 133 778 133 900 l 133 714 q 185 570 133 611 q 338 529 236 529 l 468 529 q 638 470 582 529 q 693 311 693 411 l 693 217 q 610 43 693 94 q 396 -8 526 -8 m 206 1279 l 231 1279 l 386 1119 l 558 1279 l 583 1279 l 400 1099 l 372 1099 l 206 1279 z "},"Ṧ":{"ha":790,"x_min":97,"x_max":693,"o":"m 396 -8 q 240 -3 342 -8 q 97 10 138 3 l 97 32 q 396 22 194 22 q 589 63 518 22 q 660 217 660 104 l 660 311 q 615 449 660 403 q 468 496 569 496 l 340 496 q 162 547 224 496 q 100 714 100 597 l 100 778 q 167 969 100 913 q 368 1025 235 1025 q 509 1017 418 1025 q 649 1003 600 1010 l 649 981 l 621 982 q 368 994 449 994 q 191 947 249 994 q 133 778 133 900 l 133 714 q 185 570 133 611 q 338 529 236 529 l 468 529 q 638 470 582 529 q 693 311 693 411 l 693 217 q 610 43 693 94 q 396 -8 526 -8 m 206 1279 l 231 1279 l 386 1119 l 558 1279 l 583 1279 l 400 1099 l 372 1099 l 206 1279 m 378 1324 q 366 1328 371 1324 q 361 1340 361 1333 l 361 1426 q 378 1443 361 1443 l 393 1443 q 410 1426 410 1443 l 410 1340 q 393 1324 410 1324 l 378 1324 z "},"Ş":{"ha":790,"x_min":97,"x_max":693,"o":"m 468 529 q 638 470 582 529 q 693 311 693 411 l 693 217 q 610 43 693 94 q 396 -8 526 -8 l 388 -8 l 339 -81 q 422 -103 397 -82 q 446 -165 446 -125 q 414 -231 446 -208 q 324 -254 382 -254 l 296 -254 l 296 -240 l 332 -237 q 401 -217 378 -235 q 425 -162 425 -199 q 401 -112 425 -131 q 310 -94 376 -94 l 368 -8 q 220 -1 307 -7 q 97 10 133 4 l 97 32 q 396 22 194 22 q 589 63 518 22 q 660 217 660 104 l 660 311 q 615 449 660 403 q 468 496 569 496 l 340 496 q 162 547 224 496 q 100 714 100 597 l 100 778 q 167 969 100 913 q 368 1025 235 1025 q 509 1017 418 1025 q 649 1003 600 1010 l 649 981 l 621 982 q 368 994 449 994 q 191 947 249 994 q 133 778 133 900 l 133 714 q 185 570 133 611 q 338 529 236 529 l 468 529 z "},"Ŝ":{"ha":790,"x_min":97,"x_max":693,"o":"m 396 -8 q 240 -3 342 -8 q 97 10 138 3 l 97 32 q 396 22 194 22 q 589 63 518 22 q 660 217 660 104 l 660 311 q 615 449 660 403 q 468 496 569 496 l 340 496 q 162 547 224 496 q 100 714 100 597 l 100 778 q 167 969 100 913 q 368 1025 235 1025 q 509 1017 418 1025 q 649 1003 600 1010 l 649 981 l 621 982 q 368 994 449 994 q 191 947 249 994 q 133 778 133 900 l 133 714 q 185 570 133 611 q 338 529 236 529 l 468 529 q 638 470 582 529 q 693 311 693 411 l 693 217 q 610 43 693 94 q 396 -8 526 -8 m 375 1279 l 403 1279 l 569 1099 l 544 1099 l 389 1258 l 217 1099 l 192 1099 l 375 1279 z "},"Ș":{"ha":790,"x_min":97,"x_max":693,"o":"m 396 -8 q 240 -3 342 -8 q 97 10 138 3 l 97 32 q 396 22 194 22 q 589 63 518 22 q 660 217 660 104 l 660 311 q 615 449 660 403 q 468 496 569 496 l 340 496 q 162 547 224 496 q 100 714 100 597 l 100 778 q 167 969 100 913 q 368 1025 235 1025 q 509 1017 418 1025 q 649 1003 600 1010 l 649 981 l 621 982 q 368 994 449 994 q 191 947 249 994 q 133 778 133 900 l 133 714 q 185 570 133 611 q 338 529 236 529 l 468 529 q 638 470 582 529 q 693 311 693 411 l 693 217 q 610 43 693 94 q 396 -8 526 -8 m 275 -251 l 319 -247 q 386 -231 363 -243 q 422 -184 410 -219 q 433 -76 435 -149 l 457 -76 q 445 -190 457 -150 q 403 -247 433 -229 q 313 -265 372 -265 l 275 -265 l 275 -251 z "},"Ṡ":{"ha":790,"x_min":97,"x_max":693,"o":"m 396 -8 q 240 -3 342 -8 q 97 10 138 3 l 97 32 q 396 22 194 22 q 589 63 518 22 q 660 217 660 104 l 660 311 q 615 449 660 403 q 468 496 569 496 l 340 496 q 162 547 224 496 q 100 714 100 597 l 100 778 q 167 969 100 913 q 368 1025 235 1025 q 509 1017 418 1025 q 649 1003 600 1010 l 649 981 l 621 982 q 368 994 449 994 q 191 947 249 994 q 133 778 133 900 l 133 714 q 185 570 133 611 q 338 529 236 529 l 468 529 q 638 470 582 529 q 693 311 693 411 l 693 217 q 610 43 693 94 q 396 -8 526 -8 m 378 1157 q 366 1162 371 1157 q 361 1174 361 1167 l 361 1260 q 378 1276 361 1276 l 393 1276 q 410 1260 410 1276 l 410 1174 q 393 1157 410 1157 l 378 1157 z "},"Ṣ":{"ha":790,"x_min":97,"x_max":693,"o":"m 396 -8 q 240 -3 342 -8 q 97 10 138 3 l 97 32 q 396 22 194 22 q 589 63 518 22 q 660 217 660 104 l 660 311 q 615 449 660 403 q 468 496 569 496 l 340 496 q 162 547 224 496 q 100 714 100 597 l 100 778 q 167 969 100 913 q 368 1025 235 1025 q 509 1017 418 1025 q 649 1003 600 1010 l 649 981 l 621 982 q 368 994 449 994 q 191 947 249 994 q 133 778 133 900 l 133 714 q 185 570 133 611 q 338 529 236 529 l 468 529 q 638 470 582 529 q 693 311 693 411 l 693 217 q 610 43 693 94 q 396 -8 526 -8 m 375 -274 q 363 -269 368 -274 q 358 -257 358 -264 l 358 -171 q 375 -154 358 -154 l 390 -154 q 407 -171 407 -154 l 407 -257 q 390 -274 407 -274 l 375 -274 z "},"Ṩ":{"ha":790,"x_min":97,"x_max":693,"o":"m 396 -8 q 240 -3 342 -8 q 97 10 138 3 l 97 32 q 396 22 194 22 q 589 63 518 22 q 660 217 660 104 l 660 311 q 615 449 660 403 q 468 496 569 496 l 340 496 q 162 547 224 496 q 100 714 100 597 l 100 778 q 167 969 100 913 q 368 1025 235 1025 q 509 1017 418 1025 q 649 1003 600 1010 l 649 981 l 621 982 q 368 994 449 994 q 191 947 249 994 q 133 778 133 900 l 133 714 q 185 570 133 611 q 338 529 236 529 l 468 529 q 638 470 582 529 q 693 311 693 411 l 693 217 q 610 43 693 94 q 396 -8 526 -8 m 375 -274 q 363 -269 368 -274 q 358 -257 358 -264 l 358 -171 q 375 -154 358 -154 l 390 -154 q 407 -171 407 -154 l 407 -257 q 390 -274 407 -274 l 375 -274 m 378 1157 q 366 1162 371 1157 q 361 1174 361 1167 l 361 1260 q 378 1276 361 1276 l 393 1276 q 410 1260 410 1276 l 410 1174 q 393 1157 410 1157 l 378 1157 z "},"ẞ":{"ha":874,"x_min":122,"x_max":776,"o":"m 551 529 q 721 471 665 529 q 776 311 776 413 l 776 217 q 693 43 776 94 q 479 -8 610 -8 q 392 -3 451 -8 q 292 7 332 1 l 292 29 q 479 22 350 22 q 672 63 601 22 q 743 217 743 104 l 743 311 q 698 449 743 403 q 551 496 653 496 l 386 496 l 386 529 l 700 986 l 325 986 q 200 942 244 986 q 156 808 156 899 l 156 0 l 122 0 l 122 808 q 179 967 122 917 q 321 1017 236 1017 q 572 1014 406 1017 q 738 1011 681 1011 l 738 986 l 424 529 l 551 529 z "},"Ə":{"ha":832,"x_min":108,"x_max":735,"o":"m 415 -8 q 236 39 303 -8 q 139 190 169 86 q 108 468 108 293 l 108 506 l 700 506 q 672 815 700 713 q 571 956 643 917 q 353 994 499 994 q 209 985 265 994 q 142 975 153 976 l 142 997 q 374 1025 275 1025 q 590 985 514 1025 q 700 837 665 946 q 735 514 735 728 q 697 197 735 311 q 590 38 660 83 q 415 -8 521 -8 m 411 22 q 572 60 510 22 q 666 197 633 99 q 699 475 699 296 l 140 475 q 165 207 140 304 q 249 66 190 110 q 411 22 307 22 z "},"T":{"ha":764,"x_min":22,"x_max":742,"o":"m 365 986 l 22 986 l 22 1017 l 742 1017 l 742 986 l 399 986 l 399 0 l 365 0 l 365 986 z "},"Ŧ":{"ha":764,"x_min":22,"x_max":742,"o":"m 399 986 l 399 560 l 656 560 l 656 529 l 399 529 l 399 0 l 365 0 l 365 529 l 107 529 l 107 560 l 365 560 l 365 986 l 22 986 l 22 1017 l 742 1017 l 742 986 l 399 986 z "},"Ť":{"ha":764,"x_min":22,"x_max":742,"o":"m 365 986 l 22 986 l 22 1017 l 742 1017 l 742 986 l 399 986 l 399 0 l 365 0 l 365 986 m 201 1279 l 226 1279 l 382 1119 l 554 1279 l 579 1279 l 396 1099 l 368 1099 l 201 1279 z "},"Ţ":{"ha":764,"x_min":22,"x_max":742,"o":"m 389 0 l 335 -81 q 417 -103 393 -82 q 442 -165 442 -125 q 410 -231 442 -208 q 319 -254 378 -254 l 292 -254 l 292 -240 l 328 -237 q 397 -217 374 -235 q 421 -162 421 -199 q 397 -112 421 -131 q 306 -94 372 -94 l 369 0 l 365 0 l 365 986 l 22 986 l 22 1017 l 742 1017 l 742 986 l 399 986 l 399 0 l 389 0 z "},"Ț":{"ha":764,"x_min":22,"x_max":742,"o":"m 365 986 l 22 986 l 22 1017 l 742 1017 l 742 986 l 399 986 l 399 0 l 365 0 l 365 986 m 219 -251 l 264 -247 q 331 -231 307 -243 q 367 -184 354 -219 q 378 -76 379 -149 l 401 -76 q 390 -190 401 -150 q 347 -247 378 -229 q 257 -265 317 -265 l 219 -265 l 219 -251 z "},"Ṫ":{"ha":764,"x_min":22,"x_max":742,"o":"m 365 986 l 22 986 l 22 1017 l 742 1017 l 742 986 l 399 986 l 399 0 l 365 0 l 365 986 m 374 1157 q 362 1162 367 1157 q 357 1174 357 1167 l 357 1260 q 374 1276 357 1276 l 389 1276 q 406 1260 406 1276 l 406 1174 q 389 1157 406 1157 l 374 1157 z "},"Ṭ":{"ha":764,"x_min":22,"x_max":742,"o":"m 365 986 l 22 986 l 22 1017 l 742 1017 l 742 986 l 399 986 l 399 0 l 365 0 l 365 986 m 371 -274 q 359 -269 364 -274 q 354 -257 354 -264 l 354 -171 q 371 -154 354 -154 l 386 -154 q 403 -171 403 -154 l 403 -257 q 386 -274 403 -274 l 371 -274 z "},"Ṯ":{"ha":764,"x_min":22,"x_max":742,"o":"m 365 986 l 22 986 l 22 1017 l 742 1017 l 742 986 l 399 986 l 399 0 l 365 0 l 365 986 m 197 -214 l 547 -214 l 547 -235 l 197 -235 l 197 -214 z "},"U":{"ha":928,"x_min":108,"x_max":819,"o":"m 464 -8 q 196 63 283 -8 q 108 306 108 133 l 108 1017 l 142 1017 l 142 306 q 179 134 142 196 q 286 47 217 72 q 464 22 356 22 q 642 47 572 22 q 749 134 711 72 q 786 306 786 196 l 786 1017 l 819 1017 l 819 306 q 732 63 819 133 q 464 -8 644 -8 z "},"Ú":{"ha":928,"x_min":108,"x_max":819,"o":"m 464 -8 q 196 63 283 -8 q 108 306 108 133 l 108 1017 l 142 1017 l 142 306 q 179 134 142 196 q 286 47 217 72 q 464 22 356 22 q 642 47 572 22 q 749 134 711 72 q 786 306 786 196 l 786 1017 l 819 1017 l 819 306 q 732 63 819 133 q 464 -8 644 -8 m 626 1283 l 663 1283 l 478 1099 l 458 1099 l 626 1283 z "},"Ŭ":{"ha":928,"x_min":108,"x_max":819,"o":"m 464 -8 q 196 63 283 -8 q 108 306 108 133 l 108 1017 l 142 1017 l 142 306 q 179 134 142 196 q 286 47 217 72 q 464 22 356 22 q 642 47 572 22 q 749 134 711 72 q 786 306 786 196 l 786 1017 l 819 1017 l 819 306 q 732 63 819 133 q 464 -8 644 -8 m 454 1101 q 331 1144 381 1101 q 282 1288 282 1188 l 301 1288 q 343 1162 301 1203 q 450 1121 385 1121 q 567 1159 525 1121 q 610 1288 610 1197 l 629 1288 q 579 1143 629 1185 q 454 1101 529 1101 z "},"Û":{"ha":928,"x_min":108,"x_max":819,"o":"m 464 -8 q 196 63 283 -8 q 108 306 108 133 l 108 1017 l 142 1017 l 142 306 q 179 134 142 196 q 286 47 217 72 q 464 22 356 22 q 642 47 572 22 q 749 134 711 72 q 786 306 786 196 l 786 1017 l 819 1017 l 819 306 q 732 63 819 133 q 464 -8 644 -8 m 453 1279 l 481 1279 l 647 1099 l 622 1099 l 467 1258 l 294 1099 l 269 1099 l 453 1279 z "},"Ȕ":{"ha":928,"x_min":108,"x_max":819,"o":"m 464 -8 q 196 63 283 -8 q 108 306 108 133 l 108 1017 l 142 1017 l 142 306 q 179 134 142 196 q 286 47 217 72 q 464 22 356 22 q 642 47 572 22 q 749 134 711 72 q 786 306 786 196 l 786 1017 l 819 1017 l 819 306 q 732 63 819 133 q 464 -8 644 -8 m 208 1283 l 244 1283 l 413 1099 l 393 1099 l 208 1283 m 375 1283 l 411 1283 l 579 1099 l 560 1099 l 375 1283 z "},"Ü":{"ha":928,"x_min":108,"x_max":819,"o":"m 464 -8 q 196 63 283 -8 q 108 306 108 133 l 108 1017 l 142 1017 l 142 306 q 179 134 142 196 q 286 47 217 72 q 464 22 356 22 q 642 47 572 22 q 749 134 711 72 q 786 306 786 196 l 786 1017 l 819 1017 l 819 306 q 732 63 819 133 q 464 -8 644 -8 m 268 1147 q 256 1152 261 1147 q 251 1164 251 1157 l 251 1250 q 268 1267 251 1267 l 283 1267 q 300 1250 300 1267 l 300 1164 q 283 1147 300 1147 l 268 1147 m 621 1147 q 609 1152 614 1147 q 604 1164 604 1157 l 604 1250 q 621 1267 604 1267 l 636 1267 q 653 1250 653 1267 l 653 1164 q 636 1147 653 1147 l 621 1147 z "},"Ụ":{"ha":928,"x_min":108,"x_max":819,"o":"m 464 -8 q 196 63 283 -8 q 108 306 108 133 l 108 1017 l 142 1017 l 142 306 q 179 134 142 196 q 286 47 217 72 q 464 22 356 22 q 642 47 572 22 q 749 134 711 72 q 786 306 786 196 l 786 1017 l 819 1017 l 819 306 q 732 63 819 133 q 464 -8 644 -8 m 453 -274 q 441 -269 446 -274 q 436 -257 436 -264 l 436 -171 q 453 -154 436 -154 l 468 -154 q 485 -171 485 -154 l 485 -257 q 468 -274 485 -274 l 453 -274 z "},"Ù":{"ha":928,"x_min":108,"x_max":819,"o":"m 464 -8 q 196 63 283 -8 q 108 306 108 133 l 108 1017 l 142 1017 l 142 306 q 179 134 142 196 q 286 47 217 72 q 464 22 356 22 q 642 47 572 22 q 749 134 711 72 q 786 306 786 196 l 786 1017 l 819 1017 l 819 306 q 732 63 819 133 q 464 -8 644 -8 m 264 1283 l 300 1283 l 468 1099 l 449 1099 l 264 1283 z "},"Ủ":{"ha":928,"x_min":108,"x_max":819,"o":"m 464 -8 q 196 63 283 -8 q 108 306 108 133 l 108 1017 l 142 1017 l 142 306 q 179 134 142 196 q 286 47 217 72 q 464 22 356 22 q 642 47 572 22 q 749 134 711 72 q 786 306 786 196 l 786 1017 l 819 1017 l 819 306 q 732 63 819 133 q 464 -8 644 -8 m 440 1089 q 515 1132 492 1104 q 538 1192 538 1160 q 454 1272 538 1272 q 401 1264 426 1272 l 401 1283 q 457 1292 425 1292 q 534 1265 508 1292 q 560 1190 560 1238 q 530 1119 560 1153 q 440 1069 500 1086 l 440 1089 z "},"Ư":{"ha":928,"x_min":108,"x_max":963,"o":"m 963 1178 q 922 1037 963 1078 q 819 994 881 996 l 819 306 q 732 63 819 133 q 464 -8 644 -8 q 196 63 283 -8 q 108 306 108 133 l 108 1017 l 142 1017 l 142 306 q 179 134 142 196 q 286 47 217 72 q 464 22 356 22 q 642 47 572 22 q 749 134 711 72 q 786 306 786 196 l 786 1017 l 815 1017 q 932 1178 932 1017 l 963 1178 z "},"Ứ":{"ha":928,"x_min":108,"x_max":963,"o":"m 963 1178 q 922 1037 963 1078 q 819 994 881 996 l 819 306 q 732 63 819 133 q 464 -8 644 -8 q 196 63 283 -8 q 108 306 108 133 l 108 1017 l 142 1017 l 142 306 q 179 134 142 196 q 286 47 217 72 q 464 22 356 22 q 642 47 572 22 q 749 134 711 72 q 786 306 786 196 l 786 1017 l 815 1017 q 932 1178 932 1017 l 963 1178 m 608 1283 l 644 1283 l 460 1099 l 440 1099 l 608 1283 z "},"Ự":{"ha":928,"x_min":108,"x_max":963,"o":"m 963 1178 q 922 1037 963 1078 q 819 994 881 996 l 819 306 q 732 63 819 133 q 464 -8 644 -8 q 196 63 283 -8 q 108 306 108 133 l 108 1017 l 142 1017 l 142 306 q 179 134 142 196 q 286 47 217 72 q 464 22 356 22 q 642 47 572 22 q 749 134 711 72 q 786 306 786 196 l 786 1017 l 815 1017 q 932 1178 932 1017 l 963 1178 m 438 -274 q 426 -269 431 -274 q 421 -257 421 -264 l 421 -171 q 438 -154 421 -154 l 453 -154 q 469 -171 469 -154 l 469 -257 q 453 -274 469 -274 l 438 -274 z "},"Ừ":{"ha":928,"x_min":108,"x_max":963,"o":"m 963 1178 q 922 1037 963 1078 q 819 994 881 996 l 819 306 q 732 63 819 133 q 464 -8 644 -8 q 196 63 283 -8 q 108 306 108 133 l 108 1017 l 142 1017 l 142 306 q 179 134 142 196 q 286 47 217 72 q 464 22 356 22 q 642 47 572 22 q 749 134 711 72 q 786 306 786 196 l 786 1017 l 815 1017 q 932 1178 932 1017 l 963 1178 m 274 1283 l 310 1283 l 478 1099 l 458 1099 l 274 1283 z "},"Ử":{"ha":928,"x_min":108,"x_max":963,"o":"m 963 1178 q 922 1037 963 1078 q 819 994 881 996 l 819 306 q 732 63 819 133 q 464 -8 644 -8 q 196 63 283 -8 q 108 306 108 133 l 108 1017 l 142 1017 l 142 306 q 179 134 142 196 q 286 47 217 72 q 464 22 356 22 q 642 47 572 22 q 749 134 711 72 q 786 306 786 196 l 786 1017 l 815 1017 q 932 1178 932 1017 l 963 1178 m 440 1089 q 515 1132 492 1104 q 538 1192 538 1160 q 454 1272 538 1272 q 401 1264 426 1272 l 401 1283 q 457 1292 425 1292 q 534 1265 508 1292 q 560 1190 560 1238 q 530 1119 560 1153 q 440 1069 500 1086 l 440 1089 z "},"Ữ":{"ha":928,"x_min":108,"x_max":963,"o":"m 963 1178 q 922 1037 963 1078 q 819 994 881 996 l 819 306 q 732 63 819 133 q 464 -8 644 -8 q 196 63 283 -8 q 108 306 108 133 l 108 1017 l 142 1017 l 142 306 q 179 134 142 196 q 286 47 217 72 q 464 22 356 22 q 642 47 572 22 q 749 134 711 72 q 786 306 786 196 l 786 1017 l 815 1017 q 932 1178 932 1017 l 963 1178 m 239 1140 q 276 1234 239 1204 q 361 1264 313 1264 q 418 1250 390 1264 q 483 1210 446 1236 q 541 1174 518 1186 q 588 1163 564 1163 q 662 1189 632 1163 q 692 1264 692 1215 l 711 1264 q 677 1174 711 1208 q 585 1140 643 1140 q 531 1153 557 1140 q 471 1192 504 1167 q 410 1229 436 1217 q 358 1242 385 1242 q 287 1217 315 1242 q 258 1140 258 1192 l 239 1140 z "},"Ű":{"ha":928,"x_min":108,"x_max":819,"o":"m 464 -8 q 196 63 283 -8 q 108 306 108 133 l 108 1017 l 142 1017 l 142 306 q 179 134 142 196 q 286 47 217 72 q 464 22 356 22 q 642 47 572 22 q 749 134 711 72 q 786 306 786 196 l 786 1017 l 819 1017 l 819 306 q 732 63 819 133 q 464 -8 644 -8 m 488 1283 l 524 1283 l 339 1099 l 319 1099 l 488 1283 m 681 1283 l 717 1283 l 532 1099 l 513 1099 l 681 1283 z "},"Ȗ":{"ha":928,"x_min":108,"x_max":819,"o":"m 464 -8 q 196 63 283 -8 q 108 306 108 133 l 108 1017 l 142 1017 l 142 306 q 179 134 142 196 q 286 47 217 72 q 464 22 356 22 q 642 47 572 22 q 749 134 711 72 q 786 306 786 196 l 786 1017 l 819 1017 l 819 306 q 732 63 819 133 q 464 -8 644 -8 m 457 1288 q 580 1244 531 1288 q 629 1101 629 1201 l 610 1101 q 568 1227 610 1186 q 461 1268 526 1268 q 344 1230 386 1268 q 301 1101 301 1192 l 282 1101 q 332 1246 282 1204 q 457 1288 382 1288 z "},"Ū":{"ha":928,"x_min":108,"x_max":819,"o":"m 464 -8 q 196 63 283 -8 q 108 306 108 133 l 108 1017 l 142 1017 l 142 306 q 179 134 142 196 q 286 47 217 72 q 464 22 356 22 q 642 47 572 22 q 749 134 711 72 q 786 306 786 196 l 786 1017 l 819 1017 l 819 306 q 732 63 819 133 q 464 -8 644 -8 m 279 1203 l 629 1203 l 629 1182 l 279 1182 l 279 1203 z "},"Ṻ":{"ha":928,"x_min":108,"x_max":819,"o":"m 464 -8 q 196 63 283 -8 q 108 306 108 133 l 108 1017 l 142 1017 l 142 306 q 179 134 142 196 q 286 47 217 72 q 464 22 356 22 q 642 47 572 22 q 749 134 711 72 q 786 306 786 196 l 786 1017 l 819 1017 l 819 306 q 732 63 819 133 q 464 -8 644 -8 m 279 1203 l 629 1203 l 629 1182 l 279 1182 l 279 1203 m 268 1314 q 256 1319 261 1314 q 251 1331 251 1324 l 251 1417 q 268 1433 251 1433 l 283 1433 q 300 1417 300 1433 l 300 1331 q 283 1314 300 1314 l 268 1314 m 621 1314 q 609 1319 614 1314 q 604 1331 604 1324 l 604 1417 q 621 1433 604 1433 l 636 1433 q 653 1417 653 1433 l 653 1331 q 636 1314 653 1314 l 621 1314 z "},"Ų":{"ha":928,"x_min":108,"x_max":819,"o":"m 819 1017 l 819 306 q 760 92 819 164 q 579 0 700 19 q 502 -58 529 -25 q 475 -126 475 -90 q 511 -205 475 -178 q 617 -232 547 -232 l 624 -232 l 624 -251 q 594 -253 613 -253 q 489 -220 529 -253 q 449 -132 449 -187 q 474 -62 449 -96 q 554 -4 500 -29 q 464 -8 513 -8 q 196 63 283 -8 q 108 306 108 133 l 108 1017 l 142 1017 l 142 306 q 179 134 142 196 q 286 47 217 72 q 464 22 356 22 q 642 47 572 22 q 749 134 711 72 q 786 306 786 196 l 786 1017 l 819 1017 z "},"Ů":{"ha":928,"x_min":108,"x_max":819,"o":"m 464 -8 q 196 63 283 -8 q 108 306 108 133 l 108 1017 l 142 1017 l 142 306 q 179 134 142 196 q 286 47 217 72 q 464 22 356 22 q 642 47 572 22 q 749 134 711 72 q 786 306 786 196 l 786 1017 l 819 1017 l 819 306 q 732 63 819 133 q 464 -8 644 -8 m 464 1056 q 357 1088 392 1056 q 322 1197 322 1119 q 357 1308 322 1275 q 464 1340 392 1340 q 569 1308 535 1340 q 603 1197 603 1275 q 569 1088 603 1119 q 464 1056 535 1056 m 464 1078 q 553 1103 526 1078 q 581 1197 581 1129 q 553 1292 581 1265 q 464 1318 526 1318 q 373 1292 401 1318 q 344 1197 344 1265 q 372 1103 344 1129 q 464 1078 400 1078 z "},"Ũ":{"ha":928,"x_min":108,"x_max":819,"o":"m 464 -8 q 196 63 283 -8 q 108 306 108 133 l 108 1017 l 142 1017 l 142 306 q 179 134 142 196 q 286 47 217 72 q 464 22 356 22 q 642 47 572 22 q 749 134 711 72 q 786 306 786 196 l 786 1017 l 819 1017 l 819 306 q 732 63 819 133 q 464 -8 644 -8 m 243 1140 q 280 1234 243 1204 q 365 1264 317 1264 q 422 1250 394 1264 q 488 1210 450 1236 q 545 1174 522 1186 q 592 1163 568 1163 q 666 1189 636 1163 q 696 1264 696 1215 l 715 1264 q 681 1174 715 1208 q 589 1140 647 1140 q 535 1153 561 1140 q 475 1192 508 1167 q 415 1229 440 1217 q 363 1242 389 1242 q 291 1217 319 1242 q 263 1140 263 1192 l 243 1140 z "},"Ṹ":{"ha":928,"x_min":108,"x_max":819,"o":"m 464 -8 q 196 63 283 -8 q 108 306 108 133 l 108 1017 l 142 1017 l 142 306 q 179 134 142 196 q 286 47 217 72 q 464 22 356 22 q 642 47 572 22 q 749 134 711 72 q 786 306 786 196 l 786 1017 l 819 1017 l 819 306 q 732 63 819 133 q 464 -8 644 -8 m 243 1140 q 280 1234 243 1204 q 365 1264 317 1264 q 422 1250 394 1264 q 488 1210 450 1236 q 545 1174 522 1186 q 592 1163 568 1163 q 666 1189 636 1163 q 696 1264 696 1215 l 715 1264 q 681 1174 715 1208 q 589 1140 647 1140 q 535 1153 561 1140 q 475 1192 508 1167 q 415 1229 440 1217 q 363 1242 389 1242 q 291 1217 319 1242 q 263 1140 263 1192 l 243 1140 m 626 1492 l 663 1492 l 478 1307 l 458 1307 l 626 1492 z "},"V":{"ha":925,"x_min":67,"x_max":858,"o":"m 67 1017 l 101 1017 l 463 29 l 824 1017 l 858 1017 l 486 0 l 439 0 l 67 1017 z "},"W":{"ha":1376,"x_min":67,"x_max":1310,"o":"m 67 1017 l 101 1017 l 365 29 l 665 1017 l 713 1017 l 1011 29 l 1276 1017 l 1310 1017 l 1035 0 l 988 0 l 689 983 l 389 0 l 342 0 l 67 1017 z "},"Ẃ":{"ha":1376,"x_min":67,"x_max":1310,"o":"m 67 1017 l 101 1017 l 365 29 l 665 1017 l 713 1017 l 1011 29 l 1276 1017 l 1310 1017 l 1035 0 l 988 0 l 689 983 l 389 0 l 342 0 l 67 1017 m 846 1283 l 882 1283 l 697 1099 l 678 1099 l 846 1283 z "},"Ŵ":{"ha":1376,"x_min":67,"x_max":1310,"o":"m 67 1017 l 101 1017 l 365 29 l 665 1017 l 713 1017 l 1011 29 l 1276 1017 l 1310 1017 l 1035 0 l 988 0 l 689 983 l 389 0 l 342 0 l 67 1017 m 672 1279 l 700 1279 l 867 1099 l 842 1099 l 686 1258 l 514 1099 l 489 1099 l 672 1279 z "},"Ẅ":{"ha":1376,"x_min":67,"x_max":1310,"o":"m 67 1017 l 101 1017 l 365 29 l 665 1017 l 713 1017 l 1011 29 l 1276 1017 l 1310 1017 l 1035 0 l 988 0 l 689 983 l 389 0 l 342 0 l 67 1017 m 488 1147 q 476 1152 481 1147 q 471 1164 471 1157 l 471 1250 q 488 1267 471 1267 l 503 1267 q 519 1250 519 1267 l 519 1164 q 503 1147 519 1147 l 488 1147 m 840 1147 q 828 1152 833 1147 q 824 1164 824 1157 l 824 1250 q 840 1267 824 1267 l 856 1267 q 872 1250 872 1267 l 872 1164 q 856 1147 872 1147 l 840 1147 z "},"Ẁ":{"ha":1376,"x_min":67,"x_max":1310,"o":"m 67 1017 l 101 1017 l 365 29 l 665 1017 l 713 1017 l 1011 29 l 1276 1017 l 1310 1017 l 1035 0 l 988 0 l 689 983 l 389 0 l 342 0 l 67 1017 m 483 1283 l 519 1283 l 688 1099 l 668 1099 l 483 1283 z "},"X":{"ha":821,"x_min":69,"x_max":751,"o":"m 433 501 l 751 0 l 715 0 l 411 479 l 110 0 l 74 0 l 393 507 l 69 1017 l 106 1017 l 414 531 l 715 1017 l 751 1017 l 433 501 z "},"Y":{"ha":847,"x_min":69,"x_max":778,"o":"m 407 361 l 69 1017 l 106 1017 l 424 393 l 742 1017 l 778 1017 l 440 361 l 440 0 l 407 0 l 407 361 z "},"Ý":{"ha":847,"x_min":69,"x_max":778,"o":"m 407 361 l 69 1017 l 106 1017 l 424 393 l 742 1017 l 778 1017 l 440 361 l 440 0 l 407 0 l 407 361 m 586 1283 l 622 1283 l 438 1099 l 418 1099 l 586 1283 z "},"Ŷ":{"ha":847,"x_min":69,"x_max":778,"o":"m 407 361 l 69 1017 l 106 1017 l 424 393 l 742 1017 l 778 1017 l 440 361 l 440 0 l 407 0 l 407 361 m 413 1279 l 440 1279 l 607 1099 l 582 1099 l 426 1258 l 254 1099 l 229 1099 l 413 1279 z "},"Ÿ":{"ha":847,"x_min":69,"x_max":778,"o":"m 407 361 l 69 1017 l 106 1017 l 424 393 l 742 1017 l 778 1017 l 440 361 l 440 0 l 407 0 l 407 361 m 228 1147 q 216 1152 221 1147 q 211 1164 211 1157 l 211 1250 q 228 1267 211 1267 l 243 1267 q 260 1250 260 1267 l 260 1164 q 243 1147 260 1147 l 228 1147 m 581 1147 q 569 1152 574 1147 q 564 1164 564 1157 l 564 1250 q 581 1267 564 1267 l 596 1267 q 613 1250 613 1267 l 613 1164 q 596 1147 613 1147 l 581 1147 z "},"Ẏ":{"ha":847,"x_min":69,"x_max":778,"o":"m 407 361 l 69 1017 l 106 1017 l 424 393 l 742 1017 l 778 1017 l 440 361 l 440 0 l 407 0 l 407 361 m 413 -274 q 401 -269 406 -274 q 396 -257 396 -264 l 396 -171 q 413 -154 396 -154 l 428 -154 q 444 -171 444 -154 l 444 -257 q 428 -274 444 -274 l 413 -274 z "},"Ỵ":{"ha":847,"x_min":69,"x_max":778,"o":"m 407 361 l 69 1017 l 106 1017 l 424 393 l 742 1017 l 778 1017 l 440 361 l 440 0 l 407 0 l 407 361 m 413 -274 q 401 -269 406 -274 q 396 -257 396 -264 l 396 -171 q 413 -154 396 -154 l 428 -154 q 444 -171 444 -154 l 444 -257 q 428 -274 444 -274 l 413 -274 z "},"Ỳ":{"ha":847,"x_min":69,"x_max":778,"o":"m 407 361 l 69 1017 l 106 1017 l 424 393 l 742 1017 l 778 1017 l 440 361 l 440 0 l 407 0 l 407 361 m 224 1283 l 260 1283 l 428 1099 l 408 1099 l 224 1283 z "},"Ỷ":{"ha":847,"x_min":69,"x_max":778,"o":"m 407 361 l 69 1017 l 106 1017 l 424 393 l 742 1017 l 778 1017 l 440 361 l 440 0 l 407 0 l 407 361 m 400 1089 q 474 1132 451 1104 q 497 1192 497 1160 q 414 1272 497 1272 q 361 1264 386 1272 l 361 1283 q 417 1292 385 1292 q 494 1265 468 1292 q 519 1190 519 1238 q 490 1119 519 1153 q 400 1069 460 1086 l 400 1089 z "},"Ȳ":{"ha":847,"x_min":69,"x_max":778,"o":"m 407 361 l 69 1017 l 106 1017 l 424 393 l 742 1017 l 778 1017 l 440 361 l 440 0 l 407 0 l 407 361 m 239 1203 l 589 1203 l 589 1182 l 239 1182 l 239 1203 z "},"Ỹ":{"ha":847,"x_min":69,"x_max":778,"o":"m 407 361 l 69 1017 l 106 1017 l 424 393 l 742 1017 l 778 1017 l 440 361 l 440 0 l 407 0 l 407 361 m 203 1140 q 240 1234 203 1204 q 325 1264 276 1264 q 382 1250 354 1264 q 447 1210 410 1236 q 505 1174 482 1186 q 551 1163 528 1163 q 626 1189 596 1163 q 656 1264 656 1215 l 675 1264 q 641 1174 675 1208 q 549 1140 607 1140 q 494 1153 521 1140 q 435 1192 468 1167 q 374 1229 400 1217 q 322 1242 349 1242 q 251 1217 279 1242 q 222 1140 222 1192 l 203 1140 z "},"Z":{"ha":763,"x_min":65,"x_max":708,"o":"m 65 31 l 668 986 l 65 986 l 65 1017 l 708 1017 l 708 986 l 106 31 l 708 31 l 708 0 l 65 0 l 65 31 z "},"Ź":{"ha":763,"x_min":65,"x_max":708,"o":"m 65 31 l 668 986 l 65 986 l 65 1017 l 708 1017 l 708 986 l 106 31 l 708 31 l 708 0 l 65 0 l 65 31 m 544 1283 l 581 1283 l 396 1099 l 376 1099 l 544 1283 z "},"Ž":{"ha":763,"x_min":65,"x_max":708,"o":"m 65 31 l 668 986 l 65 986 l 65 1017 l 708 1017 l 708 986 l 106 31 l 708 31 l 708 0 l 65 0 l 65 31 m 201 1279 l 226 1279 l 382 1119 l 554 1279 l 579 1279 l 396 1099 l 368 1099 l 201 1279 z "},"Ż":{"ha":763,"x_min":65,"x_max":708,"o":"m 65 31 l 668 986 l 65 986 l 65 1017 l 708 1017 l 708 986 l 106 31 l 708 31 l 708 0 l 65 0 l 65 31 m 374 1157 q 362 1162 367 1157 q 357 1174 357 1167 l 357 1260 q 374 1276 357 1276 l 389 1276 q 406 1260 406 1276 l 406 1174 q 389 1157 406 1157 l 374 1157 z "},"Ẓ":{"ha":763,"x_min":65,"x_max":708,"o":"m 65 31 l 668 986 l 65 986 l 65 1017 l 708 1017 l 708 986 l 106 31 l 708 31 l 708 0 l 65 0 l 65 31 m 371 -274 q 359 -269 364 -274 q 354 -257 354 -264 l 354 -171 q 371 -154 354 -154 l 386 -154 q 403 -171 403 -154 l 403 -257 q 386 -274 403 -274 l 371 -274 z "},"a":{"ha":750,"x_min":75,"x_max":629,"o":"m 260 -8 q 126 40 178 -8 q 75 175 75 89 l 75 218 q 132 361 75 308 q 296 414 189 414 l 596 414 l 596 538 q 548 674 596 626 q 381 721 500 721 l 144 721 l 144 743 l 183 744 q 388 751 318 751 q 572 698 515 751 q 629 538 629 644 l 629 0 l 607 0 l 596 89 q 486 40 593 88 q 260 -8 379 -8 m 265 25 q 389 44 315 25 q 521 84 463 64 q 596 111 579 104 l 596 392 l 288 382 q 151 335 193 379 q 108 218 108 290 l 108 182 q 156 63 108 100 q 265 25 203 25 z "},"á":{"ha":750,"x_min":75,"x_max":629,"o":"m 260 -8 q 126 40 178 -8 q 75 175 75 89 l 75 218 q 132 361 75 308 q 296 414 189 414 l 596 414 l 596 538 q 548 674 596 626 q 381 721 500 721 l 144 721 l 144 743 l 183 744 q 388 751 318 751 q 572 698 515 751 q 629 538 629 644 l 629 0 l 607 0 l 596 89 q 486 40 593 88 q 260 -8 379 -8 m 265 25 q 389 44 315 25 q 521 84 463 64 q 596 111 579 104 l 596 392 l 288 382 q 151 335 193 379 q 108 218 108 290 l 108 182 q 156 63 108 100 q 265 25 203 25 m 510 1061 l 546 1061 l 361 876 l 342 876 l 510 1061 z "},"ă":{"ha":750,"x_min":75,"x_max":629,"o":"m 260 -8 q 126 40 178 -8 q 75 175 75 89 l 75 218 q 132 361 75 308 q 296 414 189 414 l 596 414 l 596 538 q 548 674 596 626 q 381 721 500 721 l 144 721 l 144 743 l 183 744 q 388 751 318 751 q 572 698 515 751 q 629 538 629 644 l 629 0 l 607 0 l 596 89 q 486 40 593 88 q 260 -8 379 -8 m 265 25 q 389 44 315 25 q 521 84 463 64 q 596 111 579 104 l 596 392 l 288 382 q 151 335 193 379 q 108 218 108 290 l 108 182 q 156 63 108 100 q 265 25 203 25 m 365 879 q 242 922 292 879 q 193 1065 193 965 l 213 1065 q 254 940 213 981 q 361 899 296 899 q 478 937 436 899 q 521 1065 521 975 l 540 1065 q 490 921 540 963 q 365 879 440 879 z "},"ắ":{"ha":750,"x_min":75,"x_max":629,"o":"m 260 -8 q 126 40 178 -8 q 75 175 75 89 l 75 218 q 132 361 75 308 q 296 414 189 414 l 596 414 l 596 538 q 548 674 596 626 q 381 721 500 721 l 144 721 l 144 743 l 183 744 q 388 751 318 751 q 572 698 515 751 q 629 538 629 644 l 629 0 l 607 0 l 596 89 q 486 40 593 88 q 260 -8 379 -8 m 265 25 q 389 44 315 25 q 521 84 463 64 q 596 111 579 104 l 596 392 l 288 382 q 151 335 193 379 q 108 218 108 290 l 108 182 q 156 63 108 100 q 265 25 203 25 m 510 1200 l 546 1200 l 361 1015 l 342 1015 l 510 1200 m 213 1024 q 254 929 213 960 q 361 899 296 899 q 521 1024 521 899 l 540 1024 q 490 911 540 943 q 365 879 440 879 q 243 913 293 879 q 193 1024 193 946 l 213 1024 z "},"ặ":{"ha":750,"x_min":75,"x_max":629,"o":"m 260 -8 q 126 40 178 -8 q 75 175 75 89 l 75 218 q 132 361 75 308 q 296 414 189 414 l 596 414 l 596 538 q 548 674 596 626 q 381 721 500 721 l 144 721 l 144 743 l 183 744 q 388 751 318 751 q 572 698 515 751 q 629 538 629 644 l 629 0 l 607 0 l 596 89 q 486 40 593 88 q 260 -8 379 -8 m 265 25 q 389 44 315 25 q 521 84 463 64 q 596 111 579 104 l 596 392 l 288 382 q 151 335 193 379 q 108 218 108 290 l 108 182 q 156 63 108 100 q 265 25 203 25 m 365 879 q 242 922 292 879 q 193 1065 193 965 l 213 1065 q 254 940 213 981 q 361 899 296 899 q 478 937 436 899 q 521 1065 521 975 l 540 1065 q 490 921 540 963 q 365 879 440 879 m 364 -274 q 352 -269 357 -274 q 347 -257 347 -264 l 347 -171 q 364 -154 347 -154 l 379 -154 q 396 -171 396 -154 l 396 -257 q 379 -274 396 -274 l 364 -274 z "},"ằ":{"ha":750,"x_min":75,"x_max":629,"o":"m 260 -8 q 126 40 178 -8 q 75 175 75 89 l 75 218 q 132 361 75 308 q 296 414 189 414 l 596 414 l 596 538 q 548 674 596 626 q 381 721 500 721 l 144 721 l 144 743 l 183 744 q 388 751 318 751 q 572 698 515 751 q 629 538 629 644 l 629 0 l 607 0 l 596 89 q 486 40 593 88 q 260 -8 379 -8 m 265 25 q 389 44 315 25 q 521 84 463 64 q 596 111 579 104 l 596 392 l 288 382 q 151 335 193 379 q 108 218 108 290 l 108 182 q 156 63 108 100 q 265 25 203 25 m 203 1200 l 239 1200 l 407 1015 l 388 1015 l 203 1200 m 213 1024 q 254 929 213 960 q 361 899 296 899 q 521 1024 521 899 l 540 1024 q 490 911 540 943 q 365 879 440 879 q 243 913 293 879 q 193 1024 193 946 l 213 1024 z "},"ẳ":{"ha":750,"x_min":75,"x_max":629,"o":"m 260 -8 q 126 40 178 -8 q 75 175 75 89 l 75 218 q 132 361 75 308 q 296 414 189 414 l 596 414 l 596 538 q 548 674 596 626 q 381 721 500 721 l 144 721 l 144 743 l 183 744 q 388 751 318 751 q 572 698 515 751 q 629 538 629 644 l 629 0 l 607 0 l 596 89 q 486 40 593 88 q 260 -8 379 -8 m 265 25 q 389 44 315 25 q 521 84 463 64 q 596 111 579 104 l 596 392 l 288 382 q 151 335 193 379 q 108 218 108 290 l 108 182 q 156 63 108 100 q 265 25 203 25 m 347 978 q 422 1021 399 993 q 444 1081 444 1049 q 361 1161 444 1161 q 308 1153 333 1161 l 308 1172 q 364 1181 332 1181 q 441 1153 415 1181 q 467 1079 467 1126 q 437 1008 467 1042 q 347 958 407 975 l 347 978 m 365 879 q 243 913 293 879 q 193 1024 193 946 l 213 1024 q 254 929 213 960 q 361 899 296 899 q 521 1024 521 899 l 540 1024 q 490 911 540 943 q 365 879 440 879 z "},"ẵ":{"ha":750,"x_min":75,"x_max":629,"o":"m 260 -8 q 126 40 178 -8 q 75 175 75 89 l 75 218 q 132 361 75 308 q 296 414 189 414 l 596 414 l 596 538 q 548 674 596 626 q 381 721 500 721 l 144 721 l 144 743 l 183 744 q 388 751 318 751 q 572 698 515 751 q 629 538 629 644 l 629 0 l 607 0 l 596 89 q 486 40 593 88 q 260 -8 379 -8 m 265 25 q 389 44 315 25 q 521 84 463 64 q 596 111 579 104 l 596 392 l 288 382 q 151 335 193 379 q 108 218 108 290 l 108 182 q 156 63 108 100 q 265 25 203 25 m 263 1167 q 317 1158 292 1167 q 381 1129 343 1149 q 439 1102 415 1111 q 489 1093 463 1093 q 553 1113 528 1093 q 579 1167 579 1132 l 599 1167 q 569 1097 599 1124 q 486 1071 539 1071 q 435 1080 460 1071 q 376 1107 411 1089 q 311 1136 335 1128 q 260 1144 288 1144 q 199 1126 224 1144 q 174 1071 174 1108 l 154 1071 q 187 1144 154 1121 q 263 1167 219 1167 m 213 1024 q 254 929 213 960 q 361 899 296 899 q 521 1024 521 899 l 540 1024 q 490 911 540 943 q 365 879 440 879 q 243 913 293 879 q 193 1024 193 946 l 213 1024 z "},"â":{"ha":750,"x_min":75,"x_max":629,"o":"m 260 -8 q 126 40 178 -8 q 75 175 75 89 l 75 218 q 132 361 75 308 q 296 414 189 414 l 596 414 l 596 538 q 548 674 596 626 q 381 721 500 721 l 144 721 l 144 743 l 183 744 q 388 751 318 751 q 572 698 515 751 q 629 538 629 644 l 629 0 l 607 0 l 596 89 q 486 40 593 88 q 260 -8 379 -8 m 265 25 q 389 44 315 25 q 521 84 463 64 q 596 111 579 104 l 596 392 l 288 382 q 151 335 193 379 q 108 218 108 290 l 108 182 q 156 63 108 100 q 265 25 203 25 m 364 1057 l 392 1057 l 558 876 l 533 876 l 378 1036 l 206 876 l 181 876 l 364 1057 z "},"ấ":{"ha":750,"x_min":75,"x_max":685,"o":"m 260 -8 q 126 40 178 -8 q 75 175 75 89 l 75 218 q 132 361 75 308 q 296 414 189 414 l 596 414 l 596 538 q 548 674 596 626 q 381 721 500 721 l 144 721 l 144 743 l 183 744 q 388 751 318 751 q 572 698 515 751 q 629 538 629 644 l 629 0 l 607 0 l 596 89 q 486 40 593 88 q 260 -8 379 -8 m 265 25 q 389 44 315 25 q 521 84 463 64 q 596 111 579 104 l 596 392 l 288 382 q 151 335 193 379 q 108 218 108 290 l 108 182 q 156 63 108 100 q 265 25 203 25 m 685 1158 l 500 974 l 481 974 l 649 1158 l 685 1158 m 392 1001 l 558 876 l 533 876 l 378 981 l 206 876 l 181 876 l 364 1001 l 392 1001 z "},"ậ":{"ha":750,"x_min":75,"x_max":629,"o":"m 260 -8 q 126 40 178 -8 q 75 175 75 89 l 75 218 q 132 361 75 308 q 296 414 189 414 l 596 414 l 596 538 q 548 674 596 626 q 381 721 500 721 l 144 721 l 144 743 l 183 744 q 388 751 318 751 q 572 698 515 751 q 629 538 629 644 l 629 0 l 607 0 l 596 89 q 486 40 593 88 q 260 -8 379 -8 m 265 25 q 389 44 315 25 q 521 84 463 64 q 596 111 579 104 l 596 392 l 288 382 q 151 335 193 379 q 108 218 108 290 l 108 182 q 156 63 108 100 q 265 25 203 25 m 364 1057 l 392 1057 l 558 876 l 533 876 l 378 1036 l 206 876 l 181 876 l 364 1057 m 364 -274 q 352 -269 357 -274 q 347 -257 347 -264 l 347 -171 q 364 -154 347 -154 l 379 -154 q 396 -171 396 -154 l 396 -257 q 379 -274 396 -274 l 364 -274 z "},"ầ":{"ha":750,"x_min":64,"x_max":629,"o":"m 260 -8 q 126 40 178 -8 q 75 175 75 89 l 75 218 q 132 361 75 308 q 296 414 189 414 l 596 414 l 596 538 q 548 674 596 626 q 381 721 500 721 l 144 721 l 144 743 l 183 744 q 388 751 318 751 q 572 698 515 751 q 629 538 629 644 l 629 0 l 607 0 l 596 89 q 486 40 593 88 q 260 -8 379 -8 m 265 25 q 389 44 315 25 q 521 84 463 64 q 596 111 579 104 l 596 392 l 288 382 q 151 335 193 379 q 108 218 108 290 l 108 182 q 156 63 108 100 q 265 25 203 25 m 100 1158 l 268 974 l 249 974 l 64 1158 l 100 1158 m 392 1001 l 558 876 l 533 876 l 378 981 l 206 876 l 181 876 l 364 1001 l 392 1001 z "},"ẩ":{"ha":750,"x_min":75,"x_max":629,"o":"m 260 -8 q 126 40 178 -8 q 75 175 75 89 l 75 218 q 132 361 75 308 q 296 414 189 414 l 596 414 l 596 538 q 548 674 596 626 q 381 721 500 721 l 144 721 l 144 743 l 183 744 q 388 751 318 751 q 572 698 515 751 q 629 538 629 644 l 629 0 l 607 0 l 596 89 q 486 40 593 88 q 260 -8 379 -8 m 265 25 q 389 44 315 25 q 521 84 463 64 q 596 111 579 104 l 596 392 l 288 382 q 151 335 193 379 q 108 218 108 290 l 108 182 q 156 63 108 100 q 265 25 203 25 m 511 964 q 580 1002 558 979 q 601 1053 601 1025 q 525 1119 601 1119 q 472 1111 497 1119 l 472 1131 q 528 1139 496 1139 q 600 1115 576 1139 q 624 1051 624 1092 q 595 990 624 1019 q 511 944 567 960 l 511 964 m 364 1001 l 392 1001 l 558 876 l 533 876 l 378 981 l 206 876 l 181 876 l 364 1001 z "},"ẫ":{"ha":750,"x_min":75,"x_max":629,"o":"m 260 -8 q 126 40 178 -8 q 75 175 75 89 l 75 218 q 132 361 75 308 q 296 414 189 414 l 596 414 l 596 538 q 548 674 596 626 q 381 721 500 721 l 144 721 l 144 743 l 183 744 q 388 751 318 751 q 572 698 515 751 q 629 538 629 644 l 629 0 l 607 0 l 596 89 q 486 40 593 88 q 260 -8 379 -8 m 265 25 q 389 44 315 25 q 521 84 463 64 q 596 111 579 104 l 596 392 l 288 382 q 151 335 193 379 q 108 218 108 290 l 108 182 q 156 63 108 100 q 265 25 203 25 m 263 1167 q 317 1158 292 1167 q 381 1129 343 1149 q 439 1102 415 1111 q 489 1093 463 1093 q 553 1113 528 1093 q 579 1167 579 1132 l 599 1167 q 569 1097 599 1124 q 486 1071 539 1071 q 435 1080 460 1071 q 376 1107 411 1089 q 311 1136 335 1128 q 260 1144 288 1144 q 199 1126 224 1144 q 174 1071 174 1108 l 154 1071 q 187 1144 154 1121 q 263 1167 219 1167 m 558 876 l 533 876 l 378 981 l 206 876 l 181 876 l 364 1001 l 392 1001 l 558 876 z "},"ȁ":{"ha":750,"x_min":75,"x_max":629,"o":"m 260 -8 q 126 40 178 -8 q 75 175 75 89 l 75 218 q 132 361 75 308 q 296 414 189 414 l 596 414 l 596 538 q 548 674 596 626 q 381 721 500 721 l 144 721 l 144 743 l 183 744 q 388 751 318 751 q 572 698 515 751 q 629 538 629 644 l 629 0 l 607 0 l 596 89 q 486 40 593 88 q 260 -8 379 -8 m 265 25 q 389 44 315 25 q 521 84 463 64 q 596 111 579 104 l 596 392 l 288 382 q 151 335 193 379 q 108 218 108 290 l 108 182 q 156 63 108 100 q 265 25 203 25 m 128 1061 l 164 1061 l 332 876 l 313 876 l 128 1061 m 294 1061 l 331 1061 l 499 876 l 479 876 l 294 1061 z "},"ä":{"ha":750,"x_min":75,"x_max":629,"o":"m 260 -8 q 126 40 178 -8 q 75 175 75 89 l 75 218 q 132 361 75 308 q 296 414 189 414 l 596 414 l 596 538 q 548 674 596 626 q 381 721 500 721 l 144 721 l 144 743 l 183 744 q 388 751 318 751 q 572 698 515 751 q 629 538 629 644 l 629 0 l 607 0 l 596 89 q 486 40 593 88 q 260 -8 379 -8 m 265 25 q 389 44 315 25 q 521 84 463 64 q 596 111 579 104 l 596 392 l 288 382 q 151 335 193 379 q 108 218 108 290 l 108 182 q 156 63 108 100 q 265 25 203 25 m 233 925 q 222 930 226 925 q 217 942 217 935 l 217 1028 q 233 1044 217 1044 l 249 1044 q 265 1028 265 1044 l 265 942 q 249 925 265 925 l 233 925 m 503 925 q 491 930 496 925 q 486 942 486 935 l 486 1028 q 503 1044 486 1044 l 518 1044 q 535 1028 535 1044 l 535 942 q 518 925 535 925 l 503 925 z "},"ạ":{"ha":750,"x_min":75,"x_max":629,"o":"m 260 -8 q 126 40 178 -8 q 75 175 75 89 l 75 218 q 132 361 75 308 q 296 414 189 414 l 596 414 l 596 538 q 548 674 596 626 q 381 721 500 721 l 144 721 l 144 743 l 183 744 q 388 751 318 751 q 572 698 515 751 q 629 538 629 644 l 629 0 l 607 0 l 596 89 q 486 40 593 88 q 260 -8 379 -8 m 265 25 q 389 44 315 25 q 521 84 463 64 q 596 111 579 104 l 596 392 l 288 382 q 151 335 193 379 q 108 218 108 290 l 108 182 q 156 63 108 100 q 265 25 203 25 m 364 -274 q 352 -269 357 -274 q 347 -257 347 -264 l 347 -171 q 364 -154 347 -154 l 379 -154 q 396 -171 396 -154 l 396 -257 q 379 -274 396 -274 l 364 -274 z "},"à":{"ha":750,"x_min":75,"x_max":629,"o":"m 260 -8 q 126 40 178 -8 q 75 175 75 89 l 75 218 q 132 361 75 308 q 296 414 189 414 l 596 414 l 596 538 q 548 674 596 626 q 381 721 500 721 l 144 721 l 144 743 l 183 744 q 388 751 318 751 q 572 698 515 751 q 629 538 629 644 l 629 0 l 607 0 l 596 89 q 486 40 593 88 q 260 -8 379 -8 m 265 25 q 389 44 315 25 q 521 84 463 64 q 596 111 579 104 l 596 392 l 288 382 q 151 335 193 379 q 108 218 108 290 l 108 182 q 156 63 108 100 q 265 25 203 25 m 203 1061 l 239 1061 l 407 876 l 388 876 l 203 1061 z "},"ả":{"ha":750,"x_min":75,"x_max":629,"o":"m 260 -8 q 126 40 178 -8 q 75 175 75 89 l 75 218 q 132 361 75 308 q 296 414 189 414 l 596 414 l 596 538 q 548 674 596 626 q 381 721 500 721 l 144 721 l 144 743 l 183 744 q 388 751 318 751 q 572 698 515 751 q 629 538 629 644 l 629 0 l 607 0 l 596 89 q 486 40 593 88 q 260 -8 379 -8 m 265 25 q 389 44 315 25 q 521 84 463 64 q 596 111 579 104 l 596 392 l 288 382 q 151 335 193 379 q 108 218 108 290 l 108 182 q 156 63 108 100 q 265 25 203 25 m 360 867 q 434 910 411 882 q 457 969 457 938 q 374 1050 457 1050 q 321 1042 346 1050 l 321 1061 q 376 1069 344 1069 q 453 1042 428 1069 q 479 968 479 1015 q 449 897 479 931 q 360 847 419 864 l 360 867 z "},"ȃ":{"ha":750,"x_min":75,"x_max":629,"o":"m 260 -8 q 126 40 178 -8 q 75 175 75 89 l 75 218 q 132 361 75 308 q 296 414 189 414 l 596 414 l 596 538 q 548 674 596 626 q 381 721 500 721 l 144 721 l 144 743 l 183 744 q 388 751 318 751 q 572 698 515 751 q 629 538 629 644 l 629 0 l 607 0 l 596 89 q 486 40 593 88 q 260 -8 379 -8 m 265 25 q 389 44 315 25 q 521 84 463 64 q 596 111 579 104 l 596 392 l 288 382 q 151 335 193 379 q 108 218 108 290 l 108 182 q 156 63 108 100 q 265 25 203 25 m 368 1065 q 491 1022 442 1065 q 540 879 540 979 l 521 879 q 479 1005 521 964 q 372 1046 438 1046 q 255 1008 297 1046 q 213 879 213 969 l 193 879 q 243 1024 193 982 q 368 1065 293 1065 z "},"ā":{"ha":750,"x_min":75,"x_max":629,"o":"m 260 -8 q 126 40 178 -8 q 75 175 75 89 l 75 218 q 132 361 75 308 q 296 414 189 414 l 596 414 l 596 538 q 548 674 596 626 q 381 721 500 721 l 144 721 l 144 743 l 183 744 q 388 751 318 751 q 572 698 515 751 q 629 538 629 644 l 629 0 l 607 0 l 596 89 q 486 40 593 88 q 260 -8 379 -8 m 265 25 q 389 44 315 25 q 521 84 463 64 q 596 111 579 104 l 596 392 l 288 382 q 151 335 193 379 q 108 218 108 290 l 108 182 q 156 63 108 100 q 265 25 203 25 m 199 981 l 549 981 l 549 960 l 199 960 l 199 981 z "},"ą":{"ha":750,"x_min":75,"x_max":674,"o":"m 674 -232 l 674 -251 q 644 -253 663 -253 q 539 -220 579 -253 q 499 -132 499 -187 q 526 -60 499 -94 q 613 0 554 -26 l 607 0 l 596 89 q 486 40 593 88 q 260 -8 379 -8 q 126 40 178 -8 q 75 175 75 89 l 75 218 q 132 361 75 308 q 296 414 189 414 l 596 414 l 596 538 q 548 674 596 626 q 381 721 500 721 l 144 721 l 144 743 l 183 744 q 388 751 318 751 q 572 698 515 751 q 629 538 629 644 l 629 0 q 552 -58 579 -25 q 525 -126 525 -90 q 561 -205 525 -178 q 667 -232 597 -232 l 674 -232 m 596 392 l 288 382 q 151 335 193 379 q 108 218 108 290 l 108 182 q 156 63 108 100 q 265 25 203 25 q 389 44 315 25 q 521 84 463 64 q 596 111 579 104 l 596 392 z "},"å":{"ha":750,"x_min":75,"x_max":629,"o":"m 260 -8 q 126 40 178 -8 q 75 175 75 89 l 75 218 q 132 361 75 308 q 296 414 189 414 l 596 414 l 596 538 q 548 674 596 626 q 381 721 500 721 l 144 721 l 144 743 l 183 744 q 388 751 318 751 q 572 698 515 751 q 629 538 629 644 l 629 0 l 607 0 l 596 89 q 486 40 593 88 q 260 -8 379 -8 m 265 25 q 389 44 315 25 q 521 84 463 64 q 596 111 579 104 l 596 392 l 288 382 q 151 335 193 379 q 108 218 108 290 l 108 182 q 156 63 108 100 q 265 25 203 25 m 375 833 q 268 865 303 833 q 233 975 233 897 q 268 1085 233 1053 q 375 1118 303 1118 q 480 1085 446 1118 q 514 975 514 1053 q 480 865 514 897 q 375 833 446 833 m 375 856 q 465 881 438 856 q 492 975 492 907 q 465 1069 492 1043 q 375 1096 438 1096 q 284 1069 313 1096 q 256 975 256 1043 q 283 881 256 907 q 375 856 311 856 z "},"ǻ":{"ha":750,"x_min":75,"x_max":629,"o":"m 375 833 q 268 865 303 833 q 233 975 233 897 q 268 1085 233 1053 q 375 1118 303 1118 l 525 1283 l 561 1283 l 396 1118 q 485 1081 456 1114 q 514 975 514 1047 q 480 865 514 897 q 375 833 446 833 m 375 1096 q 284 1069 313 1096 q 256 975 256 1043 q 283 881 256 907 q 375 856 311 856 q 465 881 438 856 q 492 975 492 907 q 465 1069 492 1043 q 375 1096 438 1096 m 388 751 q 572 698 515 751 q 629 538 629 644 l 629 0 l 607 0 l 596 89 q 486 40 593 88 q 260 -8 379 -8 q 126 40 178 -8 q 75 175 75 89 l 75 218 q 132 361 75 308 q 296 414 189 414 l 596 414 l 596 538 q 548 674 596 626 q 381 721 500 721 l 144 721 l 144 743 l 183 744 q 388 751 318 751 m 596 392 l 288 382 q 151 335 193 379 q 108 218 108 290 l 108 182 q 156 63 108 100 q 265 25 203 25 q 389 44 315 25 q 521 84 463 64 q 596 111 579 104 l 596 392 z "},"ã":{"ha":750,"x_min":75,"x_max":635,"o":"m 260 -8 q 126 40 178 -8 q 75 175 75 89 l 75 218 q 132 361 75 308 q 296 414 189 414 l 596 414 l 596 538 q 548 674 596 626 q 381 721 500 721 l 144 721 l 144 743 l 183 744 q 388 751 318 751 q 572 698 515 751 q 629 538 629 644 l 629 0 l 607 0 l 596 89 q 486 40 593 88 q 260 -8 379 -8 m 265 25 q 389 44 315 25 q 521 84 463 64 q 596 111 579 104 l 596 392 l 288 382 q 151 335 193 379 q 108 218 108 290 l 108 182 q 156 63 108 100 q 265 25 203 25 m 163 918 q 199 1012 163 982 q 285 1042 236 1042 q 342 1028 314 1042 q 407 988 369 1014 q 465 952 442 964 q 511 940 488 940 q 585 967 556 940 q 615 1042 615 993 l 635 1042 q 601 952 635 986 q 508 918 567 918 q 454 931 481 918 q 394 969 428 944 q 334 1007 360 994 q 282 1019 308 1019 q 210 994 239 1019 q 182 918 182 969 l 163 918 z "},"æ":{"ha":1257,"x_min":75,"x_max":1160,"o":"m 260 -8 q 124 40 172 -8 q 75 181 75 89 l 75 215 q 132 353 75 304 q 288 403 189 403 l 596 403 l 596 538 q 548 670 596 619 q 388 721 500 721 l 144 721 l 144 743 q 393 751 269 751 q 541 712 479 751 q 622 593 603 672 q 709 713 644 679 q 878 746 774 746 q 1092 694 1024 746 q 1160 513 1160 642 q 1113 402 1160 432 q 969 372 1067 372 l 629 372 q 699 98 628 174 q 897 22 771 22 l 1143 22 l 1143 0 q 897 -8 1022 -8 q 721 39 779 -8 q 625 164 663 86 q 463 40 560 89 q 260 -8 367 -8 m 969 403 q 1054 410 1022 403 q 1106 440 1086 417 q 1126 513 1126 464 q 1104 631 1126 588 q 1028 695 1082 675 q 879 715 974 715 q 727 691 779 715 q 653 601 675 667 q 629 403 631 535 l 969 403 m 260 25 q 449 69 354 25 q 617 193 543 114 q 596 372 597 286 l 288 372 q 151 329 194 372 q 108 215 108 286 l 108 182 q 151 63 108 100 q 260 25 193 25 z "},"ǽ":{"ha":1257,"x_min":75,"x_max":1160,"o":"m 260 -8 q 124 40 172 -8 q 75 181 75 89 l 75 215 q 132 353 75 304 q 288 403 189 403 l 596 403 l 596 538 q 548 670 596 619 q 388 721 500 721 l 144 721 l 144 743 q 393 751 269 751 q 541 712 479 751 q 622 593 603 672 q 709 713 644 679 q 878 746 774 746 q 1092 694 1024 746 q 1160 513 1160 642 q 1113 402 1160 432 q 969 372 1067 372 l 629 372 q 699 98 628 174 q 897 22 771 22 l 1143 22 l 1143 0 q 897 -8 1022 -8 q 721 39 779 -8 q 625 164 663 86 q 463 40 560 89 q 260 -8 367 -8 m 969 403 q 1054 410 1022 403 q 1106 440 1086 417 q 1126 513 1126 464 q 1104 631 1126 588 q 1028 695 1082 675 q 879 715 974 715 q 727 691 779 715 q 653 601 675 667 q 629 403 631 535 l 969 403 m 260 25 q 449 69 354 25 q 617 193 543 114 q 596 372 597 286 l 288 372 q 151 329 194 372 q 108 215 108 286 l 108 182 q 151 63 108 100 q 260 25 193 25 m 757 1061 l 793 1061 l 608 876 l 589 876 l 757 1061 z "},"b":{"ha":794,"x_min":126,"x_max":697,"o":"m 431 -8 q 286 18 358 -8 q 160 79 214 44 l 149 0 l 126 0 l 126 1060 l 160 1060 l 160 658 q 299 721 224 696 q 431 746 374 746 q 630 658 563 746 q 697 365 697 571 q 633 92 697 192 q 431 -8 569 -8 m 431 22 q 606 112 547 22 q 664 365 664 201 q 636 579 664 503 q 558 685 608 656 q 431 715 507 715 q 299 697 357 715 q 160 636 242 678 l 160 101 q 294 43 232 64 q 431 22 357 22 z "},"ḃ":{"ha":794,"x_min":118,"x_max":697,"o":"m 431 -8 q 286 18 358 -8 q 160 79 214 44 l 149 0 l 126 0 l 126 1060 l 160 1060 l 160 658 q 299 721 224 696 q 431 746 374 746 q 630 658 563 746 q 697 365 697 571 q 633 92 697 192 q 431 -8 569 -8 m 431 22 q 606 112 547 22 q 664 365 664 201 q 636 579 664 503 q 558 685 608 656 q 431 715 507 715 q 299 697 357 715 q 160 636 242 678 l 160 101 q 294 43 232 64 q 431 22 357 22 m 135 1213 q 123 1217 128 1213 q 118 1229 118 1222 l 118 1315 q 135 1332 118 1332 l 150 1332 q 167 1315 167 1332 l 167 1229 q 150 1213 167 1213 l 135 1213 z "},"c":{"ha":681,"x_min":97,"x_max":625,"o":"m 381 -8 q 231 23 293 -8 q 133 138 169 54 q 97 369 97 221 q 132 600 97 518 q 228 713 167 682 q 381 744 290 744 q 614 736 507 744 l 614 714 l 381 714 q 244 685 299 714 q 160 580 190 657 q 131 364 131 503 q 197 97 131 171 q 381 22 263 22 l 625 22 l 625 0 q 582 -3 613 0 q 381 -8 471 -8 z "},"ć":{"ha":681,"x_min":97,"x_max":625,"o":"m 381 -8 q 231 23 293 -8 q 133 138 169 54 q 97 369 97 221 q 132 600 97 518 q 228 713 167 682 q 381 744 290 744 q 614 736 507 744 l 614 714 l 381 714 q 244 685 299 714 q 160 580 190 657 q 131 364 131 503 q 197 97 131 171 q 381 22 263 22 l 625 22 l 625 0 q 582 -3 613 0 q 381 -8 471 -8 m 510 1061 l 546 1061 l 361 876 l 342 876 l 510 1061 z "},"č":{"ha":681,"x_min":97,"x_max":625,"o":"m 381 -8 q 231 23 293 -8 q 133 138 169 54 q 97 369 97 221 q 132 600 97 518 q 228 713 167 682 q 381 744 290 744 q 614 736 507 744 l 614 714 l 381 714 q 244 685 299 714 q 160 580 190 657 q 131 364 131 503 q 197 97 131 171 q 381 22 263 22 l 625 22 l 625 0 q 582 -3 613 0 q 381 -8 471 -8 m 194 1057 l 219 1057 l 375 897 l 547 1057 l 572 1057 l 389 876 l 361 876 l 194 1057 z "},"ç":{"ha":681,"x_min":97,"x_max":625,"o":"m 376 -8 l 328 -81 q 410 -103 386 -82 q 435 -165 435 -125 q 403 -231 435 -208 q 313 -254 371 -254 l 285 -254 l 285 -240 l 321 -237 q 390 -217 367 -235 q 414 -162 414 -199 q 390 -112 414 -131 q 299 -94 365 -94 l 357 -8 q 165 80 233 -3 q 97 369 97 163 q 132 600 97 518 q 228 713 167 682 q 381 744 290 744 q 614 736 507 744 l 614 714 l 381 714 q 244 685 299 714 q 160 580 190 657 q 131 364 131 503 q 197 97 131 171 q 381 22 263 22 l 625 22 l 625 0 q 582 -3 613 0 q 381 -8 471 -8 l 376 -8 z "},"ḉ":{"ha":681,"x_min":97,"x_max":625,"o":"m 361 876 l 342 876 l 510 1061 l 546 1061 l 361 876 m 376 -8 l 328 -81 q 410 -103 386 -82 q 435 -165 435 -125 q 403 -231 435 -208 q 313 -254 371 -254 l 285 -254 l 285 -240 l 321 -237 q 390 -217 367 -235 q 414 -162 414 -199 q 390 -112 414 -131 q 299 -94 365 -94 l 357 -8 q 165 80 233 -3 q 97 369 97 163 q 132 600 97 518 q 228 713 167 682 q 381 744 290 744 q 614 736 507 744 l 614 714 l 381 714 q 244 685 299 714 q 160 580 190 657 q 131 364 131 503 q 197 97 131 171 q 381 22 263 22 l 625 22 l 625 0 q 582 -3 613 0 q 381 -8 471 -8 l 376 -8 z "},"ĉ":{"ha":681,"x_min":97,"x_max":625,"o":"m 381 -8 q 231 23 293 -8 q 133 138 169 54 q 97 369 97 221 q 132 600 97 518 q 228 713 167 682 q 381 744 290 744 q 614 736 507 744 l 614 714 l 381 714 q 244 685 299 714 q 160 580 190 657 q 131 364 131 503 q 197 97 131 171 q 381 22 263 22 l 625 22 l 625 0 q 582 -3 613 0 q 381 -8 471 -8 m 364 1057 l 392 1057 l 558 876 l 533 876 l 378 1036 l 206 876 l 181 876 l 364 1057 z "},"ċ":{"ha":681,"x_min":97,"x_max":625,"o":"m 381 -8 q 231 23 293 -8 q 133 138 169 54 q 97 369 97 221 q 132 600 97 518 q 228 713 167 682 q 381 744 290 744 q 614 736 507 744 l 614 714 l 381 714 q 244 685 299 714 q 160 580 190 657 q 131 364 131 503 q 197 97 131 171 q 381 22 263 22 l 625 22 l 625 0 q 582 -3 613 0 q 381 -8 471 -8 m 367 935 q 355 940 360 935 q 350 951 350 944 l 350 1038 q 367 1054 350 1054 l 382 1054 q 399 1038 399 1054 l 399 951 q 382 935 399 935 l 367 935 z "},"d":{"ha":789,"x_min":97,"x_max":668,"o":"m 364 -8 q 161 84 225 -8 q 97 365 97 176 q 126 586 97 503 q 217 708 156 669 q 378 746 278 746 q 635 696 493 746 l 635 1060 l 668 1060 l 668 0 l 646 0 l 635 79 q 517 22 606 51 q 364 -8 429 -8 m 364 22 q 500 43 438 22 q 635 101 563 64 l 635 674 q 495 706 544 697 q 378 715 446 715 q 234 682 288 715 q 156 572 181 649 q 131 365 131 496 q 185 105 131 188 q 364 22 240 22 z "},"ð":{"ha":803,"x_min":97,"x_max":711,"o":"m 706 369 l 706 368 l 706 367 l 706 367 q 670 132 706 214 q 569 21 635 50 q 400 -8 504 -8 q 231 21 296 -8 q 132 133 167 50 q 97 369 97 215 q 132 606 97 524 q 231 717 167 688 q 400 746 296 746 q 565 715 503 746 q 658 600 626 683 q 504 926 621 824 l 285 840 l 278 861 l 486 943 q 228 1040 389 1019 l 228 1068 q 514 954 408 1044 l 703 1029 l 711 1008 l 532 938 q 706 372 704 771 l 706 369 m 400 22 q 553 47 496 22 q 641 147 610 72 q 672 369 672 222 q 641 592 672 517 q 553 691 610 667 q 400 715 496 715 q 248 691 304 715 q 161 592 192 667 q 131 369 131 517 q 161 147 131 222 q 248 47 192 72 q 400 22 304 22 z "},"ď":{"ha":789,"x_min":97,"x_max":813,"o":"m 364 -8 q 161 84 225 -8 q 97 365 97 176 q 126 586 97 503 q 217 708 156 669 q 378 746 278 746 q 635 696 493 746 l 635 1060 l 668 1060 l 668 0 l 646 0 l 635 79 q 517 22 606 51 q 364 -8 429 -8 m 364 22 q 500 43 438 22 q 635 101 563 64 l 635 674 q 495 706 544 697 q 378 715 446 715 q 234 682 288 715 q 156 572 181 649 q 131 365 131 496 q 185 105 131 188 q 364 22 240 22 m 779 1008 l 779 1088 l 813 1088 l 813 1008 l 807 808 l 785 808 l 779 1008 z "},"đ":{"ha":789,"x_min":97,"x_max":775,"o":"m 775 889 l 668 889 l 668 0 l 646 0 l 635 79 q 517 22 606 51 q 364 -8 429 -8 q 161 84 225 -8 q 97 365 97 176 q 126 586 97 503 q 217 708 156 669 q 378 746 278 746 q 635 696 493 746 l 635 889 l 417 889 l 417 911 l 635 911 l 635 1060 l 668 1060 l 668 911 l 775 911 l 775 889 m 635 674 q 495 706 544 697 q 378 715 446 715 q 234 682 288 715 q 156 572 181 649 q 131 365 131 496 q 185 105 131 188 q 364 22 240 22 q 500 43 438 22 q 635 101 563 64 l 635 674 z "},"ḋ":{"ha":789,"x_min":97,"x_max":675,"o":"m 364 -8 q 161 84 225 -8 q 97 365 97 176 q 126 586 97 503 q 217 708 156 669 q 378 746 278 746 q 635 696 493 746 l 635 1060 l 668 1060 l 668 0 l 646 0 l 635 79 q 517 22 606 51 q 364 -8 429 -8 m 364 22 q 500 43 438 22 q 635 101 563 64 l 635 674 q 495 706 544 697 q 378 715 446 715 q 234 682 288 715 q 156 572 181 649 q 131 365 131 496 q 185 105 131 188 q 364 22 240 22 m 643 1213 q 631 1217 636 1213 q 626 1229 626 1222 l 626 1315 q 643 1332 626 1332 l 658 1332 q 675 1315 675 1332 l 675 1229 q 658 1213 675 1213 l 643 1213 z "},"ḍ":{"ha":789,"x_min":97,"x_max":668,"o":"m 364 -8 q 161 84 225 -8 q 97 365 97 176 q 126 586 97 503 q 217 708 156 669 q 378 746 278 746 q 635 696 493 746 l 635 1060 l 668 1060 l 668 0 l 646 0 l 635 79 q 517 22 606 51 q 364 -8 429 -8 m 364 22 q 500 43 438 22 q 635 101 563 64 l 635 674 q 495 706 544 697 q 378 715 446 715 q 234 682 288 715 q 156 572 181 649 q 131 365 131 496 q 185 105 131 188 q 364 22 240 22 m 392 -274 q 380 -269 385 -274 q 375 -257 375 -264 l 375 -171 q 392 -154 375 -154 l 407 -154 q 424 -171 424 -154 l 424 -257 q 407 -274 424 -274 l 392 -274 z "},"ḏ":{"ha":789,"x_min":97,"x_max":668,"o":"m 364 -8 q 161 84 225 -8 q 97 365 97 176 q 126 586 97 503 q 217 708 156 669 q 378 746 278 746 q 635 696 493 746 l 635 1060 l 668 1060 l 668 0 l 646 0 l 635 79 q 517 22 606 51 q 364 -8 429 -8 m 364 22 q 500 43 438 22 q 635 101 563 64 l 635 674 q 495 706 544 697 q 378 715 446 715 q 234 682 288 715 q 156 572 181 649 q 131 365 131 496 q 185 105 131 188 q 364 22 240 22 m 218 -214 l 568 -214 l 568 -235 l 218 -235 l 218 -214 z "},"e":{"ha":756,"x_min":97,"x_max":658,"o":"m 386 -8 q 211 28 274 -8 q 123 145 149 64 q 97 372 97 226 q 126 599 97 518 q 218 713 154 679 q 393 746 282 746 q 594 693 531 746 q 658 510 658 640 q 469 349 658 349 l 131 349 q 152 154 131 224 q 229 53 174 85 q 389 22 285 22 l 644 22 l 644 0 q 386 -8 533 -8 m 469 379 q 588 408 551 379 q 625 510 625 438 q 603 635 625 590 q 531 697 581 679 q 393 715 481 715 q 232 686 288 715 q 153 586 176 657 q 131 379 131 515 l 469 379 z "},"é":{"ha":756,"x_min":97,"x_max":658,"o":"m 386 -8 q 211 28 274 -8 q 123 145 149 64 q 97 372 97 226 q 126 599 97 518 q 218 713 154 679 q 393 746 282 746 q 594 693 531 746 q 658 510 658 640 q 469 349 658 349 l 131 349 q 152 154 131 224 q 229 53 174 85 q 389 22 285 22 l 644 22 l 644 0 q 386 -8 533 -8 m 469 379 q 588 408 551 379 q 625 510 625 438 q 603 635 625 590 q 531 697 581 679 q 393 715 481 715 q 232 686 288 715 q 153 586 176 657 q 131 379 131 515 l 469 379 m 510 1061 l 546 1061 l 361 876 l 342 876 l 510 1061 z "},"ĕ":{"ha":756,"x_min":97,"x_max":658,"o":"m 386 -8 q 211 28 274 -8 q 123 145 149 64 q 97 372 97 226 q 126 599 97 518 q 218 713 154 679 q 393 746 282 746 q 594 693 531 746 q 658 510 658 640 q 469 349 658 349 l 131 349 q 152 154 131 224 q 229 53 174 85 q 389 22 285 22 l 644 22 l 644 0 q 386 -8 533 -8 m 469 379 q 588 408 551 379 q 625 510 625 438 q 603 635 625 590 q 531 697 581 679 q 393 715 481 715 q 232 686 288 715 q 153 586 176 657 q 131 379 131 515 l 469 379 m 365 879 q 242 922 292 879 q 193 1065 193 965 l 213 1065 q 254 940 213 981 q 361 899 296 899 q 478 937 436 899 q 521 1065 521 975 l 540 1065 q 490 921 540 963 q 365 879 440 879 z "},"ě":{"ha":756,"x_min":97,"x_max":658,"o":"m 386 -8 q 211 28 274 -8 q 123 145 149 64 q 97 372 97 226 q 126 599 97 518 q 218 713 154 679 q 393 746 282 746 q 594 693 531 746 q 658 510 658 640 q 469 349 658 349 l 131 349 q 152 154 131 224 q 229 53 174 85 q 389 22 285 22 l 644 22 l 644 0 q 386 -8 533 -8 m 469 379 q 588 408 551 379 q 625 510 625 438 q 603 635 625 590 q 531 697 581 679 q 393 715 481 715 q 232 686 288 715 q 153 586 176 657 q 131 379 131 515 l 469 379 m 194 1057 l 219 1057 l 375 897 l 547 1057 l 572 1057 l 389 876 l 361 876 l 194 1057 z "},"ḝ":{"ha":756,"x_min":97,"x_max":658,"o":"m 365 879 q 242 922 292 879 q 193 1065 193 965 l 213 1065 q 254 940 213 981 q 361 899 296 899 q 478 937 436 899 q 521 1065 521 975 l 540 1065 q 490 921 540 963 q 365 879 440 879 m 131 349 q 152 154 131 224 q 229 53 174 85 q 389 22 285 22 l 644 22 l 644 0 q 386 -8 533 -8 l 376 -8 l 328 -81 q 410 -103 386 -82 q 435 -165 435 -125 q 403 -231 435 -208 q 313 -254 371 -254 l 285 -254 l 285 -240 l 321 -237 q 390 -217 367 -235 q 414 -162 414 -199 q 390 -112 414 -131 q 299 -94 365 -94 l 357 -8 q 200 34 256 -4 q 121 152 144 72 q 97 372 97 232 q 126 599 97 518 q 218 713 154 679 q 393 746 282 746 q 594 693 531 746 q 658 510 658 640 q 469 349 658 349 l 131 349 m 393 715 q 232 686 288 715 q 153 586 176 657 q 131 379 131 515 l 469 379 q 588 408 551 379 q 625 510 625 438 q 603 635 625 590 q 531 697 581 679 q 393 715 481 715 z "},"ê":{"ha":756,"x_min":97,"x_max":658,"o":"m 386 -8 q 211 28 274 -8 q 123 145 149 64 q 97 372 97 226 q 126 599 97 518 q 218 713 154 679 q 393 746 282 746 q 594 693 531 746 q 658 510 658 640 q 469 349 658 349 l 131 349 q 152 154 131 224 q 229 53 174 85 q 389 22 285 22 l 644 22 l 644 0 q 386 -8 533 -8 m 469 379 q 588 408 551 379 q 625 510 625 438 q 603 635 625 590 q 531 697 581 679 q 393 715 481 715 q 232 686 288 715 q 153 586 176 657 q 131 379 131 515 l 469 379 m 364 1057 l 392 1057 l 558 876 l 533 876 l 378 1036 l 206 876 l 181 876 l 364 1057 z "},"ế":{"ha":756,"x_min":97,"x_max":685,"o":"m 386 -8 q 211 28 274 -8 q 123 145 149 64 q 97 372 97 226 q 126 599 97 518 q 218 713 154 679 q 393 746 282 746 q 594 693 531 746 q 658 510 658 640 q 469 349 658 349 l 131 349 q 152 154 131 224 q 229 53 174 85 q 389 22 285 22 l 644 22 l 644 0 q 386 -8 533 -8 m 469 379 q 588 408 551 379 q 625 510 625 438 q 603 635 625 590 q 531 697 581 679 q 393 715 481 715 q 232 686 288 715 q 153 586 176 657 q 131 379 131 515 l 469 379 m 685 1158 l 500 974 l 481 974 l 649 1158 l 685 1158 m 392 1001 l 558 876 l 533 876 l 378 981 l 206 876 l 181 876 l 364 1001 l 392 1001 z "},"ệ":{"ha":756,"x_min":97,"x_max":658,"o":"m 386 -8 q 211 28 274 -8 q 123 145 149 64 q 97 372 97 226 q 126 599 97 518 q 218 713 154 679 q 393 746 282 746 q 594 693 531 746 q 658 510 658 640 q 469 349 658 349 l 131 349 q 152 154 131 224 q 229 53 174 85 q 389 22 285 22 l 644 22 l 644 0 q 386 -8 533 -8 m 469 379 q 588 408 551 379 q 625 510 625 438 q 603 635 625 590 q 531 697 581 679 q 393 715 481 715 q 232 686 288 715 q 153 586 176 657 q 131 379 131 515 l 469 379 m 364 1057 l 392 1057 l 558 876 l 533 876 l 378 1036 l 206 876 l 181 876 l 364 1057 m 364 -274 q 352 -269 357 -274 q 347 -257 347 -264 l 347 -171 q 364 -154 347 -154 l 379 -154 q 396 -171 396 -154 l 396 -257 q 379 -274 396 -274 l 364 -274 z "},"ề":{"ha":756,"x_min":64,"x_max":658,"o":"m 386 -8 q 211 28 274 -8 q 123 145 149 64 q 97 372 97 226 q 126 599 97 518 q 218 713 154 679 q 393 746 282 746 q 594 693 531 746 q 658 510 658 640 q 469 349 658 349 l 131 349 q 152 154 131 224 q 229 53 174 85 q 389 22 285 22 l 644 22 l 644 0 q 386 -8 533 -8 m 469 379 q 588 408 551 379 q 625 510 625 438 q 603 635 625 590 q 531 697 581 679 q 393 715 481 715 q 232 686 288 715 q 153 586 176 657 q 131 379 131 515 l 469 379 m 100 1158 l 268 974 l 249 974 l 64 1158 l 100 1158 m 392 1001 l 558 876 l 533 876 l 378 981 l 206 876 l 181 876 l 364 1001 l 392 1001 z "},"ể":{"ha":756,"x_min":97,"x_max":658,"o":"m 386 -8 q 211 28 274 -8 q 123 145 149 64 q 97 372 97 226 q 126 599 97 518 q 218 713 154 679 q 393 746 282 746 q 594 693 531 746 q 658 510 658 640 q 469 349 658 349 l 131 349 q 152 154 131 224 q 229 53 174 85 q 389 22 285 22 l 644 22 l 644 0 q 386 -8 533 -8 m 469 379 q 588 408 551 379 q 625 510 625 438 q 603 635 625 590 q 531 697 581 679 q 393 715 481 715 q 232 686 288 715 q 153 586 176 657 q 131 379 131 515 l 469 379 m 511 964 q 580 1002 558 979 q 601 1053 601 1025 q 525 1119 601 1119 q 472 1111 497 1119 l 472 1131 q 528 1139 496 1139 q 600 1115 576 1139 q 624 1051 624 1092 q 595 990 624 1019 q 511 944 567 960 l 511 964 m 364 1001 l 392 1001 l 558 876 l 533 876 l 378 981 l 206 876 l 181 876 l 364 1001 z "},"ễ":{"ha":756,"x_min":97,"x_max":658,"o":"m 386 -8 q 211 28 274 -8 q 123 145 149 64 q 97 372 97 226 q 126 599 97 518 q 218 713 154 679 q 393 746 282 746 q 594 693 531 746 q 658 510 658 640 q 469 349 658 349 l 131 349 q 152 154 131 224 q 229 53 174 85 q 389 22 285 22 l 644 22 l 644 0 q 386 -8 533 -8 m 469 379 q 588 408 551 379 q 625 510 625 438 q 603 635 625 590 q 531 697 581 679 q 393 715 481 715 q 232 686 288 715 q 153 586 176 657 q 131 379 131 515 l 469 379 m 263 1167 q 317 1158 292 1167 q 381 1129 343 1149 q 439 1102 415 1111 q 489 1093 463 1093 q 553 1113 528 1093 q 579 1167 579 1132 l 599 1167 q 569 1097 599 1124 q 486 1071 539 1071 q 435 1080 460 1071 q 376 1107 411 1089 q 311 1136 335 1128 q 260 1144 288 1144 q 199 1126 224 1144 q 174 1071 174 1108 l 154 1071 q 187 1144 154 1121 q 263 1167 219 1167 m 558 876 l 533 876 l 378 981 l 206 876 l 181 876 l 364 1001 l 392 1001 l 558 876 z "},"ȅ":{"ha":756,"x_min":97,"x_max":658,"o":"m 386 -8 q 211 28 274 -8 q 123 145 149 64 q 97 372 97 226 q 126 599 97 518 q 218 713 154 679 q 393 746 282 746 q 594 693 531 746 q 658 510 658 640 q 469 349 658 349 l 131 349 q 152 154 131 224 q 229 53 174 85 q 389 22 285 22 l 644 22 l 644 0 q 386 -8 533 -8 m 469 379 q 588 408 551 379 q 625 510 625 438 q 603 635 625 590 q 531 697 581 679 q 393 715 481 715 q 232 686 288 715 q 153 586 176 657 q 131 379 131 515 l 469 379 m 128 1061 l 164 1061 l 332 876 l 313 876 l 128 1061 m 294 1061 l 331 1061 l 499 876 l 479 876 l 294 1061 z "},"ë":{"ha":756,"x_min":97,"x_max":658,"o":"m 386 -8 q 211 28 274 -8 q 123 145 149 64 q 97 372 97 226 q 126 599 97 518 q 218 713 154 679 q 393 746 282 746 q 594 693 531 746 q 658 510 658 640 q 469 349 658 349 l 131 349 q 152 154 131 224 q 229 53 174 85 q 389 22 285 22 l 644 22 l 644 0 q 386 -8 533 -8 m 469 379 q 588 408 551 379 q 625 510 625 438 q 603 635 625 590 q 531 697 581 679 q 393 715 481 715 q 232 686 288 715 q 153 586 176 657 q 131 379 131 515 l 469 379 m 233 925 q 222 930 226 925 q 217 942 217 935 l 217 1028 q 233 1044 217 1044 l 249 1044 q 265 1028 265 1044 l 265 942 q 249 925 265 925 l 233 925 m 503 925 q 491 930 496 925 q 486 942 486 935 l 486 1028 q 503 1044 486 1044 l 518 1044 q 535 1028 535 1044 l 535 942 q 518 925 535 925 l 503 925 z "},"ė":{"ha":756,"x_min":97,"x_max":658,"o":"m 386 -8 q 211 28 274 -8 q 123 145 149 64 q 97 372 97 226 q 126 599 97 518 q 218 713 154 679 q 393 746 282 746 q 594 693 531 746 q 658 510 658 640 q 469 349 658 349 l 131 349 q 152 154 131 224 q 229 53 174 85 q 389 22 285 22 l 644 22 l 644 0 q 386 -8 533 -8 m 469 379 q 588 408 551 379 q 625 510 625 438 q 603 635 625 590 q 531 697 581 679 q 393 715 481 715 q 232 686 288 715 q 153 586 176 657 q 131 379 131 515 l 469 379 m 367 935 q 355 940 360 935 q 350 951 350 944 l 350 1038 q 367 1054 350 1054 l 382 1054 q 399 1038 399 1054 l 399 951 q 382 935 399 935 l 367 935 z "},"ẹ":{"ha":756,"x_min":97,"x_max":658,"o":"m 386 -8 q 211 28 274 -8 q 123 145 149 64 q 97 372 97 226 q 126 599 97 518 q 218 713 154 679 q 393 746 282 746 q 594 693 531 746 q 658 510 658 640 q 469 349 658 349 l 131 349 q 152 154 131 224 q 229 53 174 85 q 389 22 285 22 l 644 22 l 644 0 q 386 -8 533 -8 m 469 379 q 588 408 551 379 q 625 510 625 438 q 603 635 625 590 q 531 697 581 679 q 393 715 481 715 q 232 686 288 715 q 153 586 176 657 q 131 379 131 515 l 469 379 m 364 -274 q 352 -269 357 -274 q 347 -257 347 -264 l 347 -171 q 364 -154 347 -154 l 379 -154 q 396 -171 396 -154 l 396 -257 q 379 -274 396 -274 l 364 -274 z "},"è":{"ha":756,"x_min":97,"x_max":658,"o":"m 386 -8 q 211 28 274 -8 q 123 145 149 64 q 97 372 97 226 q 126 599 97 518 q 218 713 154 679 q 393 746 282 746 q 594 693 531 746 q 658 510 658 640 q 469 349 658 349 l 131 349 q 152 154 131 224 q 229 53 174 85 q 389 22 285 22 l 644 22 l 644 0 q 386 -8 533 -8 m 469 379 q 588 408 551 379 q 625 510 625 438 q 603 635 625 590 q 531 697 581 679 q 393 715 481 715 q 232 686 288 715 q 153 586 176 657 q 131 379 131 515 l 469 379 m 203 1061 l 239 1061 l 407 876 l 388 876 l 203 1061 z "},"ẻ":{"ha":756,"x_min":97,"x_max":658,"o":"m 386 -8 q 211 28 274 -8 q 123 145 149 64 q 97 372 97 226 q 126 599 97 518 q 218 713 154 679 q 393 746 282 746 q 594 693 531 746 q 658 510 658 640 q 469 349 658 349 l 131 349 q 152 154 131 224 q 229 53 174 85 q 389 22 285 22 l 644 22 l 644 0 q 386 -8 533 -8 m 469 379 q 588 408 551 379 q 625 510 625 438 q 603 635 625 590 q 531 697 581 679 q 393 715 481 715 q 232 686 288 715 q 153 586 176 657 q 131 379 131 515 l 469 379 m 360 867 q 434 910 411 882 q 457 969 457 938 q 374 1050 457 1050 q 321 1042 346 1050 l 321 1061 q 376 1069 344 1069 q 453 1042 428 1069 q 479 968 479 1015 q 449 897 479 931 q 360 847 419 864 l 360 867 z "},"ȇ":{"ha":756,"x_min":97,"x_max":658,"o":"m 386 -8 q 211 28 274 -8 q 123 145 149 64 q 97 372 97 226 q 126 599 97 518 q 218 713 154 679 q 393 746 282 746 q 594 693 531 746 q 658 510 658 640 q 469 349 658 349 l 131 349 q 152 154 131 224 q 229 53 174 85 q 389 22 285 22 l 644 22 l 644 0 q 386 -8 533 -8 m 469 379 q 588 408 551 379 q 625 510 625 438 q 603 635 625 590 q 531 697 581 679 q 393 715 481 715 q 232 686 288 715 q 153 586 176 657 q 131 379 131 515 l 469 379 m 368 1065 q 491 1022 442 1065 q 540 879 540 979 l 521 879 q 479 1005 521 964 q 372 1046 438 1046 q 255 1008 297 1046 q 213 879 213 969 l 193 879 q 243 1024 193 982 q 368 1065 293 1065 z "},"ē":{"ha":756,"x_min":97,"x_max":658,"o":"m 386 -8 q 211 28 274 -8 q 123 145 149 64 q 97 372 97 226 q 126 599 97 518 q 218 713 154 679 q 393 746 282 746 q 594 693 531 746 q 658 510 658 640 q 469 349 658 349 l 131 349 q 152 154 131 224 q 229 53 174 85 q 389 22 285 22 l 644 22 l 644 0 q 386 -8 533 -8 m 469 379 q 588 408 551 379 q 625 510 625 438 q 603 635 625 590 q 531 697 581 679 q 393 715 481 715 q 232 686 288 715 q 153 586 176 657 q 131 379 131 515 l 469 379 m 199 981 l 549 981 l 549 960 l 199 960 l 199 981 z "},"ḗ":{"ha":756,"x_min":97,"x_max":658,"o":"m 386 -8 q 211 28 274 -8 q 123 145 149 64 q 97 372 97 226 q 126 599 97 518 q 218 713 154 679 q 393 746 282 746 q 594 693 531 746 q 658 510 658 640 q 469 349 658 349 l 131 349 q 152 154 131 224 q 229 53 174 85 q 389 22 285 22 l 644 22 l 644 0 q 386 -8 533 -8 m 469 379 q 588 408 551 379 q 625 510 625 438 q 603 635 625 590 q 531 697 581 679 q 393 715 481 715 q 232 686 288 715 q 153 586 176 657 q 131 379 131 515 l 469 379 m 199 981 l 549 981 l 549 960 l 199 960 l 199 981 m 510 1228 l 546 1228 l 361 1043 l 342 1043 l 510 1228 z "},"ḕ":{"ha":756,"x_min":97,"x_max":658,"o":"m 386 -8 q 211 28 274 -8 q 123 145 149 64 q 97 372 97 226 q 126 599 97 518 q 218 713 154 679 q 393 746 282 746 q 594 693 531 746 q 658 510 658 640 q 469 349 658 349 l 131 349 q 152 154 131 224 q 229 53 174 85 q 389 22 285 22 l 644 22 l 644 0 q 386 -8 533 -8 m 469 379 q 588 408 551 379 q 625 510 625 438 q 603 635 625 590 q 531 697 581 679 q 393 715 481 715 q 232 686 288 715 q 153 586 176 657 q 131 379 131 515 l 469 379 m 199 981 l 549 981 l 549 960 l 199 960 l 199 981 m 203 1228 l 239 1228 l 407 1043 l 388 1043 l 203 1228 z "},"ę":{"ha":756,"x_min":97,"x_max":689,"o":"m 689 -200 l 689 -219 q 660 -221 678 -221 q 554 -188 594 -221 q 514 -100 514 -156 q 565 -4 514 -47 q 386 -8 507 -8 q 211 28 274 -8 q 123 145 149 64 q 97 372 97 226 q 126 599 97 518 q 218 713 154 679 q 393 746 282 746 q 594 693 531 746 q 658 510 658 640 q 469 349 658 349 l 131 349 q 152 154 131 224 q 229 53 174 85 q 389 22 285 22 l 607 22 l 628 32 l 644 32 q 634 26 639 29 q 626 22 629 24 l 644 22 l 644 0 l 589 -4 q 540 -94 540 -44 q 576 -173 540 -146 q 682 -200 613 -200 l 689 -200 m 393 715 q 232 686 288 715 q 153 586 176 657 q 131 379 131 515 l 469 379 q 588 408 551 379 q 625 510 625 438 q 603 635 625 590 q 531 697 581 679 q 393 715 481 715 z "},"ẽ":{"ha":756,"x_min":97,"x_max":658,"o":"m 386 -8 q 211 28 274 -8 q 123 145 149 64 q 97 372 97 226 q 126 599 97 518 q 218 713 154 679 q 393 746 282 746 q 594 693 531 746 q 658 510 658 640 q 469 349 658 349 l 131 349 q 152 154 131 224 q 229 53 174 85 q 389 22 285 22 l 644 22 l 644 0 q 386 -8 533 -8 m 469 379 q 588 408 551 379 q 625 510 625 438 q 603 635 625 590 q 531 697 581 679 q 393 715 481 715 q 232 686 288 715 q 153 586 176 657 q 131 379 131 515 l 469 379 m 163 918 q 199 1012 163 982 q 285 1042 236 1042 q 342 1028 314 1042 q 407 988 369 1014 q 465 952 442 964 q 511 940 488 940 q 585 967 556 940 q 615 1042 615 993 l 635 1042 q 601 952 635 986 q 508 918 567 918 q 454 931 481 918 q 394 969 428 944 q 334 1007 360 994 q 282 1019 308 1019 q 210 994 239 1019 q 182 918 182 969 l 163 918 z "},"ə":{"ha":756,"x_min":97,"x_max":658,"o":"m 369 746 q 544 710 482 746 q 633 592 607 674 q 658 365 658 511 q 630 139 658 219 q 538 25 601 58 q 363 -8 474 -8 q 161 44 225 -8 q 97 228 97 97 q 286 389 97 389 l 625 389 q 603 583 625 514 q 526 684 582 653 q 367 715 471 715 l 111 715 l 111 738 q 369 746 222 746 m 286 358 q 167 329 204 358 q 131 228 131 300 q 153 103 131 147 q 225 40 175 58 q 363 22 275 22 q 524 51 468 22 q 602 151 579 81 q 625 358 625 222 l 286 358 z "},"f":{"ha":483,"x_min":38,"x_max":476,"o":"m 158 707 l 38 707 l 38 729 l 158 738 l 158 851 q 197 1014 158 960 q 343 1068 236 1068 q 476 1060 401 1068 l 476 1038 l 344 1038 q 248 1017 281 1038 q 203 956 215 996 q 192 851 192 917 l 192 738 l 453 738 l 453 707 l 192 707 l 192 0 l 158 0 l 158 707 z "},"ḟ":{"ha":483,"x_min":38,"x_max":476,"o":"m 158 707 l 38 707 l 38 729 l 158 738 l 158 851 q 197 1014 158 960 q 343 1068 236 1068 q 476 1060 401 1068 l 476 1038 l 344 1038 q 248 1017 281 1038 q 203 956 215 996 q 192 851 192 917 l 192 738 l 453 738 l 453 707 l 192 707 l 192 0 l 158 0 l 158 707 m 339 1213 q 327 1217 332 1213 q 322 1229 322 1222 l 322 1315 q 339 1332 322 1332 l 354 1332 q 371 1315 371 1332 l 371 1229 q 354 1213 371 1213 l 339 1213 z "},"g":{"ha":793,"x_min":56,"x_max":758,"o":"m 515 90 q 700 43 642 90 q 758 -97 758 -4 l 758 -136 q 690 -285 758 -232 q 494 -337 621 -337 l 300 -337 q 121 -291 186 -337 q 56 -150 56 -244 l 56 -108 q 92 3 56 -42 q 188 69 129 49 q 135 106 154 81 q 115 168 115 132 q 147 249 115 221 q 243 289 179 276 q 131 375 164 317 q 99 506 99 433 q 172 685 99 629 q 365 740 244 740 l 757 740 l 757 718 l 547 710 q 608 673 582 693 q 653 608 633 653 q 674 492 674 564 q 613 334 674 400 q 417 268 553 268 l 310 268 q 189 245 229 268 q 149 168 149 222 q 176 110 149 129 q 238 90 203 90 l 515 90 m 132 506 q 183 349 132 399 q 328 299 235 299 l 414 299 q 640 492 640 299 q 584 658 640 607 q 432 710 528 710 l 351 710 q 189 662 246 710 q 132 506 132 614 m 728 -101 q 681 18 728 -24 q 515 60 633 60 l 290 60 q 147 18 207 60 q 86 -108 86 -24 l 86 -150 q 142 -271 86 -235 q 300 -307 197 -307 l 494 -307 q 667 -265 607 -307 q 728 -136 728 -222 l 728 -101 z "},"ğ":{"ha":793,"x_min":56,"x_max":758,"o":"m 515 90 q 700 43 642 90 q 758 -97 758 -4 l 758 -136 q 690 -285 758 -232 q 494 -337 621 -337 l 300 -337 q 121 -291 186 -337 q 56 -150 56 -244 l 56 -108 q 92 3 56 -42 q 188 69 129 49 q 135 106 154 81 q 115 168 115 132 q 147 249 115 221 q 243 289 179 276 q 131 375 164 317 q 99 506 99 433 q 172 685 99 629 q 365 740 244 740 l 757 740 l 757 718 l 547 710 q 608 673 582 693 q 653 608 633 653 q 674 492 674 564 q 613 334 674 400 q 417 268 553 268 l 310 268 q 189 245 229 268 q 149 168 149 222 q 176 110 149 129 q 238 90 203 90 l 515 90 m 132 506 q 183 349 132 399 q 328 299 235 299 l 414 299 q 640 492 640 299 q 584 658 640 607 q 432 710 528 710 l 351 710 q 189 662 246 710 q 132 506 132 614 m 728 -101 q 681 18 728 -24 q 515 60 633 60 l 290 60 q 147 18 207 60 q 86 -108 86 -24 l 86 -150 q 142 -271 86 -235 q 300 -307 197 -307 l 494 -307 q 667 -265 607 -307 q 728 -136 728 -222 l 728 -101 m 390 879 q 267 922 317 879 q 218 1065 218 965 l 238 1065 q 279 940 238 981 q 386 899 321 899 q 503 937 461 899 q 546 1065 546 975 l 565 1065 q 515 921 565 963 q 390 879 465 879 z "},"ǧ":{"ha":793,"x_min":56,"x_max":758,"o":"m 515 90 q 700 43 642 90 q 758 -97 758 -4 l 758 -136 q 690 -285 758 -232 q 494 -337 621 -337 l 300 -337 q 121 -291 186 -337 q 56 -150 56 -244 l 56 -108 q 92 3 56 -42 q 188 69 129 49 q 135 106 154 81 q 115 168 115 132 q 147 249 115 221 q 243 289 179 276 q 131 375 164 317 q 99 506 99 433 q 172 685 99 629 q 365 740 244 740 l 757 740 l 757 718 l 547 710 q 608 673 582 693 q 653 608 633 653 q 674 492 674 564 q 613 334 674 400 q 417 268 553 268 l 310 268 q 189 245 229 268 q 149 168 149 222 q 176 110 149 129 q 238 90 203 90 l 515 90 m 132 506 q 183 349 132 399 q 328 299 235 299 l 414 299 q 640 492 640 299 q 584 658 640 607 q 432 710 528 710 l 351 710 q 189 662 246 710 q 132 506 132 614 m 728 -101 q 681 18 728 -24 q 515 60 633 60 l 290 60 q 147 18 207 60 q 86 -108 86 -24 l 86 -150 q 142 -271 86 -235 q 300 -307 197 -307 l 494 -307 q 667 -265 607 -307 q 728 -136 728 -222 l 728 -101 m 219 1057 l 244 1057 l 400 897 l 572 1057 l 597 1057 l 414 876 l 386 876 l 219 1057 z "},"ĝ":{"ha":793,"x_min":56,"x_max":758,"o":"m 515 90 q 700 43 642 90 q 758 -97 758 -4 l 758 -136 q 690 -285 758 -232 q 494 -337 621 -337 l 300 -337 q 121 -291 186 -337 q 56 -150 56 -244 l 56 -108 q 92 3 56 -42 q 188 69 129 49 q 135 106 154 81 q 115 168 115 132 q 147 249 115 221 q 243 289 179 276 q 131 375 164 317 q 99 506 99 433 q 172 685 99 629 q 365 740 244 740 l 757 740 l 757 718 l 547 710 q 608 673 582 693 q 653 608 633 653 q 674 492 674 564 q 613 334 674 400 q 417 268 553 268 l 310 268 q 189 245 229 268 q 149 168 149 222 q 176 110 149 129 q 238 90 203 90 l 515 90 m 132 506 q 183 349 132 399 q 328 299 235 299 l 414 299 q 640 492 640 299 q 584 658 640 607 q 432 710 528 710 l 351 710 q 189 662 246 710 q 132 506 132 614 m 728 -101 q 681 18 728 -24 q 515 60 633 60 l 290 60 q 147 18 207 60 q 86 -108 86 -24 l 86 -150 q 142 -271 86 -235 q 300 -307 197 -307 l 494 -307 q 667 -265 607 -307 q 728 -136 728 -222 l 728 -101 m 389 1057 l 417 1057 l 583 876 l 558 876 l 403 1036 l 231 876 l 206 876 l 389 1057 z "},"ģ":{"ha":793,"x_min":56,"x_max":758,"o":"m 515 90 q 700 43 642 90 q 758 -97 758 -4 l 758 -136 q 690 -285 758 -232 q 494 -337 621 -337 l 300 -337 q 121 -291 186 -337 q 56 -150 56 -244 l 56 -108 q 92 3 56 -42 q 188 69 129 49 q 135 106 154 81 q 115 168 115 132 q 147 249 115 221 q 243 289 179 276 q 131 375 164 317 q 99 506 99 433 q 172 685 99 629 q 365 740 244 740 l 757 740 l 757 718 l 547 710 q 608 673 582 693 q 653 608 633 653 q 674 492 674 564 q 613 334 674 400 q 417 268 553 268 l 310 268 q 189 245 229 268 q 149 168 149 222 q 176 110 149 129 q 238 90 203 90 l 515 90 m 132 506 q 183 349 132 399 q 328 299 235 299 l 414 299 q 640 492 640 299 q 584 658 640 607 q 432 710 528 710 l 351 710 q 189 662 246 710 q 132 506 132 614 m 728 -101 q 681 18 728 -24 q 515 60 633 60 l 290 60 q 147 18 207 60 q 86 -108 86 -24 l 86 -150 q 142 -271 86 -235 q 300 -307 197 -307 l 494 -307 q 667 -265 607 -307 q 728 -136 728 -222 l 728 -101 m 343 846 q 355 959 343 919 q 397 1017 367 999 q 488 1035 428 1035 l 525 1035 l 525 1021 l 481 1017 q 414 1001 438 1013 q 378 953 390 989 q 367 846 365 918 l 343 846 z "},"ġ":{"ha":793,"x_min":56,"x_max":758,"o":"m 515 90 q 700 43 642 90 q 758 -97 758 -4 l 758 -136 q 690 -285 758 -232 q 494 -337 621 -337 l 300 -337 q 121 -291 186 -337 q 56 -150 56 -244 l 56 -108 q 92 3 56 -42 q 188 69 129 49 q 135 106 154 81 q 115 168 115 132 q 147 249 115 221 q 243 289 179 276 q 131 375 164 317 q 99 506 99 433 q 172 685 99 629 q 365 740 244 740 l 757 740 l 757 718 l 547 710 q 608 673 582 693 q 653 608 633 653 q 674 492 674 564 q 613 334 674 400 q 417 268 553 268 l 310 268 q 189 245 229 268 q 149 168 149 222 q 176 110 149 129 q 238 90 203 90 l 515 90 m 132 506 q 183 349 132 399 q 328 299 235 299 l 414 299 q 640 492 640 299 q 584 658 640 607 q 432 710 528 710 l 351 710 q 189 662 246 710 q 132 506 132 614 m 728 -101 q 681 18 728 -24 q 515 60 633 60 l 290 60 q 147 18 207 60 q 86 -108 86 -24 l 86 -150 q 142 -271 86 -235 q 300 -307 197 -307 l 494 -307 q 667 -265 607 -307 q 728 -136 728 -222 l 728 -101 m 392 935 q 380 940 385 935 q 375 951 375 944 l 375 1038 q 392 1054 375 1054 l 407 1054 q 424 1038 424 1054 l 424 951 q 407 935 424 935 l 392 935 z "},"ḡ":{"ha":793,"x_min":56,"x_max":758,"o":"m 515 90 q 700 43 642 90 q 758 -97 758 -4 l 758 -136 q 690 -285 758 -232 q 494 -337 621 -337 l 300 -337 q 121 -291 186 -337 q 56 -150 56 -244 l 56 -108 q 92 3 56 -42 q 188 69 129 49 q 135 106 154 81 q 115 168 115 132 q 147 249 115 221 q 243 289 179 276 q 131 375 164 317 q 99 506 99 433 q 172 685 99 629 q 365 740 244 740 l 757 740 l 757 718 l 547 710 q 608 673 582 693 q 653 608 633 653 q 674 492 674 564 q 613 334 674 400 q 417 268 553 268 l 310 268 q 189 245 229 268 q 149 168 149 222 q 176 110 149 129 q 238 90 203 90 l 515 90 m 132 506 q 183 349 132 399 q 328 299 235 299 l 414 299 q 640 492 640 299 q 584 658 640 607 q 432 710 528 710 l 351 710 q 189 662 246 710 q 132 506 132 614 m 728 -101 q 681 18 728 -24 q 515 60 633 60 l 290 60 q 147 18 207 60 q 86 -108 86 -24 l 86 -150 q 142 -271 86 -235 q 300 -307 197 -307 l 494 -307 q 667 -265 607 -307 q 728 -136 728 -222 l 728 -101 m 224 981 l 574 981 l 574 960 l 224 960 l 224 981 z "},"h":{"ha":808,"x_min":126,"x_max":688,"o":"m 126 1060 l 160 1060 l 160 651 q 303 723 226 696 q 460 750 381 750 q 582 717 531 750 q 660 631 633 685 q 688 514 688 576 l 688 0 l 654 0 l 654 514 q 601 660 654 601 q 460 719 549 719 q 311 699 375 719 q 160 632 247 679 l 160 0 l 126 0 l 126 1060 z "},"ħ":{"ha":808,"x_min":14,"x_max":688,"o":"m 460 750 q 582 717 531 750 q 660 631 633 685 q 688 514 688 576 l 688 0 l 654 0 l 654 514 q 601 660 654 601 q 460 719 549 719 q 311 699 375 719 q 160 632 247 679 l 160 0 l 126 0 l 126 889 l 14 889 l 14 911 l 126 911 l 126 1060 l 160 1060 l 160 911 l 372 911 l 372 889 l 160 889 l 160 651 q 303 723 226 696 q 460 750 381 750 z "},"ḫ":{"ha":808,"x_min":126,"x_max":688,"o":"m 126 1060 l 160 1060 l 160 651 q 303 723 226 696 q 460 750 381 750 q 582 717 531 750 q 660 631 633 685 q 688 514 688 576 l 688 0 l 654 0 l 654 514 q 601 660 654 601 q 460 719 549 719 q 311 699 375 719 q 160 632 247 679 l 160 0 l 126 0 l 126 1060 m 397 -301 q 274 -258 324 -301 q 225 -115 225 -215 l 244 -115 q 286 -241 244 -200 q 393 -282 328 -282 q 510 -244 468 -282 q 553 -115 553 -206 l 572 -115 q 522 -260 572 -218 q 397 -301 472 -301 z "},"ĥ":{"ha":808,"x_min":46,"x_max":688,"o":"m 126 1060 l 160 1060 l 160 651 q 303 723 226 696 q 460 750 381 750 q 582 717 531 750 q 660 631 633 685 q 688 514 688 576 l 688 0 l 654 0 l 654 514 q 601 660 654 601 q 460 719 549 719 q 311 699 375 719 q 160 632 247 679 l 160 0 l 126 0 l 126 1060 m 229 1293 l 257 1293 l 424 1113 l 399 1113 l 243 1272 l 71 1113 l 46 1113 l 229 1293 z "},"ḥ":{"ha":808,"x_min":126,"x_max":688,"o":"m 126 1060 l 160 1060 l 160 651 q 303 723 226 696 q 460 750 381 750 q 582 717 531 750 q 660 631 633 685 q 688 514 688 576 l 688 0 l 654 0 l 654 514 q 601 660 654 601 q 460 719 549 719 q 311 699 375 719 q 160 632 247 679 l 160 0 l 126 0 l 126 1060 m 396 -274 q 384 -269 389 -274 q 379 -257 379 -264 l 379 -171 q 396 -154 379 -154 l 411 -154 q 428 -171 428 -154 l 428 -257 q 411 -274 428 -274 l 396 -274 z "},"i":{"ha":286,"x_min":119,"x_max":167,"o":"m 136 889 q 124 894 129 889 q 119 906 119 899 l 119 992 q 136 1008 119 1008 l 151 1008 q 167 992 167 1008 l 167 906 q 151 889 167 889 l 136 889 m 126 738 l 160 738 l 160 0 l 126 0 l 126 738 z "},"ı":{"ha":281,"x_min":126,"x_max":160,"o":"m 126 738 l 160 738 l 160 0 l 126 0 l 126 738 z "},"í":{"ha":281,"x_min":110,"x_max":314,"o":"m 126 738 l 160 738 l 160 0 l 126 0 l 126 738 m 278 1061 l 314 1061 l 129 876 l 110 876 l 278 1061 z "},"ĭ":{"ha":281,"x_min":-39,"x_max":308,"o":"m 126 738 l 160 738 l 160 0 l 126 0 l 126 738 m 133 879 q 10 922 60 879 q -39 1065 -39 965 l -19 1065 q 22 940 -19 981 q 129 899 64 899 q 247 937 204 899 q 289 1065 289 975 l 308 1065 q 258 921 308 963 q 133 879 208 879 z "},"î":{"ha":281,"x_min":-51,"x_max":326,"o":"m 126 738 l 160 738 l 160 0 l 126 0 l 126 738 m 132 1057 l 160 1057 l 326 876 l 301 876 l 146 1036 l -26 876 l -51 876 l 132 1057 z "},"ȉ":{"ha":281,"x_min":-104,"x_max":267,"o":"m 126 738 l 160 738 l 160 0 l 126 0 l 126 738 m -104 1061 l -68 1061 l 100 876 l 81 876 l -104 1061 m 63 1061 l 99 1061 l 267 876 l 247 876 l 63 1061 z "},"ï":{"ha":281,"x_min":-15,"x_max":303,"o":"m 126 738 l 160 738 l 160 0 l 126 0 l 126 738 m 1 925 q -10 930 -6 925 q -15 942 -15 935 l -15 1028 q 1 1044 -15 1044 l 17 1044 q 33 1028 33 1044 l 33 942 q 17 925 33 925 l 1 925 m 271 925 q 259 930 264 925 q 254 942 254 935 l 254 1028 q 271 1044 254 1044 l 286 1044 q 303 1028 303 1044 l 303 942 q 286 925 303 925 l 271 925 z "},"ḯ":{"ha":281,"x_min":-15,"x_max":314,"o":"m 126 738 l 160 738 l 160 0 l 126 0 l 126 738 m 1 925 q -10 930 -6 925 q -15 942 -15 935 l -15 1028 q 1 1044 -15 1044 l 17 1044 q 33 1028 33 1044 l 33 942 q 17 925 33 925 l 1 925 m 271 925 q 259 930 264 925 q 254 942 254 935 l 254 1028 q 271 1044 254 1044 l 286 1044 q 303 1028 303 1044 l 303 942 q 286 925 303 925 l 271 925 m 278 1269 l 314 1269 l 129 1085 l 110 1085 l 278 1269 z "},"ị":{"ha":286,"x_min":115,"x_max":167,"o":"m 136 889 q 124 894 129 889 q 119 906 119 899 l 119 992 q 136 1008 119 1008 l 151 1008 q 167 992 167 1008 l 167 906 q 151 889 167 889 l 136 889 m 126 738 l 160 738 l 160 0 l 126 0 l 126 738 m 132 -274 q 120 -269 125 -274 q 115 -257 115 -264 l 115 -171 q 132 -154 115 -154 l 147 -154 q 164 -171 164 -154 l 164 -257 q 147 -274 164 -274 l 132 -274 z "},"ì":{"ha":281,"x_min":-29,"x_max":175,"o":"m 126 738 l 160 738 l 160 0 l 126 0 l 126 738 m -29 1061 l 7 1061 l 175 876 l 156 876 l -29 1061 z "},"ỉ":{"ha":281,"x_min":89,"x_max":247,"o":"m 126 738 l 160 738 l 160 0 l 126 0 l 126 738 m 128 867 q 202 910 179 882 q 225 969 225 938 q 142 1050 225 1050 q 89 1042 114 1050 l 89 1061 q 144 1069 113 1069 q 222 1042 196 1069 q 247 968 247 1015 q 217 897 247 931 q 128 847 188 864 l 128 867 z "},"ȋ":{"ha":281,"x_min":-39,"x_max":308,"o":"m 126 738 l 160 738 l 160 0 l 126 0 l 126 738 m 136 1065 q 259 1022 210 1065 q 308 879 308 979 l 289 879 q 247 1005 289 964 q 140 1046 206 1046 q 23 1008 65 1046 q -19 879 -19 969 l -39 879 q 11 1024 -39 982 q 136 1065 61 1065 z "},"ī":{"ha":281,"x_min":-33,"x_max":317,"o":"m 126 738 l 160 738 l 160 0 l 126 0 l 126 738 m -33 981 l 317 981 l 317 960 l -33 960 l -33 981 z "},"į":{"ha":286,"x_min":29,"x_max":204,"o":"m 136 889 q 124 894 129 889 q 119 906 119 899 l 119 992 q 136 1008 119 1008 l 151 1008 q 167 992 167 1008 l 167 906 q 151 889 167 889 l 136 889 m 126 738 l 160 738 l 160 0 l 126 0 l 126 738 m 175 -253 q 69 -220 110 -253 q 29 -132 29 -187 q 57 -60 29 -94 q 143 0 85 -26 l 160 0 q 83 -58 110 -25 q 56 -126 56 -90 q 92 -205 56 -178 q 197 -232 128 -232 l 204 -232 l 204 -251 q 175 -253 193 -253 z "},"ĩ":{"ha":281,"x_min":-69,"x_max":403,"o":"m 126 738 l 160 738 l 160 0 l 126 0 l 126 738 m -69 918 q -33 1012 -69 982 q 53 1042 4 1042 q 110 1028 82 1042 q 175 988 138 1014 q 233 952 210 964 q 279 940 256 940 q 353 967 324 940 q 383 1042 383 993 l 403 1042 q 369 952 403 986 q 276 918 335 918 q 222 931 249 918 q 163 969 196 944 q 102 1007 128 994 q 50 1019 76 1019 q -22 994 7 1019 q -50 918 -50 969 l -69 918 z "},"j":{"ha":286,"x_min":119,"x_max":167,"o":"m 136 889 q 124 894 129 889 q 119 906 119 899 l 119 992 q 136 1008 119 1008 l 151 1008 q 167 992 167 1008 l 167 906 q 151 889 167 889 l 136 889 m 126 738 l 160 738 l 160 38 q 149 -329 160 -100 l 126 -329 l 126 738 z "},"ȷ":{"ha":286,"x_min":126,"x_max":160,"o":"m 126 738 l 160 738 l 160 38 q 149 -329 160 -100 l 126 -329 l 126 738 z "},"ĵ":{"ha":286,"x_min":-51,"x_max":326,"o":"m 126 738 l 160 738 l 160 38 q 149 -329 160 -100 l 126 -329 l 126 738 m 132 1057 l 160 1057 l 326 876 l 301 876 l 146 1036 l -26 876 l -51 876 l 132 1057 z "},"k":{"ha":650,"x_min":126,"x_max":611,"o":"m 126 1060 l 160 1060 l 160 414 l 281 414 l 557 738 l 599 738 l 304 397 l 611 0 l 568 0 l 275 383 l 160 383 l 160 0 l 126 0 l 126 1060 z "},"ķ":{"ha":650,"x_min":126,"x_max":611,"o":"m 126 1060 l 160 1060 l 160 414 l 281 414 l 557 738 l 599 738 l 304 397 l 611 0 l 568 0 l 275 383 l 160 383 l 160 0 l 126 0 l 126 1060 m 222 -251 l 267 -247 q 333 -231 310 -243 q 369 -184 357 -219 q 381 -76 382 -149 l 404 -76 q 392 -190 404 -150 q 350 -247 381 -229 q 260 -265 319 -265 l 222 -265 l 222 -251 z "},"ĸ":{"ha":650,"x_min":126,"x_max":611,"o":"m 126 751 l 160 751 l 160 414 l 281 414 l 557 738 l 599 738 l 304 397 l 611 0 l 568 0 l 275 383 l 160 383 l 160 0 l 126 0 l 126 751 z "},"l":{"ha":386,"x_min":126,"x_max":374,"o":"m 290 0 q 167 51 207 0 q 126 235 126 103 l 126 1060 l 160 1060 l 160 235 q 174 112 160 154 q 215 53 189 69 q 285 32 242 36 l 374 22 l 374 0 l 290 0 z "},"ĺ":{"ha":386,"x_min":110,"x_max":374,"o":"m 290 0 q 167 51 207 0 q 126 235 126 103 l 126 1060 l 160 1060 l 160 235 q 174 112 160 154 q 215 53 189 69 q 285 32 242 36 l 374 22 l 374 0 l 290 0 m 278 1408 l 314 1408 l 129 1224 l 110 1224 l 278 1408 z "},"ľ":{"ha":386,"x_min":126,"x_max":374,"o":"m 290 0 q 167 51 207 0 q 126 235 126 103 l 126 1060 l 160 1060 l 160 235 q 174 112 160 154 q 215 53 189 69 q 285 32 242 36 l 374 22 l 374 0 l 290 0 m 271 1008 l 271 1088 l 304 1088 l 304 1008 l 299 808 l 276 808 l 271 1008 z "},"ļ":{"ha":386,"x_min":97,"x_max":374,"o":"m 290 0 q 167 51 207 0 q 126 235 126 103 l 126 1060 l 160 1060 l 160 235 q 174 112 160 154 q 215 53 189 69 q 285 32 242 36 l 374 22 l 374 0 l 290 0 m 97 -251 l 142 -247 q 208 -231 185 -243 q 244 -184 232 -219 q 256 -76 257 -149 l 279 -76 q 267 -190 279 -150 q 225 -247 256 -229 q 135 -265 194 -265 l 97 -265 l 97 -251 z "},"ŀ":{"ha":386,"x_min":126,"x_max":374,"o":"m 290 0 q 167 51 207 0 q 126 235 126 103 l 126 1060 l 160 1060 l 160 235 q 174 112 160 154 q 215 53 189 69 q 285 32 242 36 l 374 22 l 374 0 l 290 0 m 329 506 q 317 510 322 506 q 313 522 313 515 l 313 539 q 329 556 313 556 l 344 556 q 361 539 361 556 l 361 522 q 344 506 361 506 l 329 506 z "},"ḷ":{"ha":386,"x_min":126,"x_max":374,"o":"m 290 0 q 167 51 207 0 q 126 235 126 103 l 126 1060 l 160 1060 l 160 235 q 174 112 160 154 q 215 53 189 69 q 285 32 242 36 l 374 22 l 374 0 l 290 0 m 197 -274 q 185 -269 190 -274 q 181 -257 181 -264 l 181 -171 q 197 -154 181 -154 l 213 -154 q 229 -171 229 -154 l 229 -257 q 213 -274 229 -274 l 197 -274 z "},"ḻ":{"ha":386,"x_min":24,"x_max":374,"o":"m 290 0 q 167 51 207 0 q 126 235 126 103 l 126 1060 l 160 1060 l 160 235 q 174 112 160 154 q 215 53 189 69 q 285 32 242 36 l 374 22 l 374 0 l 290 0 m 24 -214 l 374 -214 l 374 -235 l 24 -235 l 24 -214 z "},"ł":{"ha":386,"x_min":13,"x_max":374,"o":"m 374 22 l 374 0 l 290 0 q 167 51 207 0 q 126 235 126 103 l 126 554 l 13 515 l 13 544 l 126 583 l 126 1060 l 160 1060 l 160 594 l 318 646 l 318 617 l 160 565 l 160 235 q 174 112 160 154 q 215 53 189 69 q 285 32 242 36 l 374 22 z "},"m":{"ha":1336,"x_min":126,"x_max":1215,"o":"m 126 738 l 146 738 l 160 651 q 303 723 226 696 q 460 750 381 750 q 579 719 528 750 q 658 636 631 689 q 812 715 717 681 q 986 750 907 750 q 1109 717 1057 750 q 1188 631 1161 685 q 1215 514 1215 576 l 1215 0 l 1182 0 l 1182 514 q 1129 660 1182 600 q 986 719 1076 719 q 828 692 911 719 q 665 619 746 665 q 688 514 688 567 l 688 0 l 654 0 l 654 514 q 601 660 654 601 q 460 719 549 719 q 311 699 375 719 q 160 632 247 679 l 160 0 l 126 0 l 126 738 z "},"ṁ":{"ha":1336,"x_min":126,"x_max":1215,"o":"m 126 738 l 146 738 l 160 651 q 303 723 226 696 q 460 750 381 750 q 579 719 528 750 q 658 636 631 689 q 812 715 717 681 q 986 750 907 750 q 1109 717 1057 750 q 1188 631 1161 685 q 1215 514 1215 576 l 1215 0 l 1182 0 l 1182 514 q 1129 660 1182 600 q 986 719 1076 719 q 828 692 911 719 q 665 619 746 665 q 688 514 688 567 l 688 0 l 654 0 l 654 514 q 601 660 654 601 q 460 719 549 719 q 311 699 375 719 q 160 632 247 679 l 160 0 l 126 0 l 126 738 m 658 935 q 647 940 651 935 q 642 951 642 944 l 642 1038 q 658 1054 642 1054 l 674 1054 q 690 1038 690 1054 l 690 951 q 674 935 690 935 l 658 935 z "},"ṃ":{"ha":1336,"x_min":126,"x_max":1215,"o":"m 126 738 l 146 738 l 160 651 q 303 723 226 696 q 460 750 381 750 q 579 719 528 750 q 658 636 631 689 q 812 715 717 681 q 986 750 907 750 q 1109 717 1057 750 q 1188 631 1161 685 q 1215 514 1215 576 l 1215 0 l 1182 0 l 1182 514 q 1129 660 1182 600 q 986 719 1076 719 q 828 692 911 719 q 665 619 746 665 q 688 514 688 567 l 688 0 l 654 0 l 654 514 q 601 660 654 601 q 460 719 549 719 q 311 699 375 719 q 160 632 247 679 l 160 0 l 126 0 l 126 738 m 656 -274 q 644 -269 649 -274 q 639 -257 639 -264 l 639 -171 q 656 -154 639 -154 l 671 -154 q 688 -171 688 -154 l 688 -257 q 671 -274 688 -274 l 656 -274 z "},"n":{"ha":808,"x_min":126,"x_max":688,"o":"m 126 738 l 146 738 l 160 651 q 303 723 226 696 q 460 750 381 750 q 582 717 531 750 q 660 631 633 685 q 688 514 688 576 l 688 0 l 654 0 l 654 514 q 601 660 654 601 q 460 719 549 719 q 311 699 375 719 q 160 632 247 679 l 160 0 l 126 0 l 126 738 z "},"ń":{"ha":808,"x_min":126,"x_max":688,"o":"m 126 738 l 146 738 l 160 651 q 303 723 226 696 q 460 750 381 750 q 582 717 531 750 q 660 631 633 685 q 688 514 688 576 l 688 0 l 654 0 l 654 514 q 601 660 654 601 q 460 719 549 719 q 311 699 375 719 q 160 632 247 679 l 160 0 l 126 0 l 126 738 m 538 1061 l 574 1061 l 389 876 l 369 876 l 538 1061 z "},"ň":{"ha":808,"x_min":126,"x_max":688,"o":"m 126 738 l 146 738 l 160 651 q 303 723 226 696 q 460 750 381 750 q 582 717 531 750 q 660 631 633 685 q 688 514 688 576 l 688 0 l 654 0 l 654 514 q 601 660 654 601 q 460 719 549 719 q 311 699 375 719 q 160 632 247 679 l 160 0 l 126 0 l 126 738 m 222 1057 l 247 1057 l 403 897 l 575 1057 l 600 1057 l 417 876 l 389 876 l 222 1057 z "},"ņ":{"ha":808,"x_min":126,"x_max":688,"o":"m 126 738 l 146 738 l 160 651 q 303 723 226 696 q 460 750 381 750 q 582 717 531 750 q 660 631 633 685 q 688 514 688 576 l 688 0 l 654 0 l 654 514 q 601 660 654 601 q 460 719 549 719 q 311 699 375 719 q 160 632 247 679 l 160 0 l 126 0 l 126 738 m 292 -251 l 336 -247 q 403 -231 379 -243 q 439 -184 426 -219 q 450 -76 451 -149 l 474 -76 q 462 -190 474 -150 q 419 -247 450 -229 q 329 -265 389 -265 l 292 -265 l 292 -251 z "},"ṅ":{"ha":808,"x_min":126,"x_max":688,"o":"m 126 738 l 146 738 l 160 651 q 303 723 226 696 q 460 750 381 750 q 582 717 531 750 q 660 631 633 685 q 688 514 688 576 l 688 0 l 654 0 l 654 514 q 601 660 654 601 q 460 719 549 719 q 311 699 375 719 q 160 632 247 679 l 160 0 l 126 0 l 126 738 m 392 -274 q 380 -269 385 -274 q 375 -257 375 -264 l 375 -171 q 392 -154 375 -154 l 407 -154 q 424 -171 424 -154 l 424 -257 q 407 -274 424 -274 l 392 -274 z "},"ṇ":{"ha":808,"x_min":126,"x_max":688,"o":"m 126 738 l 146 738 l 160 651 q 303 723 226 696 q 460 750 381 750 q 582 717 531 750 q 660 631 633 685 q 688 514 688 576 l 688 0 l 654 0 l 654 514 q 601 660 654 601 q 460 719 549 719 q 311 699 375 719 q 160 632 247 679 l 160 0 l 126 0 l 126 738 m 392 -274 q 380 -269 385 -274 q 375 -257 375 -264 l 375 -171 q 392 -154 375 -154 l 407 -154 q 424 -171 424 -154 l 424 -257 q 407 -274 424 -274 l 392 -274 z "},"ŋ":{"ha":808,"x_min":126,"x_max":688,"o":"m 460 750 q 582 717 531 750 q 660 631 633 685 q 688 514 688 576 l 688 0 q 630 -202 682 -124 q 490 -329 578 -281 l 460 -329 q 605 -179 556 -264 q 654 28 654 -94 l 654 514 q 601 660 654 601 q 460 719 549 719 q 311 699 375 719 q 160 632 247 679 l 160 0 l 126 0 l 126 738 l 146 738 l 160 651 q 303 723 226 696 q 460 750 381 750 z "},"ṉ":{"ha":808,"x_min":126,"x_max":688,"o":"m 126 738 l 146 738 l 160 651 q 303 723 226 696 q 460 750 381 750 q 582 717 531 750 q 660 631 633 685 q 688 514 688 576 l 688 0 l 654 0 l 654 514 q 601 660 654 601 q 460 719 549 719 q 311 699 375 719 q 160 632 247 679 l 160 0 l 126 0 l 126 738 m 218 -214 l 568 -214 l 568 -235 l 218 -235 l 218 -214 z "},"ñ":{"ha":808,"x_min":126,"x_max":688,"o":"m 126 738 l 146 738 l 160 651 q 303 723 226 696 q 460 750 381 750 q 582 717 531 750 q 660 631 633 685 q 688 514 688 576 l 688 0 l 654 0 l 654 514 q 601 660 654 601 q 460 719 549 719 q 311 699 375 719 q 160 632 247 679 l 160 0 l 126 0 l 126 738 m 190 918 q 227 1012 190 982 q 313 1042 264 1042 q 369 1028 342 1042 q 435 988 397 1014 q 492 952 469 964 q 539 940 515 940 q 613 967 583 940 q 643 1042 643 993 l 663 1042 q 628 952 663 986 q 536 918 594 918 q 482 931 508 918 q 422 969 456 944 q 362 1007 388 994 q 310 1019 336 1019 q 238 994 267 1019 q 210 918 210 969 l 190 918 z "},"o":{"ha":803,"x_min":97,"x_max":706,"o":"m 400 -8 q 231 21 296 -8 q 132 133 167 50 q 97 369 97 215 q 132 606 97 524 q 231 717 167 688 q 400 746 296 746 q 569 717 504 746 q 670 606 635 688 q 706 369 706 524 q 670 133 706 215 q 569 21 635 50 q 400 -8 504 -8 m 400 22 q 553 47 496 22 q 641 147 610 72 q 672 369 672 222 q 641 592 672 517 q 553 691 610 667 q 400 715 496 715 q 248 691 304 715 q 161 592 192 667 q 131 369 131 517 q 161 147 131 222 q 248 47 192 72 q 400 22 304 22 z "},"ó":{"ha":803,"x_min":97,"x_max":706,"o":"m 400 -8 q 231 21 296 -8 q 132 133 167 50 q 97 369 97 215 q 132 606 97 524 q 231 717 167 688 q 400 746 296 746 q 569 717 504 746 q 670 606 635 688 q 706 369 706 524 q 670 133 706 215 q 569 21 635 50 q 400 -8 504 -8 m 400 22 q 553 47 496 22 q 641 147 610 72 q 672 369 672 222 q 641 592 672 517 q 553 691 610 667 q 400 715 496 715 q 248 691 304 715 q 161 592 192 667 q 131 369 131 517 q 161 147 131 222 q 248 47 192 72 q 400 22 304 22 m 535 1061 l 571 1061 l 386 876 l 367 876 l 535 1061 z "},"ŏ":{"ha":803,"x_min":97,"x_max":706,"o":"m 400 -8 q 231 21 296 -8 q 132 133 167 50 q 97 369 97 215 q 132 606 97 524 q 231 717 167 688 q 400 746 296 746 q 569 717 504 746 q 670 606 635 688 q 706 369 706 524 q 670 133 706 215 q 569 21 635 50 q 400 -8 504 -8 m 400 22 q 553 47 496 22 q 641 147 610 72 q 672 369 672 222 q 641 592 672 517 q 553 691 610 667 q 400 715 496 715 q 248 691 304 715 q 161 592 192 667 q 131 369 131 517 q 161 147 131 222 q 248 47 192 72 q 400 22 304 22 m 390 879 q 267 922 317 879 q 218 1065 218 965 l 238 1065 q 279 940 238 981 q 386 899 321 899 q 503 937 461 899 q 546 1065 546 975 l 565 1065 q 515 921 565 963 q 390 879 465 879 z "},"ô":{"ha":803,"x_min":97,"x_max":706,"o":"m 400 -8 q 231 21 296 -8 q 132 133 167 50 q 97 369 97 215 q 132 606 97 524 q 231 717 167 688 q 400 746 296 746 q 569 717 504 746 q 670 606 635 688 q 706 369 706 524 q 670 133 706 215 q 569 21 635 50 q 400 -8 504 -8 m 400 22 q 553 47 496 22 q 641 147 610 72 q 672 369 672 222 q 641 592 672 517 q 553 691 610 667 q 400 715 496 715 q 248 691 304 715 q 161 592 192 667 q 131 369 131 517 q 161 147 131 222 q 248 47 192 72 q 400 22 304 22 m 389 1057 l 417 1057 l 583 876 l 558 876 l 403 1036 l 231 876 l 206 876 l 389 1057 z "},"ố":{"ha":803,"x_min":97,"x_max":710,"o":"m 400 -8 q 231 21 296 -8 q 132 133 167 50 q 97 369 97 215 q 132 606 97 524 q 231 717 167 688 q 400 746 296 746 q 569 717 504 746 q 670 606 635 688 q 706 369 706 524 q 670 133 706 215 q 569 21 635 50 q 400 -8 504 -8 m 400 22 q 553 47 496 22 q 641 147 610 72 q 672 369 672 222 q 641 592 672 517 q 553 691 610 667 q 400 715 496 715 q 248 691 304 715 q 161 592 192 667 q 131 369 131 517 q 161 147 131 222 q 248 47 192 72 q 400 22 304 22 m 710 1158 l 525 974 l 506 974 l 674 1158 l 710 1158 m 417 1001 l 583 876 l 558 876 l 403 981 l 231 876 l 206 876 l 389 1001 l 417 1001 z "},"ộ":{"ha":803,"x_min":97,"x_max":706,"o":"m 400 -8 q 231 21 296 -8 q 132 133 167 50 q 97 369 97 215 q 132 606 97 524 q 231 717 167 688 q 400 746 296 746 q 569 717 504 746 q 670 606 635 688 q 706 369 706 524 q 670 133 706 215 q 569 21 635 50 q 400 -8 504 -8 m 400 22 q 553 47 496 22 q 641 147 610 72 q 672 369 672 222 q 641 592 672 517 q 553 691 610 667 q 400 715 496 715 q 248 691 304 715 q 161 592 192 667 q 131 369 131 517 q 161 147 131 222 q 248 47 192 72 q 400 22 304 22 m 389 1057 l 417 1057 l 583 876 l 558 876 l 403 1036 l 231 876 l 206 876 l 389 1057 m 389 -274 q 377 -269 382 -274 q 372 -257 372 -264 l 372 -171 q 389 -154 372 -154 l 404 -154 q 421 -171 421 -154 l 421 -257 q 404 -274 421 -274 l 389 -274 z "},"ồ":{"ha":803,"x_min":89,"x_max":706,"o":"m 400 -8 q 231 21 296 -8 q 132 133 167 50 q 97 369 97 215 q 132 606 97 524 q 231 717 167 688 q 400 746 296 746 q 569 717 504 746 q 670 606 635 688 q 706 369 706 524 q 670 133 706 215 q 569 21 635 50 q 400 -8 504 -8 m 400 22 q 553 47 496 22 q 641 147 610 72 q 672 369 672 222 q 641 592 672 517 q 553 691 610 667 q 400 715 496 715 q 248 691 304 715 q 161 592 192 667 q 131 369 131 517 q 161 147 131 222 q 248 47 192 72 q 400 22 304 22 m 125 1158 l 293 974 l 274 974 l 89 1158 l 125 1158 m 417 1001 l 583 876 l 558 876 l 403 981 l 231 876 l 206 876 l 389 1001 l 417 1001 z "},"ổ":{"ha":803,"x_min":97,"x_max":706,"o":"m 400 -8 q 231 21 296 -8 q 132 133 167 50 q 97 369 97 215 q 132 606 97 524 q 231 717 167 688 q 400 746 296 746 q 569 717 504 746 q 670 606 635 688 q 706 369 706 524 q 670 133 706 215 q 569 21 635 50 q 400 -8 504 -8 m 400 22 q 553 47 496 22 q 641 147 610 72 q 672 369 672 222 q 641 592 672 517 q 553 691 610 667 q 400 715 496 715 q 248 691 304 715 q 161 592 192 667 q 131 369 131 517 q 161 147 131 222 q 248 47 192 72 q 400 22 304 22 m 536 964 q 605 1002 583 979 q 626 1053 626 1025 q 550 1119 626 1119 q 497 1111 522 1119 l 497 1131 q 553 1139 521 1139 q 625 1115 601 1139 q 649 1051 649 1092 q 620 990 649 1019 q 536 944 592 960 l 536 964 m 389 1001 l 417 1001 l 583 876 l 558 876 l 403 981 l 231 876 l 206 876 l 389 1001 z "},"ỗ":{"ha":803,"x_min":97,"x_max":706,"o":"m 400 -8 q 231 21 296 -8 q 132 133 167 50 q 97 369 97 215 q 132 606 97 524 q 231 717 167 688 q 400 746 296 746 q 569 717 504 746 q 670 606 635 688 q 706 369 706 524 q 670 133 706 215 q 569 21 635 50 q 400 -8 504 -8 m 400 22 q 553 47 496 22 q 641 147 610 72 q 672 369 672 222 q 641 592 672 517 q 553 691 610 667 q 400 715 496 715 q 248 691 304 715 q 161 592 192 667 q 131 369 131 517 q 161 147 131 222 q 248 47 192 72 q 400 22 304 22 m 288 1167 q 342 1158 317 1167 q 406 1129 368 1149 q 464 1102 440 1111 q 514 1093 488 1093 q 578 1113 553 1093 q 604 1167 604 1132 l 624 1167 q 594 1097 624 1124 q 511 1071 564 1071 q 460 1080 485 1071 q 401 1107 436 1089 q 336 1136 360 1128 q 285 1144 313 1144 q 224 1126 249 1144 q 199 1071 199 1108 l 179 1071 q 212 1144 179 1121 q 288 1167 244 1167 m 583 876 l 558 876 l 403 981 l 231 876 l 206 876 l 389 1001 l 417 1001 l 583 876 z "},"ȍ":{"ha":803,"x_min":97,"x_max":706,"o":"m 400 -8 q 231 21 296 -8 q 132 133 167 50 q 97 369 97 215 q 132 606 97 524 q 231 717 167 688 q 400 746 296 746 q 569 717 504 746 q 670 606 635 688 q 706 369 706 524 q 670 133 706 215 q 569 21 635 50 q 400 -8 504 -8 m 400 22 q 553 47 496 22 q 641 147 610 72 q 672 369 672 222 q 641 592 672 517 q 553 691 610 667 q 400 715 496 715 q 248 691 304 715 q 161 592 192 667 q 131 369 131 517 q 161 147 131 222 q 248 47 192 72 q 400 22 304 22 m 153 1061 l 189 1061 l 357 876 l 338 876 l 153 1061 m 319 1061 l 356 1061 l 524 876 l 504 876 l 319 1061 z "},"ö":{"ha":803,"x_min":97,"x_max":706,"o":"m 400 -8 q 231 21 296 -8 q 132 133 167 50 q 97 369 97 215 q 132 606 97 524 q 231 717 167 688 q 400 746 296 746 q 569 717 504 746 q 670 606 635 688 q 706 369 706 524 q 670 133 706 215 q 569 21 635 50 q 400 -8 504 -8 m 400 22 q 553 47 496 22 q 641 147 610 72 q 672 369 672 222 q 641 592 672 517 q 553 691 610 667 q 400 715 496 715 q 248 691 304 715 q 161 592 192 667 q 131 369 131 517 q 161 147 131 222 q 248 47 192 72 q 400 22 304 22 m 258 925 q 247 930 251 925 q 242 942 242 935 l 242 1028 q 258 1044 242 1044 l 274 1044 q 290 1028 290 1044 l 290 942 q 274 925 290 925 l 258 925 m 528 925 q 516 930 521 925 q 511 942 511 935 l 511 1028 q 528 1044 511 1044 l 543 1044 q 560 1028 560 1044 l 560 942 q 543 925 560 925 l 528 925 z "},"ȫ":{"ha":803,"x_min":97,"x_max":706,"o":"m 400 -8 q 231 21 296 -8 q 132 133 167 50 q 97 369 97 215 q 132 606 97 524 q 231 717 167 688 q 400 746 296 746 q 569 717 504 746 q 670 606 635 688 q 706 369 706 524 q 670 133 706 215 q 569 21 635 50 q 400 -8 504 -8 m 400 22 q 553 47 496 22 q 641 147 610 72 q 672 369 672 222 q 641 592 672 517 q 553 691 610 667 q 400 715 496 715 q 248 691 304 715 q 161 592 192 667 q 131 369 131 517 q 161 147 131 222 q 248 47 192 72 q 400 22 304 22 m 258 925 q 247 930 251 925 q 242 942 242 935 l 242 1028 q 258 1044 242 1044 l 274 1044 q 290 1028 290 1044 l 290 942 q 274 925 290 925 l 258 925 m 528 925 q 516 930 521 925 q 511 942 511 935 l 511 1028 q 528 1044 511 1044 l 543 1044 q 560 1028 560 1044 l 560 942 q 543 925 560 925 l 528 925 m 224 1189 l 574 1189 l 574 1168 l 224 1168 l 224 1189 z "},"ȱ":{"ha":803,"x_min":97,"x_max":706,"o":"m 400 -8 q 231 21 296 -8 q 132 133 167 50 q 97 369 97 215 q 132 606 97 524 q 231 717 167 688 q 400 746 296 746 q 569 717 504 746 q 670 606 635 688 q 706 369 706 524 q 670 133 706 215 q 569 21 635 50 q 400 -8 504 -8 m 400 22 q 553 47 496 22 q 641 147 610 72 q 672 369 672 222 q 641 592 672 517 q 553 691 610 667 q 400 715 496 715 q 248 691 304 715 q 161 592 192 667 q 131 369 131 517 q 161 147 131 222 q 248 47 192 72 q 400 22 304 22 m 392 935 q 380 940 385 935 q 375 951 375 944 l 375 1038 q 392 1054 375 1054 l 407 1054 q 424 1038 424 1054 l 424 951 q 407 935 424 935 l 392 935 m 224 1175 l 574 1175 l 574 1154 l 224 1154 l 224 1175 z "},"ọ":{"ha":803,"x_min":97,"x_max":706,"o":"m 400 -8 q 231 21 296 -8 q 132 133 167 50 q 97 369 97 215 q 132 606 97 524 q 231 717 167 688 q 400 746 296 746 q 569 717 504 746 q 670 606 635 688 q 706 369 706 524 q 670 133 706 215 q 569 21 635 50 q 400 -8 504 -8 m 400 22 q 553 47 496 22 q 641 147 610 72 q 672 369 672 222 q 641 592 672 517 q 553 691 610 667 q 400 715 496 715 q 248 691 304 715 q 161 592 192 667 q 131 369 131 517 q 161 147 131 222 q 248 47 192 72 q 400 22 304 22 m 389 -274 q 377 -269 382 -274 q 372 -257 372 -264 l 372 -171 q 389 -154 372 -154 l 404 -154 q 421 -171 421 -154 l 421 -257 q 404 -274 421 -274 l 389 -274 z "},"ò":{"ha":803,"x_min":97,"x_max":706,"o":"m 400 -8 q 231 21 296 -8 q 132 133 167 50 q 97 369 97 215 q 132 606 97 524 q 231 717 167 688 q 400 746 296 746 q 569 717 504 746 q 670 606 635 688 q 706 369 706 524 q 670 133 706 215 q 569 21 635 50 q 400 -8 504 -8 m 400 22 q 553 47 496 22 q 641 147 610 72 q 672 369 672 222 q 641 592 672 517 q 553 691 610 667 q 400 715 496 715 q 248 691 304 715 q 161 592 192 667 q 131 369 131 517 q 161 147 131 222 q 248 47 192 72 q 400 22 304 22 m 228 1061 l 264 1061 l 432 876 l 413 876 l 228 1061 z "},"ỏ":{"ha":803,"x_min":97,"x_max":706,"o":"m 400 -8 q 231 21 296 -8 q 132 133 167 50 q 97 369 97 215 q 132 606 97 524 q 231 717 167 688 q 400 746 296 746 q 569 717 504 746 q 670 606 635 688 q 706 369 706 524 q 670 133 706 215 q 569 21 635 50 q 400 -8 504 -8 m 400 22 q 553 47 496 22 q 641 147 610 72 q 672 369 672 222 q 641 592 672 517 q 553 691 610 667 q 400 715 496 715 q 248 691 304 715 q 161 592 192 667 q 131 369 131 517 q 161 147 131 222 q 248 47 192 72 q 400 22 304 22 m 385 867 q 459 910 436 882 q 482 969 482 938 q 399 1050 482 1050 q 346 1042 371 1050 l 346 1061 q 401 1069 369 1069 q 478 1042 453 1069 q 504 968 504 1015 q 474 897 504 931 q 385 847 444 864 l 385 867 z "},"ơ":{"ha":803,"x_min":97,"x_max":751,"o":"m 572 715 q 672 601 639 682 q 706 369 706 519 q 670 133 706 215 q 569 21 635 50 q 400 -8 504 -8 q 231 21 296 -8 q 132 133 167 50 q 97 369 97 215 q 132 606 97 524 q 231 717 167 688 q 400 746 296 746 q 504 738 457 746 l 604 738 q 721 899 721 738 l 751 899 q 709 756 751 796 q 604 715 667 715 l 572 715 m 400 22 q 553 47 496 22 q 641 147 610 72 q 672 369 672 222 q 641 592 672 517 q 553 691 610 667 q 400 715 496 715 q 248 691 304 715 q 161 592 192 667 q 131 369 131 517 q 161 147 131 222 q 248 47 192 72 q 400 22 304 22 z "},"ớ":{"ha":803,"x_min":97,"x_max":751,"o":"m 572 715 q 672 601 639 682 q 706 369 706 519 q 670 133 706 215 q 569 21 635 50 q 400 -8 504 -8 q 231 21 296 -8 q 132 133 167 50 q 97 369 97 215 q 132 606 97 524 q 231 717 167 688 q 400 746 296 746 q 504 738 457 746 l 604 738 q 721 899 721 738 l 751 899 q 709 756 751 796 q 604 715 667 715 l 572 715 m 400 22 q 553 47 496 22 q 641 147 610 72 q 672 369 672 222 q 641 592 672 517 q 553 691 610 667 q 400 715 496 715 q 248 691 304 715 q 161 592 192 667 q 131 369 131 517 q 161 147 131 222 q 248 47 192 72 q 400 22 304 22 m 567 1061 l 603 1061 l 418 876 l 399 876 l 567 1061 z "},"ợ":{"ha":803,"x_min":97,"x_max":751,"o":"m 572 715 q 672 601 639 682 q 706 369 706 519 q 670 133 706 215 q 569 21 635 50 q 400 -8 504 -8 q 231 21 296 -8 q 132 133 167 50 q 97 369 97 215 q 132 606 97 524 q 231 717 167 688 q 400 746 296 746 q 504 738 457 746 l 604 738 q 721 899 721 738 l 751 899 q 709 756 751 796 q 604 715 667 715 l 572 715 m 400 22 q 553 47 496 22 q 641 147 610 72 q 672 369 672 222 q 641 592 672 517 q 553 691 610 667 q 400 715 496 715 q 248 691 304 715 q 161 592 192 667 q 131 369 131 517 q 161 147 131 222 q 248 47 192 72 q 400 22 304 22 m 407 -274 q 395 -269 400 -274 q 390 -257 390 -264 l 390 -171 q 407 -154 390 -154 l 422 -154 q 439 -171 439 -154 l 439 -257 q 422 -274 439 -274 l 407 -274 z "},"ờ":{"ha":803,"x_min":97,"x_max":751,"o":"m 572 715 q 672 601 639 682 q 706 369 706 519 q 670 133 706 215 q 569 21 635 50 q 400 -8 504 -8 q 231 21 296 -8 q 132 133 167 50 q 97 369 97 215 q 132 606 97 524 q 231 717 167 688 q 400 746 296 746 q 504 738 457 746 l 604 738 q 721 899 721 738 l 751 899 q 709 756 751 796 q 604 715 667 715 l 572 715 m 400 22 q 553 47 496 22 q 641 147 610 72 q 672 369 672 222 q 641 592 672 517 q 553 691 610 667 q 400 715 496 715 q 248 691 304 715 q 161 592 192 667 q 131 369 131 517 q 161 147 131 222 q 248 47 192 72 q 400 22 304 22 m 232 1061 l 268 1061 l 436 876 l 417 876 l 232 1061 z "},"ở":{"ha":803,"x_min":97,"x_max":751,"o":"m 572 715 q 672 601 639 682 q 706 369 706 519 q 670 133 706 215 q 569 21 635 50 q 400 -8 504 -8 q 231 21 296 -8 q 132 133 167 50 q 97 369 97 215 q 132 606 97 524 q 231 717 167 688 q 400 746 296 746 q 504 738 457 746 l 604 738 q 721 899 721 738 l 751 899 q 709 756 751 796 q 604 715 667 715 l 572 715 m 400 22 q 553 47 496 22 q 641 147 610 72 q 672 369 672 222 q 641 592 672 517 q 553 691 610 667 q 400 715 496 715 q 248 691 304 715 q 161 592 192 667 q 131 369 131 517 q 161 147 131 222 q 248 47 192 72 q 400 22 304 22 m 388 867 q 462 910 439 882 q 485 969 485 938 q 401 1050 485 1050 q 349 1042 374 1050 l 349 1061 q 404 1069 372 1069 q 481 1042 456 1069 q 507 968 507 1015 q 477 897 507 931 q 388 847 447 864 l 388 867 z "},"ỡ":{"ha":803,"x_min":97,"x_max":751,"o":"m 572 715 q 672 601 639 682 q 706 369 706 519 q 670 133 706 215 q 569 21 635 50 q 400 -8 504 -8 q 231 21 296 -8 q 132 133 167 50 q 97 369 97 215 q 132 606 97 524 q 231 717 167 688 q 400 746 296 746 q 504 738 457 746 l 604 738 q 721 899 721 738 l 751 899 q 709 756 751 796 q 604 715 667 715 l 572 715 m 400 22 q 553 47 496 22 q 641 147 610 72 q 672 369 672 222 q 641 592 672 517 q 553 691 610 667 q 400 715 496 715 q 248 691 304 715 q 161 592 192 667 q 131 369 131 517 q 161 147 131 222 q 248 47 192 72 q 400 22 304 22 m 169 918 q 206 1012 169 982 q 292 1042 243 1042 q 349 1028 321 1042 q 414 988 376 1014 q 472 952 449 964 q 518 940 494 940 q 592 967 563 940 q 622 1042 622 993 l 642 1042 q 608 952 642 986 q 515 918 574 918 q 461 931 488 918 q 401 969 435 944 q 341 1007 367 994 q 289 1019 315 1019 q 217 994 246 1019 q 189 918 189 969 l 169 918 z "},"ő":{"ha":803,"x_min":97,"x_max":706,"o":"m 400 -8 q 231 21 296 -8 q 132 133 167 50 q 97 369 97 215 q 132 606 97 524 q 231 717 167 688 q 400 746 296 746 q 569 717 504 746 q 670 606 635 688 q 706 369 706 524 q 670 133 706 215 q 569 21 635 50 q 400 -8 504 -8 m 400 22 q 553 47 496 22 q 641 147 610 72 q 672 369 672 222 q 641 592 672 517 q 553 691 610 667 q 400 715 496 715 q 248 691 304 715 q 161 592 192 667 q 131 369 131 517 q 161 147 131 222 q 248 47 192 72 q 400 22 304 22 m 424 1061 l 460 1061 l 275 876 l 256 876 l 424 1061 m 617 1061 l 653 1061 l 468 876 l 449 876 l 617 1061 z "},"ȏ":{"ha":803,"x_min":97,"x_max":706,"o":"m 400 -8 q 231 21 296 -8 q 132 133 167 50 q 97 369 97 215 q 132 606 97 524 q 231 717 167 688 q 400 746 296 746 q 569 717 504 746 q 670 606 635 688 q 706 369 706 524 q 670 133 706 215 q 569 21 635 50 q 400 -8 504 -8 m 400 22 q 553 47 496 22 q 641 147 610 72 q 672 369 672 222 q 641 592 672 517 q 553 691 610 667 q 400 715 496 715 q 248 691 304 715 q 161 592 192 667 q 131 369 131 517 q 161 147 131 222 q 248 47 192 72 q 400 22 304 22 m 393 1065 q 516 1022 467 1065 q 565 879 565 979 l 546 879 q 504 1005 546 964 q 397 1046 463 1046 q 280 1008 322 1046 q 238 879 238 969 l 218 879 q 268 1024 218 982 q 393 1065 318 1065 z "},"ō":{"ha":803,"x_min":97,"x_max":706,"o":"m 400 -8 q 231 21 296 -8 q 132 133 167 50 q 97 369 97 215 q 132 606 97 524 q 231 717 167 688 q 400 746 296 746 q 569 717 504 746 q 670 606 635 688 q 706 369 706 524 q 670 133 706 215 q 569 21 635 50 q 400 -8 504 -8 m 400 22 q 553 47 496 22 q 641 147 610 72 q 672 369 672 222 q 641 592 672 517 q 553 691 610 667 q 400 715 496 715 q 248 691 304 715 q 161 592 192 667 q 131 369 131 517 q 161 147 131 222 q 248 47 192 72 q 400 22 304 22 m 224 981 l 574 981 l 574 960 l 224 960 l 224 981 z "},"ṓ":{"ha":803,"x_min":97,"x_max":706,"o":"m 400 -8 q 231 21 296 -8 q 132 133 167 50 q 97 369 97 215 q 132 606 97 524 q 231 717 167 688 q 400 746 296 746 q 569 717 504 746 q 670 606 635 688 q 706 369 706 524 q 670 133 706 215 q 569 21 635 50 q 400 -8 504 -8 m 400 22 q 553 47 496 22 q 641 147 610 72 q 672 369 672 222 q 641 592 672 517 q 553 691 610 667 q 400 715 496 715 q 248 691 304 715 q 161 592 192 667 q 131 369 131 517 q 161 147 131 222 q 248 47 192 72 q 400 22 304 22 m 224 981 l 574 981 l 574 960 l 224 960 l 224 981 m 535 1228 l 571 1228 l 386 1043 l 367 1043 l 535 1228 z "},"ṑ":{"ha":803,"x_min":97,"x_max":706,"o":"m 400 -8 q 231 21 296 -8 q 132 133 167 50 q 97 369 97 215 q 132 606 97 524 q 231 717 167 688 q 400 746 296 746 q 569 717 504 746 q 670 606 635 688 q 706 369 706 524 q 670 133 706 215 q 569 21 635 50 q 400 -8 504 -8 m 400 22 q 553 47 496 22 q 641 147 610 72 q 672 369 672 222 q 641 592 672 517 q 553 691 610 667 q 400 715 496 715 q 248 691 304 715 q 161 592 192 667 q 131 369 131 517 q 161 147 131 222 q 248 47 192 72 q 400 22 304 22 m 224 981 l 574 981 l 574 960 l 224 960 l 224 981 m 228 1228 l 264 1228 l 432 1043 l 413 1043 l 228 1228 z "},"ǫ":{"ha":803,"x_min":97,"x_max":706,"o":"m 449 -7 q 381 -62 404 -31 q 357 -126 357 -93 q 393 -205 357 -178 q 499 -232 429 -232 l 506 -232 l 506 -251 q 476 -253 494 -253 q 371 -220 411 -253 q 331 -132 331 -187 q 354 -65 331 -97 q 428 -8 378 -33 l 400 -8 q 231 21 296 -8 q 132 133 167 50 q 97 369 97 215 q 132 606 97 524 q 231 717 167 688 q 400 746 296 746 q 569 717 504 746 q 670 606 635 688 q 706 369 706 524 q 676 147 706 228 q 590 33 646 67 q 449 -7 535 -1 m 131 369 q 161 147 131 222 q 248 47 192 72 q 400 22 304 22 q 553 47 496 22 q 641 147 610 72 q 672 369 672 222 q 641 592 672 517 q 553 691 610 667 q 400 715 496 715 q 248 691 304 715 q 161 592 192 667 q 131 369 131 517 z "},"ø":{"ha":803,"x_min":97,"x_max":706,"o":"m 642 657 q 706 369 706 569 q 670 133 706 215 q 569 21 635 50 q 400 -8 504 -8 q 267 8 322 -8 q 176 63 213 24 l 128 0 l 97 0 l 161 81 q 97 369 97 168 q 132 606 97 524 q 231 717 167 688 q 400 746 296 746 q 533 730 478 746 q 626 675 589 714 l 675 738 l 706 738 l 642 657 m 131 369 q 181 107 131 188 l 607 650 q 524 701 574 688 q 400 715 474 715 q 248 691 304 715 q 161 592 192 667 q 131 369 131 517 m 672 369 q 621 631 672 551 l 196 88 q 277 36 228 50 q 400 22 326 22 q 553 47 496 22 q 641 147 610 72 q 672 369 672 222 z "},"ǿ":{"ha":803,"x_min":97,"x_max":706,"o":"m 642 657 q 706 369 706 569 q 670 133 706 215 q 569 21 635 50 q 400 -8 504 -8 q 267 8 322 -8 q 176 63 213 24 l 128 0 l 97 0 l 161 81 q 97 369 97 168 q 132 606 97 524 q 231 717 167 688 q 400 746 296 746 q 533 730 478 746 q 626 675 589 714 l 675 738 l 706 738 l 642 657 m 131 369 q 181 107 131 188 l 607 650 q 524 701 574 688 q 400 715 474 715 q 248 691 304 715 q 161 592 192 667 q 131 369 131 517 m 672 369 q 621 631 672 551 l 196 88 q 277 36 228 50 q 400 22 326 22 q 553 47 496 22 q 641 147 610 72 q 672 369 672 222 m 535 1061 l 571 1061 l 386 876 l 367 876 l 535 1061 z "},"õ":{"ha":803,"x_min":97,"x_max":706,"o":"m 400 -8 q 231 21 296 -8 q 132 133 167 50 q 97 369 97 215 q 132 606 97 524 q 231 717 167 688 q 400 746 296 746 q 569 717 504 746 q 670 606 635 688 q 706 369 706 524 q 670 133 706 215 q 569 21 635 50 q 400 -8 504 -8 m 400 22 q 553 47 496 22 q 641 147 610 72 q 672 369 672 222 q 641 592 672 517 q 553 691 610 667 q 400 715 496 715 q 248 691 304 715 q 161 592 192 667 q 131 369 131 517 q 161 147 131 222 q 248 47 192 72 q 400 22 304 22 m 188 918 q 224 1012 188 982 q 310 1042 261 1042 q 367 1028 339 1042 q 432 988 394 1014 q 490 952 467 964 q 536 940 513 940 q 610 967 581 940 q 640 1042 640 993 l 660 1042 q 626 952 660 986 q 533 918 592 918 q 479 931 506 918 q 419 969 453 944 q 359 1007 385 994 q 307 1019 333 1019 q 235 994 264 1019 q 207 918 207 969 l 188 918 z "},"ṍ":{"ha":803,"x_min":97,"x_max":706,"o":"m 400 -8 q 231 21 296 -8 q 132 133 167 50 q 97 369 97 215 q 132 606 97 524 q 231 717 167 688 q 400 746 296 746 q 569 717 504 746 q 670 606 635 688 q 706 369 706 524 q 670 133 706 215 q 569 21 635 50 q 400 -8 504 -8 m 400 22 q 553 47 496 22 q 641 147 610 72 q 672 369 672 222 q 641 592 672 517 q 553 691 610 667 q 400 715 496 715 q 248 691 304 715 q 161 592 192 667 q 131 369 131 517 q 161 147 131 222 q 248 47 192 72 q 400 22 304 22 m 188 918 q 224 1012 188 982 q 310 1042 261 1042 q 367 1028 339 1042 q 432 988 394 1014 q 490 952 467 964 q 536 940 513 940 q 610 967 581 940 q 640 1042 640 993 l 660 1042 q 626 952 660 986 q 533 918 592 918 q 479 931 506 918 q 419 969 453 944 q 359 1007 385 994 q 307 1019 333 1019 q 235 994 264 1019 q 207 918 207 969 l 188 918 m 535 1269 l 571 1269 l 386 1085 l 367 1085 l 535 1269 z "},"ṏ":{"ha":803,"x_min":97,"x_max":706,"o":"m 400 -8 q 231 21 296 -8 q 132 133 167 50 q 97 369 97 215 q 132 606 97 524 q 231 717 167 688 q 400 746 296 746 q 569 717 504 746 q 670 606 635 688 q 706 369 706 524 q 670 133 706 215 q 569 21 635 50 q 400 -8 504 -8 m 400 22 q 553 47 496 22 q 641 147 610 72 q 672 369 672 222 q 641 592 672 517 q 553 691 610 667 q 400 715 496 715 q 248 691 304 715 q 161 592 192 667 q 131 369 131 517 q 161 147 131 222 q 248 47 192 72 q 400 22 304 22 m 188 918 q 224 1012 188 982 q 310 1042 261 1042 q 367 1028 339 1042 q 432 988 394 1014 q 490 952 467 964 q 536 940 513 940 q 610 967 581 940 q 640 1042 640 993 l 660 1042 q 626 952 660 986 q 533 918 592 918 q 479 931 506 918 q 419 969 453 944 q 359 1007 385 994 q 307 1019 333 1019 q 235 994 264 1019 q 207 918 207 969 l 188 918 m 272 1133 q 260 1138 265 1133 q 256 1150 256 1143 l 256 1236 q 272 1253 256 1253 l 288 1253 q 304 1236 304 1253 l 304 1150 q 288 1133 304 1133 l 272 1133 m 542 1133 q 530 1138 535 1133 q 525 1150 525 1143 l 525 1236 q 542 1253 525 1253 l 557 1253 q 574 1236 574 1253 l 574 1150 q 557 1133 574 1133 l 542 1133 z "},"ȭ":{"ha":803,"x_min":97,"x_max":706,"o":"m 400 -8 q 231 21 296 -8 q 132 133 167 50 q 97 369 97 215 q 132 606 97 524 q 231 717 167 688 q 400 746 296 746 q 569 717 504 746 q 670 606 635 688 q 706 369 706 524 q 670 133 706 215 q 569 21 635 50 q 400 -8 504 -8 m 400 22 q 553 47 496 22 q 641 147 610 72 q 672 369 672 222 q 641 592 672 517 q 553 691 610 667 q 400 715 496 715 q 248 691 304 715 q 161 592 192 667 q 131 369 131 517 q 161 147 131 222 q 248 47 192 72 q 400 22 304 22 m 224 1189 l 574 1189 l 574 1168 l 224 1168 l 224 1189 m 179 918 q 216 1012 179 982 q 301 1042 253 1042 q 358 1028 331 1042 q 424 988 386 1014 q 481 952 458 964 q 528 940 504 940 q 602 967 572 940 q 632 1042 632 993 l 651 1042 q 617 952 651 986 q 525 918 583 918 q 471 931 497 918 q 411 969 444 944 q 351 1007 376 994 q 299 1019 325 1019 q 227 994 256 1019 q 199 918 199 969 l 179 918 z "},"œ":{"ha":1328,"x_min":97,"x_max":1231,"o":"m 703 349 q 764 99 703 176 q 961 22 825 22 l 1217 22 l 1217 0 q 958 -8 1086 -8 q 777 43 843 -8 q 688 214 711 94 q 593 38 664 85 q 396 -8 522 -8 q 230 21 293 -8 q 132 133 167 50 q 97 369 97 215 q 132 606 97 524 q 231 717 167 688 q 400 746 296 746 q 538 728 482 746 q 633 664 594 711 q 688 531 671 617 q 771 695 708 644 q 950 746 833 746 q 1103 727 1043 746 q 1197 657 1163 708 q 1231 510 1231 606 q 1046 349 1231 349 l 703 349 m 400 22 q 553 47 496 22 q 641 147 610 72 q 672 369 672 222 q 641 592 672 517 q 553 691 610 667 q 400 715 496 715 q 248 691 304 715 q 161 592 192 667 q 131 369 131 517 q 161 147 131 222 q 248 47 192 72 q 400 22 304 22 m 950 715 q 801 680 854 715 q 725 572 747 644 q 703 379 703 500 l 1042 379 q 1158 406 1118 379 q 1197 510 1197 433 q 1170 642 1197 599 q 1092 701 1143 686 q 950 715 1040 715 z "},"p":{"ha":794,"x_min":126,"x_max":697,"o":"m 126 738 l 149 738 l 160 658 q 285 717 204 688 q 431 746 367 746 q 585 690 525 746 q 671 550 644 635 q 697 372 697 465 q 629 86 697 181 q 431 -8 561 -8 q 295 15 365 -8 q 160 79 225 39 l 160 -329 l 126 -329 l 126 738 m 431 22 q 664 372 664 22 q 631 565 664 488 q 546 678 599 642 q 431 715 493 715 q 294 694 357 715 q 160 636 232 674 l 160 101 q 431 22 304 22 z "},"ṗ":{"ha":794,"x_min":126,"x_max":697,"o":"m 126 738 l 149 738 l 160 658 q 285 717 204 688 q 431 746 367 746 q 585 690 525 746 q 671 550 644 635 q 697 372 697 465 q 629 86 697 181 q 431 -8 561 -8 q 295 15 365 -8 q 160 79 225 39 l 160 -329 l 126 -329 l 126 738 m 431 22 q 664 372 664 22 q 631 565 664 488 q 546 678 599 642 q 431 715 493 715 q 294 694 357 715 q 160 636 232 674 l 160 101 q 431 22 304 22 m 367 935 q 355 940 360 935 q 350 951 350 944 l 350 1038 q 367 1054 350 1054 l 382 1054 q 399 1038 399 1054 l 399 951 q 382 935 399 935 l 367 935 z "},"þ":{"ha":794,"x_min":126,"x_max":697,"o":"m 126 1060 l 160 1060 l 160 658 q 285 717 204 688 q 431 746 367 746 q 585 690 525 746 q 671 550 644 635 q 697 372 697 465 q 629 86 697 181 q 431 -8 561 -8 q 295 15 365 -8 q 160 79 225 39 l 160 -329 l 126 -329 l 126 1060 m 431 22 q 664 372 664 22 q 631 565 664 488 q 546 678 599 642 q 431 715 493 715 q 294 694 357 715 q 160 636 232 674 l 160 101 q 431 22 304 22 z "},"q":{"ha":789,"x_min":97,"x_max":668,"o":"m 635 79 q 496 15 569 38 q 353 -8 422 -8 q 157 86 217 -8 q 97 372 97 181 q 164 649 97 553 q 368 746 231 746 q 668 735 532 746 l 668 -329 l 635 -329 l 635 79 m 353 22 q 494 42 428 22 q 635 101 561 61 l 635 715 l 364 715 q 185 622 239 715 q 131 372 131 529 q 183 107 131 192 q 353 22 236 22 z "},"r":{"ha":561,"x_min":126,"x_max":524,"o":"m 126 738 l 149 738 l 160 597 q 293 707 222 668 q 449 746 364 746 q 524 738 494 746 l 524 704 q 449 713 482 713 q 304 681 365 713 q 160 575 243 649 l 160 0 l 126 0 l 126 738 z "},"ŕ":{"ha":561,"x_min":126,"x_max":524,"o":"m 126 738 l 149 738 l 160 597 q 293 707 222 668 q 449 746 364 746 q 524 738 494 746 l 524 704 q 449 713 482 713 q 304 681 365 713 q 160 575 243 649 l 160 0 l 126 0 l 126 738 m 413 1061 l 449 1061 l 264 876 l 244 876 l 413 1061 z "},"ř":{"ha":561,"x_min":97,"x_max":524,"o":"m 126 738 l 149 738 l 160 597 q 293 707 222 668 q 449 746 364 746 q 524 738 494 746 l 524 704 q 449 713 482 713 q 304 681 365 713 q 160 575 243 649 l 160 0 l 126 0 l 126 738 m 97 1057 l 122 1057 l 278 897 l 450 1057 l 475 1057 l 292 876 l 264 876 l 97 1057 z "}}}
